<svg width="153" height="143" viewBox="0 0 153 143" fill="none" xmlns="http://www.w3.org/2000/svg">
<path fill-rule="evenodd" clip-rule="evenodd" d="M6.2631 61.0538C11.3151 26.7941 40.8364 0.5 76.4999 0.5C112.163 0.5 141.685 26.794 146.737 61.0535L146.777 61.3265L146.568 61.5061L135.555 70.945L146.706 80.503L146.912 80.6795L146.877 80.9485C142.256 115.694 112.509 142.5 76.4999 142.5C40.4909 142.5 10.7436 115.694 6.12317 80.9483L6.0874 80.6793L6.29341 80.5027L17.4441 70.945L6.43235 61.5063L6.22284 61.3268L6.2631 61.0538ZM7.29314 60.9271L18.5378 70.5653L18.9807 70.945L18.5378 71.3246L7.15068 81.085C11.8231 115.21 41.0917 141.5 76.4999 141.5C111.908 141.5 141.177 115.21 145.849 81.0852L134.462 71.3246L134.019 70.945L134.462 70.5653L145.707 60.9268C140.61 27.2839 111.566 1.5 76.4999 1.5C41.4342 1.5 12.3898 27.284 7.29314 60.9271ZM5.49967 66.331L5.83185 66.6263L10.3319 70.6263L10.7523 71L10.3319 71.3737L5.83185 75.3737L5.49967 75.669L5.16749 75.3737L0.667488 71.3737L0.24707 71L0.667488 70.6263L5.16749 66.6263L5.49967 66.331ZM1.75227 71L5.49967 74.331L9.24707 71L5.49967 67.669L1.75227 71ZM147.832 66.6263L147.5 66.331L147.168 66.6263L142.668 70.6263L142.247 71L142.668 71.3737L147.168 75.3737L147.5 75.669L147.832 75.3737L152.332 71.3737L152.753 71L152.332 70.6263L147.832 66.6263ZM147.5 74.331L143.753 71L147.5 67.669L151.247 71L147.5 74.331Z" fill="url(#paint0_linear_203_80)"/>
<defs>
<linearGradient id="paint0_linear_203_80" x1="30.9652" y1="-18.0531" x2="222.973" y2="2.52945" gradientUnits="userSpaceOnUse">
<stop stop-color="#F4D392"/>
<stop offset="0.587721" stop-color="#B87C36"/>
<stop offset="0.951179" stop-color="#FFE6A5"/>
</linearGradient>
</defs>
</svg>
