<svg width="135" height="40" viewBox="0 0 135 40" fill="none" xmlns="http://www.w3.org/2000/svg">
<g clip-path="url(#clip0_1_178)">
<path d="M130 0H5C2.23858 0 0 2.23858 0 5V35C0 37.7614 2.23858 40 5 40H130C132.761 40 135 37.7614 135 35V5C135 2.23858 132.761 0 130 0Z" fill="black"/>
<path d="M130 0.8C131.114 0.8 132.182 1.2425 132.97 2.03015C133.758 2.8178 134.2 3.88609 134.2 5V35C134.2 36.1139 133.758 37.1822 132.97 37.9698C132.182 38.7575 131.114 39.2 130 39.2H5C3.88609 39.2 2.8178 38.7575 2.03015 37.9698C1.2425 37.1822 0.8 36.1139 0.8 35V5C0.8 3.88609 1.2425 2.8178 2.03015 2.03015C2.8178 1.2425 3.88609 0.8 5 0.8H130ZM130 0H5C3.67392 0 2.40215 0.526784 1.46447 1.46447C0.526784 2.40215 0 3.67392 0 5V35C0 36.3261 0.526784 37.5979 1.46447 38.5355C2.40215 39.4732 3.67392 40 5 40H130C131.326 40 132.598 39.4732 133.536 38.5355C134.473 37.5979 135 36.3261 135 35V5C135 3.67392 134.473 2.40215 133.536 1.46447C132.598 0.526784 131.326 0 130 0Z" fill="white"/>
<path d="M47.4201 10.24C47.4371 10.6068 47.3794 10.9732 47.2504 11.317C47.1215 11.6608 46.9241 11.9748 46.6701 12.24C46.3865 12.5346 46.044 12.7661 45.6649 12.9194C45.2859 13.0728 44.8787 13.1445 44.4701 13.13C43.8501 13.1251 43.2453 12.9374 42.7315 12.5903C42.2177 12.2432 41.8177 11.7523 41.5818 11.1789C41.3458 10.6055 41.2843 9.97524 41.405 9.36706C41.5256 8.75888 41.8231 8.19983 42.2601 7.75997C42.5473 7.46675 42.8916 7.23559 43.2717 7.08079C43.6519 6.92598 44.0597 6.85083 44.4701 6.85997C44.8928 6.85856 45.3114 6.94364 45.7001 7.10997C46.0619 7.25593 46.3841 7.48553 46.6401 7.77997L46.1101 8.30997C45.9105 8.07256 45.6584 7.88483 45.3738 7.76161C45.0892 7.63838 44.7798 7.58305 44.4701 7.59997C44.1577 7.59844 43.8483 7.66 43.5603 7.78096C43.2723 7.90192 43.0117 8.07979 42.7941 8.30391C42.5765 8.52803 42.4064 8.79377 42.2941 9.08522C42.1817 9.37666 42.1293 9.6878 42.1401 9.99997C42.1335 10.4661 42.2652 10.9237 42.5184 11.3151C42.7716 11.7065 43.1351 12.0142 43.563 12.1992C43.9909 12.3843 44.464 12.4385 44.9226 12.355C45.3813 12.2714 45.8049 12.054 46.1401 11.73C46.4478 11.3965 46.6253 10.9635 46.6401 10.51H44.4701V9.78997H47.3801C47.4067 9.93849 47.4201 10.0891 47.4201 10.24ZM52.0001 7.73997H49.3001V9.63997H51.7601V10.36H49.3001V12.26H52.0001V13H48.5001V6.99997H52.0001V7.73997ZM55.2801 13H54.5101V7.73997H52.8301V6.99997H57.0001V7.73997H55.2801V13ZM59.9401 13V6.99997H60.7101V13H59.9401ZM64.1301 13H63.3601V7.73997H61.6801V6.99997H65.8001V7.73997H64.1301V13ZM73.6101 12.22C73.0255 12.8013 72.2345 13.1276 71.4101 13.1276C70.5856 13.1276 69.7947 12.8013 69.2101 12.22C68.6418 11.6185 68.3253 10.8224 68.3253 9.99497C68.3253 9.16753 68.6418 8.37145 69.2101 7.76997C69.4982 7.47972 69.841 7.24935 70.2185 7.09214C70.5961 6.93494 71.0011 6.854 71.4101 6.854C71.8191 6.854 72.224 6.93494 72.6016 7.09214C72.9792 7.24935 73.3219 7.47972 73.6101 7.76997C74.1806 8.3703 74.4986 9.16682 74.4986 9.99497C74.4986 10.8231 74.1806 11.6196 73.6101 12.22ZM69.7801 11.72C70.213 12.1511 70.7991 12.3931 71.4101 12.3931C72.0211 12.3931 72.6071 12.1511 73.0401 11.72C73.4673 11.249 73.704 10.6359 73.704 9.99997C73.704 9.36408 73.4673 8.75095 73.0401 8.27997C72.6071 7.84885 72.0211 7.6068 71.4101 7.6068C70.7991 7.6068 70.213 7.84885 69.7801 8.27997C69.3528 8.75095 69.1162 9.36408 69.1162 9.99997C69.1162 10.6359 69.3528 11.249 69.7801 11.72ZM75.5801 13V6.99997H76.5201L79.4401 11.67V6.99997H80.2101V13H79.4101L76.3601 8.10997V13H75.5801Z" fill="white" stroke="white" stroke-width="0.2" stroke-miterlimit="10"/>
<path d="M68.1401 21.7501C67.3004 21.7541 66.4807 22.0067 65.7844 22.4761C65.0881 22.9455 64.5465 23.6106 64.2279 24.3875C63.9093 25.1644 63.828 26.0183 63.9942 26.8414C64.1605 27.6645 64.5668 28.4199 65.162 29.0123C65.7571 29.6047 66.5144 30.0075 67.3383 30.1699C68.1622 30.3322 69.0157 30.2469 69.7911 29.9247C70.5665 29.6024 71.2291 29.0577 71.6952 28.3592C72.1613 27.6607 72.4101 26.8398 72.4101 26.0001C72.4183 25.4381 72.3132 24.8801 72.1013 24.3595C71.8893 23.8388 71.5748 23.3662 71.1764 22.9696C70.7779 22.5731 70.3038 22.2607 69.7822 22.0512C69.2606 21.8417 68.7021 21.7393 68.1401 21.7501ZM68.1401 28.5801C67.6237 28.6162 67.1083 28.4962 66.6611 28.2355C66.2138 27.9748 65.8553 27.5857 65.6321 27.1186C65.409 26.6514 65.3315 26.128 65.4098 25.6163C65.4881 25.1045 65.7185 24.6282 66.0711 24.2492C66.4237 23.8701 66.8821 23.6059 67.3869 23.4909C67.8916 23.3759 68.4193 23.4154 68.9013 23.6042C69.3833 23.7931 69.7973 24.1225 70.0896 24.5498C70.3819 24.9771 70.5388 25.4824 70.5401 26.0001C70.5562 26.3281 70.5065 26.656 70.3938 26.9645C70.2812 27.273 70.1079 27.5558 69.8842 27.7963C69.6606 28.0368 69.391 28.23 69.0914 28.3646C68.7919 28.4992 68.4684 28.5725 68.1401 28.5801ZM58.8301 21.7501C57.99 21.7521 57.1692 22.003 56.4717 22.4712C55.7741 22.9394 55.2309 23.6039 54.9108 24.3806C54.5906 25.1574 54.5079 26.0116 54.673 26.8354C54.8381 27.6591 55.2437 28.4155 55.8384 29.0088C56.4332 29.6022 57.1905 30.006 58.0146 30.1692C58.8388 30.3324 59.6928 30.2476 60.4688 29.9256C61.2448 29.6037 61.908 29.0589 62.3745 28.3602C62.8411 27.6616 63.0901 26.8403 63.0901 26.0001C63.0982 25.4381 62.9932 24.8801 62.7813 24.3595C62.5693 23.8388 62.2548 23.3662 61.8564 22.9696C61.4579 22.5731 60.9838 22.2607 60.4622 22.0512C59.9406 21.8417 59.3821 21.7393 58.8201 21.7501H58.8301ZM58.8301 28.5801C58.3134 28.6183 57.7972 28.5 57.3487 28.2407C56.9002 27.9814 56.5402 27.593 56.3155 27.1262C56.0907 26.6594 56.0118 26.1358 56.0888 25.6234C56.1658 25.1111 56.3953 24.6339 56.7474 24.2538C57.0995 23.8737 57.5578 23.6085 58.0628 23.4925C58.5677 23.3766 59.0959 23.4154 59.5785 23.6038C60.0611 23.7922 60.4757 24.1216 60.7685 24.549C61.0613 24.9764 61.2187 25.482 61.2201 26.0001C61.2362 26.3281 61.1865 26.656 61.0738 26.9645C60.9612 27.273 60.7879 27.5558 60.5642 27.7963C60.3406 28.0368 60.071 28.23 59.7714 28.3646C59.4719 28.4992 59.1484 28.5725 58.8201 28.5801H58.8301ZM47.7401 23.0601V24.8601H52.0601C51.9924 25.7079 51.6399 26.5079 51.0601 27.1301C50.6279 27.5704 50.1083 27.9152 49.5348 28.1426C48.9613 28.3699 48.3465 28.4747 47.7301 28.4501C46.4571 28.4501 45.2362 27.9444 44.336 27.0442C43.4358 26.1441 42.9301 24.9232 42.9301 23.6501C42.9301 22.3771 43.4358 21.1562 44.336 20.256C45.2362 19.3558 46.4571 18.8501 47.7301 18.8501C48.9479 18.8303 50.1239 19.2942 51.0001 20.1401L52.2701 18.8701C51.6786 18.2711 50.9728 17.797 50.1947 17.4758C49.4166 17.1546 48.5819 16.9928 47.7401 17.0001C46.8511 16.9655 45.9643 17.1107 45.1327 17.4271C44.3012 17.7434 43.5421 18.2244 42.9009 18.8411C42.2596 19.4579 41.7495 20.1977 41.4011 21.0163C41.0527 21.8349 40.873 22.7154 40.873 23.6051C40.873 24.4948 41.0527 25.3753 41.4011 26.1939C41.7495 27.0125 42.2596 27.7524 42.9009 28.3691C43.5421 28.9859 44.3012 29.4668 45.1327 29.7831C45.9643 30.0995 46.8511 30.2447 47.7401 30.2101C48.5961 30.2488 49.4504 30.1037 50.2455 29.7846C51.0407 29.4655 51.7583 28.9798 52.3501 28.3601C53.3978 27.209 53.9571 25.6959 53.9101 24.1401C53.9133 23.7611 53.8798 23.3827 53.8101 23.0101L47.7401 23.0601ZM93.0501 24.4601C92.7893 23.6929 92.3016 23.0229 91.6516 22.539C91.0016 22.055 90.2199 21.7799 89.4101 21.7501C88.8631 21.749 88.3217 21.8602 87.8193 22.0767C87.317 22.2931 86.8644 22.6103 86.4895 23.0087C86.1146 23.407 85.8254 23.878 85.6397 24.3925C85.4541 24.907 85.3759 25.4542 85.4101 26.0001C85.3979 26.559 85.4986 27.1147 85.706 27.6338C85.9133 28.153 86.2232 28.625 86.6171 29.0217C87.0111 29.4184 87.4809 29.7316 87.9985 29.9427C88.5162 30.1538 89.0711 30.2583 89.6301 30.2501C90.3296 30.2539 91.0191 30.0841 91.6369 29.756C92.2547 29.4279 92.7815 28.9518 93.1701 28.3701L91.7201 27.3701C91.5037 27.7309 91.1973 28.0293 90.8309 28.2362C90.4646 28.443 90.0508 28.5512 89.6301 28.5501C89.1969 28.5666 88.7688 28.4524 88.4014 28.2224C88.034 27.9923 87.7444 27.657 87.5701 27.2601L93.2601 24.9101L93.0501 24.4601ZM87.2501 25.8801C87.2298 25.5708 87.2715 25.2606 87.3726 24.9676C87.4737 24.6745 87.6323 24.4047 87.8391 24.1737C88.0458 23.9428 88.2966 23.7554 88.5766 23.6225C88.8567 23.4897 89.1604 23.4141 89.4701 23.4001C89.7927 23.3789 90.1144 23.4528 90.3953 23.6128C90.6762 23.7728 90.9039 24.0118 91.0501 24.3001L87.2501 25.8801ZM82.6301 30.0001H84.5001V17.5001H82.6301V30.0001ZM79.5701 22.7001H79.5001C79.2183 22.385 78.873 22.133 78.487 21.9607C78.101 21.7884 77.6829 21.6996 77.2601 21.7001C76.1673 21.7531 75.1367 22.2245 74.3821 23.0167C73.6274 23.8089 73.2064 24.861 73.2064 25.9551C73.2064 27.0492 73.6274 28.1014 74.3821 28.8935C75.1367 29.6857 76.1673 30.1571 77.2601 30.2101C77.6839 30.2172 78.104 30.1314 78.491 29.9586C78.8781 29.7859 79.2225 29.5304 79.5001 29.2101H79.5601V29.8201C79.5601 31.4501 78.6901 32.3201 77.2901 32.3201C76.8238 32.3092 76.3713 32.1598 75.9902 31.8909C75.6091 31.622 75.3167 31.2458 75.1501 30.8101L73.5201 31.4901C73.8269 32.2365 74.3497 32.8742 75.0214 33.3214C75.6931 33.7686 76.4831 34.0049 77.2901 34.0001C79.4801 34.0001 81.2901 32.7101 81.2901 29.5701V22.0001H79.5701V22.7001ZM77.4301 28.5801C76.785 28.5233 76.1847 28.2269 75.7474 27.7493C75.31 27.2717 75.0675 26.6477 75.0675 26.0001C75.0675 25.3526 75.31 24.7285 75.7474 24.2509C76.1847 23.7734 76.785 23.477 77.4301 23.4201C77.7499 23.4365 78.0632 23.5168 78.3516 23.6562C78.6399 23.7955 78.8974 23.9912 79.1089 24.2316C79.3205 24.472 79.4818 24.7524 79.5833 25.0561C79.6848 25.3598 79.7245 25.6808 79.7001 26.0001C79.7274 26.3208 79.6893 26.6437 79.5883 26.9493C79.4872 27.2548 79.3252 27.5367 79.1121 27.7779C78.8989 28.0191 78.6391 28.2145 78.3483 28.3524C78.0575 28.4903 77.7417 28.5678 77.4201 28.5801H77.4301ZM101.81 17.5001H97.3401V30.0001H99.2101V25.2601H101.82C102.353 25.2984 102.888 25.2265 103.392 25.0488C103.896 24.8712 104.358 24.5916 104.749 24.2276C105.14 23.8636 105.452 23.4229 105.665 22.933C105.879 22.443 105.989 21.9144 105.989 21.3801C105.989 20.8458 105.879 20.3172 105.665 19.8273C105.452 19.3374 105.14 18.8967 104.749 18.5326C104.358 18.1686 103.896 17.889 103.392 17.7114C102.888 17.5337 102.353 17.4618 101.82 17.5001H101.81ZM101.81 23.5001H99.2001V19.2401H101.85C102.419 19.2401 102.965 19.4661 103.367 19.8684C103.769 20.2706 103.995 20.8162 103.995 21.3851C103.995 21.954 103.769 22.4996 103.367 22.9019C102.965 23.3041 102.419 23.5301 101.85 23.5301L101.81 23.5001ZM113.34 21.7001C112.659 21.6594 111.981 21.8185 111.39 22.1578C110.798 22.4972 110.319 23.0019 110.01 23.6101L111.67 24.3001C111.834 23.9985 112.082 23.7509 112.383 23.5876C112.685 23.4242 113.028 23.3522 113.37 23.3801C113.607 23.3524 113.848 23.3722 114.078 23.4384C114.307 23.5047 114.521 23.616 114.708 23.7658C114.894 23.9157 115.048 24.1011 115.162 24.3113C115.276 24.5215 115.346 24.7523 115.37 24.9901V25.1201C114.769 24.8021 114.1 24.6372 113.42 24.6401C111.63 24.6401 109.82 25.6401 109.82 27.4501C109.838 27.8361 109.933 28.2145 110.099 28.5632C110.266 28.9118 110.5 29.2235 110.789 29.4799C111.078 29.7363 111.416 29.9321 111.782 30.0558C112.148 30.1795 112.535 30.2286 112.92 30.2001C113.391 30.2339 113.862 30.1404 114.285 29.9292C114.707 29.7181 115.065 29.3971 115.32 29.0001H115.38V30.0001H117.18V25.1901C117.18 23.0001 115.52 21.7301 113.39 21.7301L113.34 21.7001ZM113.11 28.5501C112.5 28.5501 111.65 28.2401 111.65 27.4901C111.65 26.4901 112.71 26.1601 113.65 26.1601C114.244 26.1455 114.831 26.2905 115.35 26.5801C115.288 27.1215 115.031 27.6221 114.629 27.9896C114.227 28.3571 113.705 28.5668 113.16 28.5801L113.11 28.5501ZM123.74 22.0001L121.6 27.4201H121.54L119.32 22.0001H117.32L120.65 29.5801L118.75 33.7901H120.7L125.82 22.0001H123.74ZM106.93 30.0001H108.8V17.5001H106.93V30.0001Z" fill="white"/>
<path d="M10.4401 7.53997C10.1142 7.93108 9.9497 8.43177 9.98014 8.93997V31.06C9.9497 31.5682 10.1142 32.0689 10.4401 32.46L10.5101 32.53L22.9001 20.15V19.86L10.5101 7.46997L10.4401 7.53997Z" fill="url(#paint0_linear_1_178)"/>
<path d="M27.0004 24.28L22.9004 20.15V19.86L27.0004 15.72L27.0904 15.77L32.0004 18.56C33.4004 19.35 33.4004 20.65 32.0004 21.45L27.1104 24.23L27.0004 24.28Z" fill="url(#paint1_linear_1_178)"/>
<path d="M27.1204 24.22L22.9004 20L10.4404 32.46C10.7258 32.7109 11.0898 32.8541 11.4696 32.8651C11.8494 32.876 12.2211 32.754 12.5204 32.52L27.1304 24.22" fill="url(#paint2_linear_1_178)"/>
<path d="M27.1197 15.78L12.5097 7.48005C12.2103 7.24606 11.8387 7.124 11.4589 7.13496C11.0791 7.14591 10.715 7.2892 10.4297 7.54005L22.8997 20L27.1197 15.78Z" fill="url(#paint3_linear_1_178)"/>
<path opacity="0.2" d="M27.0004 24.1299L12.5104 32.3799C12.2217 32.5957 11.8709 32.7124 11.5104 32.7124C11.1499 32.7124 10.7991 32.5957 10.5104 32.3799L10.4404 32.4499L10.5104 32.5199C10.7985 32.7373 11.1495 32.8549 11.5104 32.8549C11.8713 32.8549 12.2224 32.7373 12.5104 32.5199L27.1204 24.2199L27.0004 24.1299Z" fill="black"/>
<path opacity="0.12" d="M10.4401 32.32C10.1142 31.9289 9.9497 31.4282 9.98014 30.92V31.07C9.9497 31.5782 10.1142 32.0789 10.4401 32.47L10.5101 32.4L10.4401 32.32ZM32.0001 21.3L27.0001 24.13L27.0901 24.22L32.0001 21.44C32.2787 21.3091 32.5179 21.1071 32.6935 20.8543C32.869 20.6014 32.9748 20.3068 33.0001 20C32.9439 20.2787 32.8245 20.5408 32.6512 20.7662C32.4778 20.9915 32.2551 21.1742 32.0001 21.3Z" fill="black"/>
<path opacity="0.25" d="M12.5097 7.61994L31.9997 18.6999C32.2547 18.8258 32.4774 19.0084 32.6508 19.2338C32.8241 19.4591 32.9435 19.7212 32.9997 19.9999C32.9744 19.6932 32.8686 19.3985 32.6931 19.1457C32.5175 18.8929 32.2783 18.6908 31.9997 18.5599L12.5097 7.47994C11.1097 6.68994 9.96973 7.34994 9.96973 8.94994V9.09994C9.99973 7.48994 11.1197 6.82994 12.5097 7.61994Z" fill="white"/>
</g>
<defs>
<linearGradient id="paint0_linear_1_178" x1="21.8001" y1="8.70997" x2="5.02015" y2="25.49" gradientUnits="userSpaceOnUse">
<stop stop-color="#00A0FF"/>
<stop offset="0.01" stop-color="#00A1FF"/>
<stop offset="0.26" stop-color="#00BEFF"/>
<stop offset="0.51" stop-color="#00D2FF"/>
<stop offset="0.76" stop-color="#00DFFF"/>
<stop offset="1" stop-color="#00E3FF"/>
</linearGradient>
<linearGradient id="paint1_linear_1_178" x1="33.8304" y1="20" x2="9.64039" y2="20" gradientUnits="userSpaceOnUse">
<stop stop-color="#FFE000"/>
<stop offset="0.41" stop-color="#FFBD00"/>
<stop offset="0.78" stop-color="#FFA500"/>
<stop offset="1" stop-color="#FF9C00"/>
</linearGradient>
<linearGradient id="paint2_linear_1_178" x1="24.8304" y1="22.3" x2="2.07043" y2="45.05" gradientUnits="userSpaceOnUse">
<stop stop-color="#FF3A44"/>
<stop offset="1" stop-color="#C31162"/>
</linearGradient>
<linearGradient id="paint3_linear_1_178" x1="7.29969" y1="0.180048" x2="17.4597" y2="10.34" gradientUnits="userSpaceOnUse">
<stop stop-color="#32A071"/>
<stop offset="0.07" stop-color="#2DA771"/>
<stop offset="0.48" stop-color="#15CF74"/>
<stop offset="0.8" stop-color="#06E775"/>
<stop offset="1" stop-color="#00F076"/>
</linearGradient>
<clipPath id="clip0_1_178">
<rect width="135" height="40" fill="white"/>
</clipPath>
</defs>
</svg>
