<svg width="135" height="40" viewBox="0 0 135 40" fill="none" xmlns="http://www.w3.org/2000/svg">
<g clip-path="url(#clip0_1_191)">
<path d="M125.135 1.72057e-06H9.53468C9.16798 1.72057e-06 8.80568 1.72062e-06 8.43995 0.00200172C8.1338 0.00400172 7.83009 0.00981172 7.521 0.0147017C6.84951 0.0226035 6.17961 0.081678 5.5171 0.191412C4.85552 0.303534 4.21467 0.514917 3.61622 0.818412C3.0185 1.12447 2.47235 1.52217 1.99757 1.99707C1.5203 2.47064 1.12246 3.01802 0.81935 3.61816C0.5154 4.21711 0.304641 4.85894 0.19435 5.52148C0.0830109 6.18319 0.0230984 6.85252 0.01515 7.52348C0.00587 7.83008 0.00489 8.1377 0 8.44434V31.5586C0.00489 31.8691 0.00587 32.1699 0.01515 32.4805C0.0231008 33.1514 0.0830134 33.8207 0.19435 34.4824C0.304336 35.1453 0.515108 35.7875 0.81935 36.3867C1.12233 36.9849 1.52022 37.5301 1.99757 38.001C2.47054 38.478 3.01705 38.876 3.61622 39.1797C4.21467 39.484 4.85545 39.6966 5.5171 39.8105C6.17972 39.9194 6.84956 39.9785 7.521 39.9873C7.83009 39.9941 8.1338 39.998 8.43995 39.998C8.80567 40 9.168 40 9.53468 40H125.135C125.494 40 125.859 40 126.219 39.998C126.523 39.998 126.836 39.9941 127.141 39.9873C127.811 39.9789 128.479 39.9198 129.141 39.8105C129.804 39.6958 130.448 39.4833 131.049 39.1797C131.647 38.8758 132.194 38.4778 132.666 38.001C133.142 37.5282 133.541 36.9835 133.848 36.3867C134.15 35.7871 134.358 35.1449 134.467 34.4824C134.578 33.8206 134.64 33.1515 134.652 32.4805C134.656 32.1699 134.656 31.8691 134.656 31.5586C134.664 31.1953 134.664 30.834 134.664 30.4648V9.53613C134.664 9.16992 134.664 8.80664 134.656 8.44434C134.656 8.1377 134.656 7.83008 134.652 7.52344C134.64 6.85242 134.578 6.18324 134.467 5.52144C134.358 4.85928 134.149 4.2175 133.848 3.61812C133.23 2.4152 132.252 1.43603 131.049 0.818322C130.448 0.515569 129.804 0.304242 129.141 0.191322C128.48 0.0811045 127.811 0.0220095 127.141 0.0145617C126.836 0.00968172 126.523 0.00382172 126.219 0.00187172C125.859 -0.000128279 125.494 1.72057e-06 125.135 1.72057e-06Z" fill="white"/>
<path d="M8.44483 39.125C8.14015 39.125 7.84283 39.1211 7.54054 39.1143C6.91432 39.1061 6.28957 39.0516 5.6714 38.9512C5.09499 38.8519 4.5366 38.6673 4.01466 38.4033C3.4975 38.1415 3.02581 37.7983 2.61766 37.3867C2.2036 36.98 1.85888 36.5082 1.59715 35.9902C1.33254 35.4688 1.14941 34.9099 1.05415 34.333C0.951274 33.7131 0.895614 33.0863 0.88765 32.458C0.88131 32.2471 0.87301 31.5449 0.87301 31.5449V8.44434C0.87301 8.44434 0.88185 7.75293 0.8877 7.5498C0.895326 6.92248 0.950662 6.29665 1.05323 5.67773C1.14867 5.09925 1.33194 4.53875 1.59669 4.01563C1.85745 3.49794 2.20026 3.02586 2.61183 2.61768C3.02293 2.20562 3.49613 1.8606 4.01417 1.59521C4.53491 1.33209 5.09225 1.14873 5.66749 1.05127C6.28769 0.949836 6.91461 0.894996 7.543 0.88721L8.44532 0.875H126.214L127.127 0.8877C127.75 0.895099 128.371 0.94945 128.985 1.05029C129.566 1.14898 130.13 1.33362 130.656 1.59814C131.694 2.13299 132.539 2.97916 133.071 4.01807C133.332 4.53758 133.512 5.09351 133.606 5.66699C133.71 6.29099 133.768 6.92174 133.78 7.5542C133.783 7.8374 133.783 8.1416 133.783 8.44434C133.791 8.81934 133.791 9.17627 133.791 9.53613V30.4648C133.791 30.8281 133.791 31.1826 133.783 31.54C133.783 31.8652 133.783 32.1631 133.779 32.4697C133.768 33.0909 133.71 33.7104 133.608 34.3232C133.515 34.9043 133.333 35.4675 133.068 35.9932C132.805 36.5056 132.462 36.9733 132.053 37.3789C131.644 37.7927 131.172 38.1379 130.653 38.4014C130.128 38.6674 129.566 38.8527 128.985 38.9512C128.367 39.0522 127.742 39.1067 127.116 39.1143C126.823 39.1211 126.517 39.125 126.219 39.125L125.135 39.127L8.44483 39.125Z" fill="black"/>
<path d="M32.7973 20.3007C32.8081 19.466 33.0298 18.6477 33.4418 17.9217C33.8538 17.1957 34.4428 16.5858 35.1539 16.1486C34.7022 15.5035 34.1062 14.9725 33.4134 14.598C32.7206 14.2234 31.9499 14.0156 31.1627 13.991C29.4835 13.8147 27.8555 14.9958 26.9998 14.9958C26.1276 14.9958 24.8101 14.0085 23.3913 14.0376C22.4737 14.0673 21.5793 14.3341 20.7954 14.8122C20.0116 15.2903 19.3649 15.9632 18.9184 16.7655C16.9844 20.1139 18.427 25.035 20.2796 27.7416C21.2065 29.0669 22.2898 30.5474 23.7072 30.4949C25.0943 30.4374 25.6123 29.6104 27.2866 29.6104C28.9454 29.6104 29.4314 30.4949 30.8776 30.4615C32.366 30.4374 33.3038 29.1303 34.1982 27.7924C34.8641 26.848 35.3766 25.8043 35.7166 24.6999C34.8519 24.3341 34.1139 23.722 33.5948 22.9397C33.0757 22.1574 32.7983 21.2396 32.7973 20.3007Z" fill="white"/>
<path d="M30.0657 12.2109C30.8772 11.2367 31.277 9.98452 31.1802 8.72029C29.9404 8.85051 28.7951 9.44307 27.9726 10.3799C27.5705 10.8376 27.2625 11.37 27.0663 11.9468C26.87 12.5235 26.7894 13.1333 26.8289 13.7413C27.4491 13.7477 28.0626 13.6133 28.6232 13.3482C29.1839 13.0831 29.6771 12.6942 30.0657 12.2109Z" fill="white"/>
<path d="M50.3307 27.1397H45.5973L44.4606 30.4961H42.4557L46.9391 18.0781H49.0221L53.5055 30.4961H51.4665L50.3307 27.1397ZM46.0876 25.5908H49.8396L47.9899 20.1436H47.9382L46.0876 25.5908Z" fill="white"/>
<path d="M63.1881 25.9697C63.1881 28.7832 61.6823 30.5908 59.4098 30.5908C58.8342 30.621 58.2617 30.4883 57.7579 30.2082C57.2541 29.9281 56.8394 29.5117 56.5612 29.0068H56.5182V33.4912H54.6598V21.4424H56.4587V22.9483H56.4928C56.7838 22.4458 57.2055 22.0316 57.7132 21.7498C58.2208 21.4679 58.7953 21.329 59.3756 21.3477C61.6735 21.3477 63.1881 23.1641 63.1881 25.9697ZM61.278 25.9697C61.278 24.1367 60.3307 22.9317 58.8854 22.9317C57.4655 22.9317 56.5104 24.1621 56.5104 25.9697C56.5104 27.794 57.4655 29.0156 58.8854 29.0156C60.3307 29.0156 61.278 27.8194 61.278 25.9697Z" fill="white"/>
<path d="M73.153 25.9697C73.153 28.7832 71.6471 30.5908 69.3747 30.5908C68.799 30.621 68.2265 30.4883 67.7227 30.2082C67.2189 29.9281 66.8042 29.5117 66.526 29.0068H66.483V33.4912H64.6246V21.4424H66.4235V22.9483H66.4576C66.7486 22.4458 67.1703 22.0316 67.678 21.7498C68.1856 21.4679 68.7601 21.329 69.3405 21.3477C71.6383 21.3477 73.153 23.1641 73.153 25.9697ZM71.2428 25.9697C71.2428 24.1367 70.2956 22.9317 68.8502 22.9317C67.4303 22.9317 66.4752 24.1621 66.4752 25.9697C66.4752 27.794 67.4303 29.0156 68.8502 29.0156C70.2956 29.0156 71.2428 27.8194 71.2428 25.9697Z" fill="white"/>
<path d="M79.7389 27.0361C79.8766 28.2676 81.0729 29.0761 82.7077 29.0761C84.2741 29.0761 85.401 28.2676 85.401 27.1572C85.401 26.1933 84.7213 25.6162 83.112 25.2207L81.5026 24.833C79.2223 24.2822 78.1637 23.2158 78.1637 21.4853C78.1637 19.3427 80.0309 17.8711 82.6823 17.8711C85.3063 17.8711 87.1051 19.3427 87.1657 21.4853H85.2897C85.1774 20.2461 84.153 19.498 82.6559 19.498C81.1588 19.498 80.1344 20.2549 80.1344 21.3564C80.1344 22.2343 80.7887 22.7509 82.3893 23.1464L83.7575 23.4824C86.3053 24.0849 87.3639 25.1084 87.3639 26.9247C87.3639 29.248 85.5133 30.7031 82.57 30.7031C79.816 30.7031 77.9567 29.2822 77.8366 27.0361L79.7389 27.0361Z" fill="white"/>
<path d="M91.3747 19.2998V21.4424H93.0963V22.9141H91.3747V27.9053C91.3747 28.6807 91.7194 29.042 92.4762 29.042C92.6806 29.0384 92.8847 29.0241 93.0876 28.999V30.4619C92.7473 30.5255 92.4014 30.5543 92.0553 30.5478C90.2223 30.5478 89.5075 29.8594 89.5075 28.1035V22.9141H88.1911V21.4424H89.5075V19.2998H91.3747Z" fill="white"/>
<path d="M94.0935 25.9697C94.0935 23.1211 95.7712 21.3311 98.3874 21.3311C101.012 21.3311 102.682 23.1211 102.682 25.9697C102.682 28.8262 101.021 30.6084 98.3874 30.6084C95.7545 30.6084 94.0935 28.8262 94.0935 25.9697ZM100.789 25.9697C100.789 24.0156 99.8933 22.8623 98.3874 22.8623C96.8815 22.8623 95.987 24.0244 95.987 25.9697C95.987 27.9317 96.8815 29.0762 98.3874 29.0762C99.8933 29.0762 100.789 27.9317 100.789 25.9697Z" fill="white"/>
<path d="M104.215 21.4424H105.987V22.9834H106.03C106.15 22.5021 106.432 22.0768 106.828 21.7789C107.225 21.481 107.712 21.3287 108.208 21.3477C108.422 21.3469 108.635 21.3702 108.844 21.417V23.1553C108.574 23.0727 108.292 23.0347 108.009 23.043C107.739 23.032 107.47 23.0796 107.22 23.1825C106.971 23.2854 106.746 23.4411 106.562 23.639C106.378 23.8369 106.239 24.0723 106.155 24.3289C106.07 24.5856 106.042 24.8575 106.073 25.126V30.4961H104.215L104.215 21.4424Z" fill="white"/>
<path d="M117.413 27.8369C117.163 29.4805 115.562 30.6084 113.514 30.6084C110.881 30.6084 109.246 28.8438 109.246 26.0127C109.246 23.1729 110.889 21.3311 113.436 21.3311C115.941 21.3311 117.516 23.0518 117.516 25.7969V26.4336H111.122V26.5459C111.092 26.8791 111.134 27.2148 111.244 27.5306C111.354 27.8465 111.53 28.1352 111.761 28.3778C111.991 28.6203 112.27 28.8111 112.58 28.9374C112.89 29.0637 113.223 29.1227 113.557 29.1104C113.996 29.1515 114.437 29.0498 114.814 28.8204C115.191 28.5909 115.483 28.246 115.648 27.8369L117.413 27.8369ZM111.131 25.1348H115.657C115.674 24.8352 115.628 24.5354 115.523 24.2542C115.419 23.973 115.257 23.7164 115.049 23.5006C114.84 23.2849 114.589 23.1145 114.312 23.0003C114.034 22.8861 113.736 22.8305 113.436 22.8369C113.134 22.8351 112.834 22.8933 112.554 23.008C112.273 23.1228 112.019 23.2918 111.805 23.5055C111.59 23.7191 111.42 23.9731 111.305 24.2527C111.189 24.5324 111.13 24.8321 111.131 25.1348Z" fill="white"/>
<path d="M45.8545 8.73101C46.2441 8.70305 46.6351 8.76191 46.9992 8.90334C47.3633 9.04478 47.6915 9.26526 47.9601 9.54888C48.2287 9.83251 48.431 10.1722 48.5524 10.5435C48.6738 10.9147 48.7113 11.3083 48.6622 11.6959C48.6622 13.6021 47.6319 14.6979 45.8545 14.6979H43.6993V8.73101H45.8545ZM44.626 13.854H45.751C46.0294 13.8707 46.308 13.825 46.5666 13.7204C46.8251 13.6158 47.0571 13.4548 47.2456 13.2493C47.4341 13.0437 47.5743 12.7987 47.6562 12.5321C47.7381 12.2655 47.7594 11.9839 47.7188 11.708C47.7565 11.4332 47.7329 11.1534 47.6498 10.8887C47.5667 10.6241 47.4261 10.3811 47.238 10.1771C47.05 9.97321 46.8191 9.81341 46.562 9.70917C46.3049 9.60493 46.028 9.55885 45.751 9.57422H44.626V13.854Z" fill="white"/>
<path d="M49.709 12.4444C49.6807 12.1484 49.7146 11.8499 49.8084 11.5678C49.9022 11.2857 50.054 11.0264 50.2539 10.8064C50.4539 10.5864 50.6976 10.4107 50.9695 10.2904C51.2413 10.1701 51.5353 10.108 51.8326 10.108C52.1298 10.108 52.4238 10.1701 52.6957 10.2904C52.9675 10.4107 53.2112 10.5864 53.4112 10.8064C53.6111 11.0264 53.7629 11.2857 53.8567 11.5678C53.9506 11.8499 53.9844 12.1484 53.9561 12.4444C53.9849 12.7406 53.9515 13.0396 53.8579 13.3221C53.7643 13.6046 53.6126 13.8644 53.4126 14.0848C53.2127 14.3053 52.9688 14.4814 52.6966 14.6019C52.4245 14.7225 52.1302 14.7847 51.8326 14.7847C51.5349 14.7847 51.2406 14.7225 50.9685 14.6019C50.6964 14.4814 50.4525 14.3053 50.2525 14.0848C50.0525 13.8644 49.9008 13.6046 49.8072 13.3221C49.7136 13.0396 49.6802 12.7406 49.709 12.4444ZM53.042 12.4444C53.042 11.4683 52.6035 10.8975 51.834 10.8975C51.0616 10.8975 50.627 11.4683 50.627 12.4444C50.627 13.4283 51.0616 13.9947 51.834 13.9947C52.6036 13.9946 53.042 13.4243 53.042 12.4444Z" fill="white"/>
<path d="M59.6016 14.6978H58.6797L57.7491 11.3814H57.6788L56.752 14.6978H55.8389L54.5977 10.1948H55.4991L56.3057 13.6308H56.3721L57.2979 10.1948H58.1504L59.0762 13.6308H59.1465L59.9493 10.1948H60.8379L59.6016 14.6978Z" fill="white"/>
<path d="M61.8819 10.1948H62.7373V10.9102H62.8038C62.9164 10.6532 63.1064 10.4379 63.3473 10.2941C63.5882 10.1503 63.8679 10.0852 64.1475 10.1079C64.3666 10.0914 64.5866 10.1245 64.7912 10.2046C64.9958 10.2847 65.1797 10.4098 65.3294 10.5706C65.4791 10.7315 65.5907 10.9239 65.6559 11.1337C65.7211 11.3436 65.7383 11.5654 65.7061 11.7827V14.6977H64.8174V12.0059C64.8174 11.2822 64.503 10.9224 63.8457 10.9224C63.697 10.9154 63.5485 10.9408 63.4104 10.9966C63.2724 11.0524 63.148 11.1374 63.0459 11.2458C62.9438 11.3542 62.8663 11.4834 62.8188 11.6245C62.7712 11.7657 62.7548 11.9154 62.7705 12.0635V14.6978H61.8819L61.8819 10.1948Z" fill="white"/>
<path d="M67.1221 8.43701H68.0108V14.6978H67.1221V8.43701Z" fill="white"/>
<path d="M69.2461 12.4444C69.2178 12.1484 69.2517 11.8498 69.3456 11.5677C69.4394 11.2857 69.5912 11.0263 69.7912 10.8063C69.9911 10.5863 70.2349 10.4106 70.5068 10.2903C70.7786 10.17 71.0726 10.1079 71.3699 10.1079C71.6672 10.1079 71.9612 10.17 72.2331 10.2903C72.5049 10.4106 72.7487 10.5863 72.9486 10.8063C73.1486 11.0263 73.3004 11.2857 73.3942 11.5677C73.4881 11.8498 73.522 12.1484 73.4937 12.4444C73.5225 12.7406 73.489 13.0396 73.3954 13.3221C73.3018 13.6046 73.1501 13.8644 72.9501 14.0848C72.7501 14.3052 72.5061 14.4814 72.234 14.6019C71.9619 14.7224 71.6675 14.7847 71.3699 14.7847C71.0723 14.7847 70.7779 14.7224 70.5058 14.6019C70.2337 14.4814 69.9898 14.3052 69.7897 14.0848C69.5897 13.8644 69.438 13.6046 69.3444 13.3221C69.2508 13.0396 69.2173 12.7406 69.2461 12.4444ZM72.5791 12.4444C72.5791 11.4683 72.1407 10.8975 71.3711 10.8975C70.5987 10.8975 70.1641 11.4683 70.1641 12.4444C70.1641 13.4283 70.5987 13.9947 71.3711 13.9947C72.1407 13.9946 72.5791 13.4243 72.5791 12.4444Z" fill="white"/>
<path d="M74.4292 13.4243C74.4292 12.6138 75.0328 12.1465 76.104 12.0801L77.3238 12.0098V11.6211C77.3238 11.1455 77.0093 10.877 76.4019 10.877C75.9058 10.877 75.5621 11.0591 75.4634 11.3775H74.6031C74.6939 10.604 75.4214 10.1079 76.4429 10.1079C77.5718 10.1079 78.2085 10.6699 78.2085 11.6211V14.6978H77.3531V14.065H77.2828C77.14 14.292 76.9396 14.477 76.702 14.6012C76.4644 14.7254 76.1981 14.7843 75.9302 14.772C75.7412 14.7916 75.5501 14.7715 75.3694 14.7128C75.1886 14.6541 75.0222 14.5581 74.8807 14.4312C74.7393 14.3042 74.6261 14.149 74.5483 13.9756C74.4706 13.8022 74.43 13.6144 74.4292 13.4243ZM77.3238 13.0396V12.6631L76.2242 12.7334C75.604 12.7749 75.3228 12.9859 75.3228 13.3828C75.3228 13.7881 75.6744 14.0239 76.1578 14.0239C76.2994 14.0383 76.4425 14.024 76.5785 13.9819C76.7145 13.9398 76.8407 13.8708 76.9495 13.7789C77.0582 13.6871 77.1474 13.5743 77.2118 13.4473C77.2761 13.3203 77.3142 13.1816 77.3238 13.0396Z" fill="white"/>
<path d="M79.3765 12.4444C79.3765 11.0215 80.108 10.1201 81.2456 10.1201C81.5271 10.1072 81.8064 10.1746 82.0509 10.3145C82.2954 10.4544 82.4951 10.661 82.6265 10.9101H82.6929V8.43701H83.5816V14.6978H82.73V13.9863H82.6597C82.5181 14.2338 82.3115 14.4378 82.0622 14.5763C81.813 14.7148 81.5306 14.7825 81.2457 14.772C80.1001 14.772 79.3765 13.8706 79.3765 12.4444ZM80.2945 12.4444C80.2945 13.3994 80.7447 13.9741 81.4976 13.9741C82.2466 13.9741 82.7095 13.3911 82.7095 12.4483C82.7095 11.5098 82.2418 10.9185 81.4976 10.9185C80.7496 10.9185 80.2945 11.4971 80.2945 12.4444Z" fill="white"/>
<path d="M87.2583 12.4444C87.23 12.1484 87.2639 11.8499 87.3577 11.5678C87.4516 11.2857 87.6033 11.0264 87.8033 10.8064C88.0032 10.5864 88.2469 10.4107 88.5188 10.2904C88.7906 10.1701 89.0846 10.108 89.3819 10.108C89.6792 10.108 89.9731 10.1701 90.245 10.2904C90.5168 10.4107 90.7605 10.5864 90.9605 10.8064C91.1604 11.0264 91.3122 11.2857 91.406 11.5678C91.4999 11.8499 91.5337 12.1484 91.5054 12.4444C91.5343 12.7406 91.5008 13.0396 91.4072 13.3221C91.3136 13.6046 91.162 13.8644 90.962 14.0848C90.762 14.3053 90.5181 14.4814 90.246 14.6019C89.9738 14.7225 89.6795 14.7847 89.3819 14.7847C89.0843 14.7847 88.7899 14.7225 88.5178 14.6019C88.2457 14.4814 88.0018 14.3053 87.8018 14.0848C87.6018 13.8644 87.4501 13.6046 87.3565 13.3221C87.2629 13.0396 87.2295 12.7406 87.2583 12.4444ZM90.5913 12.4444C90.5913 11.4683 90.1529 10.8975 89.3833 10.8975C88.6109 10.8975 88.1763 11.4683 88.1763 12.4444C88.1763 13.4283 88.6109 13.9947 89.3833 13.9947C90.1529 13.9946 90.5913 13.4243 90.5913 12.4444Z" fill="white"/>
<path d="M92.6978 10.1948H93.5533V10.9102H93.6197C93.7323 10.6532 93.9223 10.4379 94.1632 10.2941C94.4041 10.1503 94.6838 10.0852 94.9634 10.1079C95.1825 10.0914 95.4025 10.1245 95.6071 10.2046C95.8117 10.2847 95.9957 10.4098 96.1454 10.5706C96.295 10.7315 96.4066 10.9239 96.4718 11.1337C96.537 11.3436 96.5542 11.5654 96.522 11.7827V14.6977H95.6333V12.0059C95.6333 11.2822 95.3189 10.9224 94.6617 10.9224C94.5129 10.9154 94.3644 10.9408 94.2263 10.9966C94.0883 11.0524 93.9639 11.1374 93.8618 11.2458C93.7597 11.3542 93.6822 11.4834 93.6347 11.6245C93.5872 11.7657 93.5707 11.9154 93.5865 12.0635V14.6978H92.6978V10.1948Z" fill="white"/>
<path d="M101.544 9.07374V10.2153H102.519V10.9639H101.544V13.2793C101.544 13.751 101.738 13.9575 102.18 13.9575C102.293 13.9572 102.407 13.9503 102.519 13.937V14.6773C102.36 14.7058 102.198 14.721 102.036 14.7227C101.047 14.7227 100.654 14.375 100.654 13.5068V10.9638H99.939V10.2153H100.654V9.07374H101.544Z" fill="white"/>
<path d="M103.733 8.43701H104.614V10.9185H104.684C104.802 10.6591 104.997 10.4425 105.243 10.2982C105.489 10.1539 105.773 10.0888 106.057 10.1118C106.275 10.1 106.493 10.1364 106.695 10.2184C106.898 10.3004 107.079 10.4261 107.227 10.5864C107.375 10.7468 107.486 10.9378 107.552 11.146C107.618 11.3541 107.637 11.5742 107.608 11.7905V14.6978H106.718V12.0098C106.718 11.2905 106.383 10.9263 105.755 10.9263C105.603 10.9137 105.449 10.9347 105.305 10.9878C105.162 11.0408 105.031 11.1247 104.923 11.2334C104.815 11.3421 104.732 11.4732 104.68 11.6173C104.628 11.7614 104.608 11.9152 104.622 12.0679V14.6977H103.733L103.733 8.43701Z" fill="white"/>
<path d="M112.79 13.4819C112.669 13.8935 112.407 14.2495 112.051 14.4876C111.694 14.7258 111.265 14.8309 110.838 14.7847C110.542 14.7925 110.247 14.7357 109.974 14.6182C109.702 14.5006 109.458 14.3252 109.26 14.1041C109.062 13.8829 108.915 13.6214 108.828 13.3376C108.742 13.0537 108.718 12.7544 108.758 12.4605C108.719 12.1656 108.743 11.8656 108.83 11.581C108.916 11.2963 109.063 11.0335 109.26 10.8105C109.457 10.5874 109.699 10.4092 109.971 10.288C110.242 10.1668 110.537 10.1054 110.835 10.1079C112.087 10.1079 112.843 10.9639 112.843 12.3779V12.688H109.664V12.7378C109.65 12.9031 109.67 13.0694 109.725 13.2261C109.779 13.3829 109.865 13.5266 109.978 13.6481C110.091 13.7695 110.228 13.866 110.38 13.9314C110.533 13.9968 110.697 14.0297 110.863 14.0278C111.075 14.0533 111.291 14.0151 111.482 13.9178C111.672 13.8206 111.83 13.6689 111.934 13.4819L112.79 13.4819ZM109.664 12.0308H111.938C111.949 11.8796 111.929 11.7278 111.878 11.5851C111.827 11.4424 111.747 11.3119 111.642 11.2021C111.538 11.0922 111.412 11.0054 111.272 10.9472C111.132 10.8891 110.981 10.8608 110.83 10.8643C110.676 10.8623 110.523 10.8912 110.381 10.9491C110.239 11.0071 110.109 11.0929 110.001 11.2017C109.892 11.3104 109.806 11.4397 109.748 11.5821C109.69 11.7245 109.662 11.8771 109.664 12.0308Z" fill="white"/>
</g>
<defs>
<clipPath id="clip0_1_191">
<rect width="135" height="40" fill="white"/>
</clipPath>
</defs>
</svg>
