<svg width="540" height="642" viewBox="0 0 540 642" fill="none" xmlns="http://www.w3.org/2000/svg">
<path fill-rule="evenodd" clip-rule="evenodd" d="M0 0V571.422H4.66614C5.09301 571.422 5.51729 571.433 5.93873 571.455V579.475L6.88782 579.725C13.6917 581.513 19.1071 586.738 21.1634 593.43L21.4396 594.328H28.8123C28.8342 594.75 28.8452 595.174 28.8452 595.601V601.116H241.644L257.825 616.052L251.037 622.84L269.895 641.698L288.753 622.84L281.623 615.71L296.948 601.116H511.155V595.601C511.155 595.174 511.166 594.75 511.188 594.328H520.257L520.533 593.43C522.426 587.271 527.164 582.354 533.213 580.216L534.061 579.916V571.455C534.449 571.435 534.84 571.424 535.233 571.422L535.334 571.422H540L540 0H537.455V568.877H535.334C520.574 568.877 508.609 580.842 508.609 595.601V598.57H295.93L279.823 613.91L269.895 603.982L259.626 614.251L242.639 598.57H31.3904V595.601C31.3904 580.842 19.4255 568.877 4.66614 568.877H2.54517V0H0ZM254.637 622.84L259.697 617.78L269.728 627.039L279.78 617.466L285.153 622.84L269.895 638.098L254.637 622.84ZM269.701 623.55L277.979 615.666L269.895 607.581L261.498 615.978L269.701 623.55ZM511.454 591.783C513.087 581.487 521.22 573.355 531.516 571.722V578.135C525.409 580.572 520.597 585.559 518.397 591.783H511.454ZM8.48389 571.722C18.7801 573.355 26.9124 581.487 28.5455 591.783H23.2995C20.8998 584.994 15.3924 579.675 8.48389 577.535V571.722Z" fill="url(#paint0_linear_297_291)"/>
<defs>
<linearGradient id="paint0_linear_297_291" x1="112.858" y1="-273.756" x2="780.291" y2="-230.453" gradientUnits="userSpaceOnUse">
<stop stop-color="#F4D392"/>
<stop offset="0.587721" stop-color="#B87C36"/>
<stop offset="0.951179" stop-color="#FFE6A5"/>
</linearGradient>
</defs>
</svg>
