<svg width="281" height="291" viewBox="0 0 281 291" fill="none" xmlns="http://www.w3.org/2000/svg">
<g opacity="0.8">
<path d="M240.135 1.06155C234.333 1.6463 229.719 6.33 229.143 12.2195H233.634C234.605 9.01348 237.033 6.45545 240.135 5.34278V1.06155Z" fill="#FFCE51" fill-opacity="0.38"/>
<path d="M52.3912 23.3141L60.6219 31.6691L52.3912 40.0243L44.1605 31.6691L52.3912 23.3141Z" fill="#FFCE51" fill-opacity="0.38"/>
<path d="M243 1H241.363C240.948 1 240.538 1.02084 240.135 1.06155M229.143 12.2195C229.102 12.6295 229.082 13.0454 229.082 13.4661V15.5438L116.905 15.1252L102.5 34.5338H65.1987L52.304 47L39 34.5338M229.143 12.2195C229.719 6.33 234.333 1.6463 240.135 1.06155M229.143 12.2195H233.634C234.605 9.01348 237.033 6.45545 240.135 5.34278V1.06155M229.143 12.2195H229.082M240.135 1.06155V1M52.3912 23.3141L60.6219 31.6691L52.3912 40.0243L44.1605 31.6691L52.3912 23.3141Z" stroke="url(#paint0_linear_307_124)"/>
</g>
<g opacity="0.8">
<path d="M254.993 72.0648C248.904 72.6807 244.062 77.6137 243.458 83.8166H248.171C249.19 80.44 251.738 77.7458 254.993 76.5739V72.0648Z" fill="#FFCE51" fill-opacity="0.38"/>
<path d="M92.0531 92.0535L100.691 100.853L92.0531 109.653L83.4156 100.853L92.0531 92.0535Z" fill="#FFCE51" fill-opacity="0.38"/>
<path d="M258 72H256.282C255.847 72 255.417 72.022 254.993 72.0648M243.458 83.8166C243.416 84.2485 243.394 84.6865 243.394 85.1296V87.3179L141.82 86.877L130.153 103.87H105.494L91.9616 117L78 103.87M243.458 83.8166C244.062 77.6137 248.904 72.6807 254.993 72.0648M243.458 83.8166H248.171C249.19 80.44 251.738 77.7458 254.993 76.5739V72.0648M243.458 83.8166H243.394M254.993 72.0648V72M92.0531 92.0535L100.691 100.853L92.0531 109.653L83.4156 100.853L92.0531 92.0535Z" stroke="url(#paint1_linear_307_124)"/>
</g>
<g opacity="0.8">
<path d="M237.039 248.063C231.044 248.661 226.276 253.448 225.68 259.468H230.322C231.325 256.191 233.834 253.576 237.039 252.439V248.063Z" fill="#FFCE51" fill-opacity="0.38"/>
<path d="M14.8377 265.789L23.3429 274.329L14.8377 282.87L6.3326 274.329L14.8377 265.789Z" fill="#FFCE51" fill-opacity="0.38"/>
<path d="M240 248H238.308C237.88 248 237.456 248.021 237.039 248.063M225.68 259.468C225.639 259.887 225.618 260.312 225.618 260.742V262.866L68.9373 262.438L59.1473 277.257H28.0724L14.7477 290L1 277.257M225.68 259.468C226.276 253.448 231.044 248.661 237.039 248.063M225.68 259.468H230.322C231.325 256.191 233.834 253.576 237.039 252.439V248.063M225.68 259.468H225.618M237.039 248.063V248M14.8377 265.789L23.3429 274.329L14.8377 282.87L6.3326 274.329L14.8377 265.789Z" stroke="url(#paint2_linear_307_124)"/>
</g>
<g opacity="0.8">
<path d="M277.833 148.331C271.422 148.977 266.323 154.15 265.686 160.655H270.65C271.723 157.114 274.406 154.288 277.833 153.059V148.331Z" fill="#FFCE51" fill-opacity="0.38"/>
<path d="M83.7984 171.101L92.894 180.329L83.7984 189.558L74.7028 180.329L83.7984 171.101Z" fill="#FFCE51" fill-opacity="0.38"/>
<path d="M281 148.263H279.191C278.733 148.263 278.28 148.286 277.833 148.331M265.686 160.655C265.642 161.108 265.619 161.567 265.619 162.032V164.327L141.654 163.864L131.184 183.494H97.9519L83.7021 197.263L69 183.494M265.686 160.655C266.323 154.15 271.422 148.977 277.833 148.331M265.686 160.655H270.65C271.723 157.114 274.406 154.288 277.833 153.059V148.331M265.686 160.655H265.619M277.833 148.331V148.263M83.7984 171.101L92.894 180.329L83.7984 189.558L74.7028 180.329L83.7984 171.101Z" stroke="url(#paint3_linear_307_124)"/>
</g>
<defs>
<linearGradient id="paint0_linear_307_124" x1="176.426" y1="-10.3372" x2="-47.5187" y2="56.4929" gradientUnits="userSpaceOnUse">
<stop stop-color="#F1D08C"/>
<stop offset="1" stop-color="#DAC18E" stop-opacity="0.5"/>
</linearGradient>
<linearGradient id="paint1_linear_307_124" x1="209.465" y1="52.1729" x2="-3.53873" y2="118.174" gradientUnits="userSpaceOnUse">
<stop stop-color="#F1D08C"/>
<stop offset="1" stop-color="#DAC18E" stop-opacity="0.5"/>
</linearGradient>
<linearGradient id="paint2_linear_307_124" x1="172.904" y1="235.575" x2="-58.0929" y2="305.263" gradientUnits="userSpaceOnUse">
<stop stop-color="#F1D08C"/>
<stop offset="1" stop-color="#DAC18E" stop-opacity="0.5"/>
</linearGradient>
<linearGradient id="paint3_linear_307_124" x1="220.152" y1="73.2277" x2="-3.98637" y2="142.965" gradientUnits="userSpaceOnUse">
<stop stop-color="#F1D08C"/>
<stop offset="1" stop-color="#DAC18E" stop-opacity="0.5"/>
</linearGradient>
</defs>
</svg>
