<svg width="48" height="49" viewBox="0 0 48 49" fill="none" xmlns="http://www.w3.org/2000/svg">
<g filter="url(#filter0_d_1_227)">
<path d="M14.25 40H5.25C4.625 40 4 39.3755 4 38.751V29.6331C4 28.8837 4.625 28.3841 5.25 28.3841H14V38.751C14 39.1257 14.125 39.6253 14.25 40Z" fill="url(#paint0_linear_1_227)"/>
<path d="M31.5 23.7627V38.751C31.5 39.3755 30.875 40 30.25 40H17.75C17.125 40 16.5 39.3755 16.5 38.751V23.7627C16.5 23.0133 17.125 22.5137 17.75 22.5137H30.25C30.875 22.5137 31.5 23.0133 31.5 23.7627Z" fill="url(#paint1_linear_1_227)"/>
<path d="M44 31.2568V38.751C44 39.3755 43.375 40 42.75 40H33.75C33.875 39.6253 34 39.1257 34 38.751V30.0078H42.75C43.375 30.0078 44 30.5074 44 31.2568Z" fill="url(#paint2_linear_1_227)"/>
<path d="M34.125 8.77439L30 12.7713L31 18.5168C31.125 19.0164 30.875 19.516 30.5 19.7658C30.125 20.0156 29.5 20.0156 29.125 19.8907L24 17.1429L18.875 19.7658C18.5 20.0156 18 20.0156 17.625 19.6409C17.25 19.3911 17 18.8915 17.125 18.3919L18.125 12.6464L13.875 8.77439C13.625 8.52459 13.5 8.02498 13.625 7.52537C13.75 7.02576 14.125 6.77596 14.625 6.65105L20.375 5.77674L22.875 0.655738C23.25 -0.218579 24.75 -0.218579 25.125 0.655738L27.625 5.77674L33.375 6.65105C33.875 6.77596 34.25 7.02576 34.375 7.52537C34.5 8.02498 34.375 8.52459 34.125 8.77439Z" fill="url(#paint3_linear_1_227)"/>
</g>
<defs>
<filter id="filter0_d_1_227" x="0" y="0" width="48" height="49" filterUnits="userSpaceOnUse" color-interpolation-filters="sRGB">
<feFlood flood-opacity="0" result="BackgroundImageFix"/>
<feColorMatrix in="SourceAlpha" type="matrix" values="0 0 0 0 0 0 0 0 0 0 0 0 0 0 0 0 0 0 127 0" result="hardAlpha"/>
<feOffset dy="5"/>
<feGaussianBlur stdDeviation="2"/>
<feComposite in2="hardAlpha" operator="out"/>
<feColorMatrix type="matrix" values="0 0 0 0 0 0 0 0 0 0 0 0 0 0 0 0 0 0 0.15 0"/>
<feBlend mode="normal" in2="BackgroundImageFix" result="effect1_dropShadow_1_227"/>
<feBlend mode="normal" in="SourceGraphic" in2="effect1_dropShadow_1_227" result="shape"/>
</filter>
<linearGradient id="paint0_linear_1_227" x1="15.2853" y1="-22.5" x2="64.3835" y2="1.97772" gradientUnits="userSpaceOnUse">
<stop stop-color="#FFF8EC"/>
<stop offset="0.205627" stop-color="#FDE696"/>
<stop offset="1" stop-color="#C07721"/>
</linearGradient>
<linearGradient id="paint1_linear_1_227" x1="15.2853" y1="-22.5" x2="64.3835" y2="1.97772" gradientUnits="userSpaceOnUse">
<stop stop-color="#FFF8EC"/>
<stop offset="0.205627" stop-color="#FDE696"/>
<stop offset="1" stop-color="#C07721"/>
</linearGradient>
<linearGradient id="paint2_linear_1_227" x1="15.2853" y1="-22.5" x2="64.3835" y2="1.97772" gradientUnits="userSpaceOnUse">
<stop stop-color="#FFF8EC"/>
<stop offset="0.205627" stop-color="#FDE696"/>
<stop offset="1" stop-color="#C07721"/>
</linearGradient>
<linearGradient id="paint3_linear_1_227" x1="15.2853" y1="-22.5" x2="64.3835" y2="1.97772" gradientUnits="userSpaceOnUse">
<stop stop-color="#FFF8EC"/>
<stop offset="0.205627" stop-color="#FDE696"/>
<stop offset="1" stop-color="#C07721"/>
</linearGradient>
</defs>
</svg>
