<svg width="41" height="54" viewBox="0 0 41 54" fill="none" xmlns="http://www.w3.org/2000/svg">
<g filter="url(#filter0_d_1_230)">
<path d="M6.71254 37.5783C7.30798 36.2765 8.17843 35.2956 9.17353 34.6112L18.3846 38.8243C18.5176 40.0247 18.3448 41.3246 17.7493 42.6264L17.2445 43.7301L19.4519 44.7398L19.9567 43.6361C21.9389 39.3024 20.268 35.4644 18.2708 32.0994C22.1226 31.4096 26.0853 30.2372 28.0674 25.9036C30.0496 21.57 28.3451 17.8055 26.3479 14.4405C30.1997 13.7507 34.1623 12.5783 36.1445 8.2447L36.683 7.06744L34.4756 6.05781L33.9372 7.23507C33.3417 8.53689 32.5049 9.44416 31.5098 10.1286L22.2988 5.91549C22.1658 4.7151 22.3049 3.48872 22.9003 2.18689L23.4388 1.00963L21.2314 0L20.693 1.17726C18.7108 5.5109 20.4153 9.27539 22.4125 12.6404C18.5607 13.3302 14.5981 14.5025 12.6159 18.8362C10.6337 23.1698 12.3383 26.9343 14.3354 30.2993C10.4836 30.9891 6.48735 32.235 4.50517 36.5686L4.00036 37.6723L6.20772 38.682L6.71254 37.5783ZM23.2041 8.99784L28.5858 11.4594C27.4743 11.781 26.2598 12.0017 24.9886 12.2101C24.3149 11.1122 23.6877 10.049 23.2041 8.99784ZM23.7717 14.8707C24.4455 15.9687 25.0727 17.0319 25.5567 18.0823L20.1748 15.6207C21.286 15.2999 22.5005 15.0791 23.7717 14.8707ZM17.2506 16.9523L26.4616 21.1654C26.5546 22.0049 26.5032 22.8596 26.2597 23.7422L15.4333 18.7902C15.9417 18.0289 16.5547 17.431 17.2506 16.9523ZM14.424 20.9969L25.2504 25.9488C24.7416 26.7109 24.1287 27.3088 23.4327 27.7875L14.2217 23.5744C14.1287 22.7349 14.1802 21.8801 14.424 20.9969ZM15.127 26.6567L20.5088 29.1183C19.3972 29.4399 18.1828 29.6606 16.9115 29.869C16.2379 28.7711 15.6107 27.7079 15.127 26.6567ZM15.6947 32.5296C16.3684 33.6276 16.9956 34.6908 17.4796 35.7412L12.0978 33.2796C13.2089 32.9588 14.4234 32.738 15.6947 32.5296Z" fill="url(#paint0_linear_1_230)"/>
</g>
<defs>
<filter id="filter0_d_1_230" x="0.000366211" y="0" width="40.6826" height="53.7397" filterUnits="userSpaceOnUse" color-interpolation-filters="sRGB">
<feFlood flood-opacity="0" result="BackgroundImageFix"/>
<feColorMatrix in="SourceAlpha" type="matrix" values="0 0 0 0 0 0 0 0 0 0 0 0 0 0 0 0 0 0 127 0" result="hardAlpha"/>
<feOffset dy="5"/>
<feGaussianBlur stdDeviation="2"/>
<feComposite in2="hardAlpha" operator="out"/>
<feColorMatrix type="matrix" values="0 0 0 0 0 0 0 0 0 0 0 0 0 0 0 0 0 0 0.15 0"/>
<feBlend mode="normal" in2="BackgroundImageFix" result="effect1_dropShadow_1_230"/>
<feBlend mode="normal" in="SourceGraphic" in2="effect1_dropShadow_1_230" result="shape"/>
</filter>
<linearGradient id="paint0_linear_1_230" x1="35.2833" y1="-19.1967" x2="55.8871" y2="-4.15252" gradientUnits="userSpaceOnUse">
<stop stop-color="#FFF8EC"/>
<stop offset="0.205627" stop-color="#FDE696"/>
<stop offset="1" stop-color="#C07721"/>
</linearGradient>
</defs>
</svg>
