<svg width="40" height="48" viewBox="0 0 40 48" fill="none" xmlns="http://www.w3.org/2000/svg">
<g filter="url(#filter0_d_1_233)">
<path d="M18.3452 3.32065C18.6942 2.79049 18.5476 2.07371 18.0194 1.72759L15.6631 0.183427C15.1451 -0.156072 14.4539 -0.0110404 14.1116 0.50891L11.194 4.94136L15.7572 7.25219L18.3452 3.32065Z" fill="url(#paint0_linear_1_233)"/>
<path d="M22.3543 10.593L24.4904 7.34786C24.8394 6.8177 24.6928 6.10093 24.1646 5.7548L21.8083 4.21064C21.2903 3.87114 20.5991 4.01617 20.2568 4.53612L17.7911 8.28211L22.3543 10.593Z" fill="url(#paint1_linear_1_233)"/>
<path d="M22.8664 16.3426L24.9325 17.2726C25.4346 17.4986 26.0245 17.3253 26.3293 16.8623L30.1504 11.0571C30.4994 10.527 30.3528 9.8102 29.8246 9.46407L27.9535 8.23778C27.4355 7.89828 26.7442 8.04331 26.4019 8.56326L22.3858 14.6646C21.9981 15.254 22.2275 16.055 22.8664 16.3426Z" fill="url(#paint2_linear_1_233)"/>
<path d="M35.4846 13.1734L33.6135 11.9472C33.0955 11.6077 32.4042 11.7527 32.062 12.2727L28.6357 17.478C28.2479 18.0672 28.4772 18.8683 29.1162 19.1559L31.1822 20.0859C31.6844 20.3119 32.2743 20.1387 32.5791 19.6755L35.8104 14.7664C36.1594 14.2364 36.0128 13.5196 35.4846 13.1734Z" fill="url(#paint3_linear_1_233)"/>
<path d="M31.64 22.4697C31.6399 22.4697 31.64 22.4697 31.6398 22.4697C31.1637 22.4697 30.7014 22.3702 30.2658 22.1741L19.7235 17.4286H19.0106L23.7497 27.0282C24.0364 27.609 23.7888 28.3188 23.1958 28.5846C22.6403 28.8336 21.989 28.5716 21.7174 28.0213L16.488 17.4286H11.6618C11.0543 17.4286 10.5316 16.9558 10.5031 16.3413C10.4725 15.6851 10.9887 15.1435 11.6299 15.1435H18.7554C19.1326 15.1435 19.4848 14.9525 19.6941 14.6346L20.3843 13.586C20.7607 13.0142 20.557 12.2376 19.9501 11.9303L10.8236 7.30856C10.3147 7.05087 9.696 7.2173 9.38042 7.69673L4.18949 15.583C3.92551 15.984 3.93838 16.5097 4.22161 16.8969L12.5364 28.2657C12.7372 28.5402 12.8061 28.8914 12.7243 29.2229L10.6614 37.5803C10.4833 38.3014 11.0219 39 11.7558 39H28.8174C29.4404 39 29.9455 38.4884 29.9455 37.8574V31.759C29.9455 31.3776 30.1334 31.0214 30.4463 30.8094C30.4463 30.8094 30.7293 30.6177 31.148 30.3349C33.004 29.0818 34.112 26.9849 34.112 24.7257V21.3815C33.4777 22.0702 32.5878 22.4697 31.64 22.4697Z" fill="url(#paint4_linear_1_233)"/>
</g>
<defs>
<filter id="filter0_d_1_233" x="0" y="0" width="40" height="48" filterUnits="userSpaceOnUse" color-interpolation-filters="sRGB">
<feFlood flood-opacity="0" result="BackgroundImageFix"/>
<feColorMatrix in="SourceAlpha" type="matrix" values="0 0 0 0 0 0 0 0 0 0 0 0 0 0 0 0 0 0 127 0" result="hardAlpha"/>
<feOffset dy="5"/>
<feGaussianBlur stdDeviation="2"/>
<feComposite in2="hardAlpha" operator="out"/>
<feColorMatrix type="matrix" values="0 0 0 0 0 0 0 0 0 0 0 0 0 0 0 0 0 0 0.15 0"/>
<feBlend mode="normal" in2="BackgroundImageFix" result="effect1_dropShadow_1_233"/>
<feBlend mode="normal" in="SourceGraphic" in2="effect1_dropShadow_1_233" result="shape"/>
</filter>
<linearGradient id="paint0_linear_1_233" x1="13.0282" y1="-21.9375" x2="55.0395" y2="-4.75221" gradientUnits="userSpaceOnUse">
<stop stop-color="#FFF8EC"/>
<stop offset="0.205627" stop-color="#FDE696"/>
<stop offset="1" stop-color="#C07721"/>
</linearGradient>
<linearGradient id="paint1_linear_1_233" x1="13.0282" y1="-21.9375" x2="55.0395" y2="-4.75221" gradientUnits="userSpaceOnUse">
<stop stop-color="#FFF8EC"/>
<stop offset="0.205627" stop-color="#FDE696"/>
<stop offset="1" stop-color="#C07721"/>
</linearGradient>
<linearGradient id="paint2_linear_1_233" x1="13.0282" y1="-21.9375" x2="55.0395" y2="-4.75221" gradientUnits="userSpaceOnUse">
<stop stop-color="#FFF8EC"/>
<stop offset="0.205627" stop-color="#FDE696"/>
<stop offset="1" stop-color="#C07721"/>
</linearGradient>
<linearGradient id="paint3_linear_1_233" x1="13.0282" y1="-21.9375" x2="55.0395" y2="-4.75221" gradientUnits="userSpaceOnUse">
<stop stop-color="#FFF8EC"/>
<stop offset="0.205627" stop-color="#FDE696"/>
<stop offset="1" stop-color="#C07721"/>
</linearGradient>
<linearGradient id="paint4_linear_1_233" x1="13.0282" y1="-21.9375" x2="55.0395" y2="-4.75221" gradientUnits="userSpaceOnUse">
<stop stop-color="#FFF8EC"/>
<stop offset="0.205627" stop-color="#FDE696"/>
<stop offset="1" stop-color="#C07721"/>
</linearGradient>
</defs>
</svg>
