<svg width="1087" height="431" viewBox="0 0 1087 431" fill="none" xmlns="http://www.w3.org/2000/svg">
<g opacity="0.8">
<path d="M1002.95 1.07514C995.889 1.78957 990.275 7.51199 989.574 14.7076H995.039C996.22 10.7906 999.175 7.66525 1002.95 6.30583V1.07514Z" fill="#FFCE51" fill-opacity="0.38"/>
<path d="M681.295 52.2627L691.31 62.4706L681.295 72.6788L671.279 62.4706L681.295 52.2627Z" fill="#FFCE51" fill-opacity="0.38"/>
<path d="M1006.44 0.999942H1004.44C1003.94 0.999942 1003.44 1.02541 1002.95 1.07514M989.574 14.7076C989.525 15.2086 989.5 15.7167 989.5 16.2307V18.7692L797 18.2578L771.472 65.9706H696.879L681.189 81.2015L665 65.9706M989.574 14.7076C990.275 7.51199 995.889 1.78957 1002.95 1.07514M989.574 14.7076H995.039C996.22 10.7906 999.175 7.66525 1002.95 6.30583V1.07514M989.574 14.7076H989.5M1002.95 1.07514V0.999942M681.295 52.2627L691.31 62.4706L681.295 72.6788L671.279 62.4706L681.295 52.2627Z" stroke="url(#paint0_linear_299_321)"/>
</g>
<g opacity="0.8">
<path d="M3.48648 33.0752C10.5464 33.7896 16.1608 39.512 16.8618 46.7077H11.3961C10.2152 42.7906 7.26006 39.6653 3.48648 38.3059V33.0752Z" fill="#FFCE51" fill-opacity="0.38"/>
<path d="M395.141 74.2627L385.126 84.4707L395.141 94.6788L405.156 84.4707L395.141 74.2627Z" fill="#FFCE51" fill-opacity="0.38"/>
<path d="M-0.000305176 33H1.99213C2.49647 33 2.99498 33.0255 3.48648 33.0752M16.8618 46.7077C16.9106 47.2086 16.9355 47.7167 16.9355 48.2308V50.7692L309.436 50.2578L334.964 87.9707H379.556L395.247 103.202L411.436 87.9707M16.8618 46.7077C16.1608 39.512 10.5464 33.7896 3.48648 33.0752M16.8618 46.7077H11.3961C10.2152 42.7906 7.26006 39.6653 3.48648 38.3059V33.0752M16.8618 46.7077H16.9355M3.48648 33.0752V33M395.141 74.2627L385.126 84.4707L395.141 94.6788L405.156 84.4707L395.141 74.2627Z" stroke="url(#paint1_linear_299_321)"/>
</g>
<g opacity="0.8">
<path d="M1069.95 131.075C1062.89 131.79 1057.27 137.512 1056.57 144.708H1062.04C1063.22 140.791 1066.18 137.665 1069.95 136.306V131.075Z" fill="#FFCE51" fill-opacity="0.38"/>
<path d="M748.295 152.263L758.31 162.471L748.295 172.679L738.279 162.471L748.295 152.263Z" fill="#FFCE51" fill-opacity="0.38"/>
<path d="M1073.44 131H1071.44C1070.94 131 1070.44 131.025 1069.95 131.075M1056.57 144.708C1056.52 145.209 1056.5 145.717 1056.5 146.231V148.769L824 148.258L808.472 165.971H763.879L748.189 181.202L732 165.971M1056.57 144.708C1057.27 137.512 1062.89 131.79 1069.95 131.075M1056.57 144.708H1062.04C1063.22 140.791 1066.18 137.665 1069.95 136.306V131.075M1056.57 144.708H1056.5M1069.95 131.075V131M748.295 152.263L758.31 162.471L748.295 172.679L738.279 162.471L748.295 152.263Z" stroke="url(#paint2_linear_299_321)"/>
</g>
<g opacity="0.8">
<path d="M1082.95 353.075C1075.89 353.79 1070.27 359.512 1069.57 366.708H1075.04C1076.22 362.791 1079.18 359.665 1082.95 358.306V353.075Z" fill="#FFCE51" fill-opacity="0.38"/>
<path d="M681.295 374.263L691.31 384.471L681.295 394.679L671.279 384.471L681.295 374.263Z" fill="#FFCE51" fill-opacity="0.38"/>
<path d="M1086.44 353H1084.44C1083.94 353 1083.44 353.025 1082.95 353.075M1069.57 366.708C1069.52 367.209 1069.5 367.717 1069.5 368.231V370.769L757 370.258L741.472 387.971H696.879L681.189 403.202L665 387.971M1069.57 366.708C1070.27 359.512 1075.89 353.79 1082.95 353.075M1069.57 366.708H1075.04C1076.22 362.791 1079.18 359.665 1082.95 358.306V353.075M1069.57 366.708H1069.5M1082.95 353.075V353M681.295 374.263L691.31 384.471L681.295 394.679L671.279 384.471L681.295 374.263Z" stroke="url(#paint3_linear_299_321)"/>
</g>
<g opacity="0.8">
<path d="M47.4865 250.075C54.5464 250.79 60.1608 256.512 60.8618 263.708H55.3961C54.2152 259.791 51.2601 256.665 47.4865 255.306V250.075Z" fill="#FFCE51" fill-opacity="0.38"/>
<path d="M334.141 281.263L324.126 291.471L334.141 301.679L344.156 291.471L334.141 281.263Z" fill="#FFCE51" fill-opacity="0.38"/>
<path d="M43.9997 250H45.9921C46.4965 250 46.995 250.025 47.4865 250.075M60.8618 263.708C60.9106 264.209 60.9355 264.717 60.9355 265.231V267.769L233.436 267.258L249.964 294.971H318.556L334.247 310.202L350.436 294.971M60.8618 263.708C60.1608 256.512 54.5464 250.79 47.4865 250.075M60.8618 263.708H55.3961C54.2152 259.791 51.2601 256.665 47.4865 255.306V250.075M60.8618 263.708H60.9355M47.4865 250.075V250M334.141 281.263L324.126 291.471L334.141 301.679L344.156 291.471L334.141 281.263Z" stroke="url(#paint4_linear_299_321)"/>
</g>
<g opacity="0.8">
<path d="M83.4865 412.075C90.5464 412.79 96.1608 418.512 96.8618 425.708H91.3961C90.2152 421.791 87.2601 418.665 83.4865 417.306V412.075Z" fill="#FFCE51" fill-opacity="0.38"/>
<path d="M400.141 383.263L390.126 393.471L400.141 403.679L410.156 393.471L400.141 383.263Z" fill="#FFCE51" fill-opacity="0.38"/>
<path d="M79.9997 412H81.9921C82.4965 412 82.995 412.025 83.4865 412.075M96.8618 425.708C96.9106 426.209 96.9355 426.717 96.9355 427.231V429.769L289.436 429.258L315.964 396.971H384.556L400.247 412.201L416.436 396.971M96.8618 425.708C96.1608 418.512 90.5464 412.79 83.4865 412.075M96.8618 425.708H91.3961C90.2152 421.791 87.2601 418.665 83.4865 417.306V412.075M96.8618 425.708H96.9355M83.4865 412.075V412M400.141 383.263L390.126 393.471L400.141 403.679L410.156 393.471L400.141 383.263Z" stroke="url(#paint5_linear_299_321)"/>
</g>
<g filter="url(#filter0_d_299_321)">
<rect x="942" y="363" width="10.3918" height="10.3918" transform="rotate(45 942 363)" fill="url(#paint6_linear_299_321)"/>
<rect x="942" y="362.293" width="11.3918" height="11.3918" transform="rotate(45 942 362.293)" stroke="#E1C186"/>
</g>
<g filter="url(#filter1_d_299_321)">
<rect x="155" y="43" width="10.3918" height="10.3918" transform="rotate(45 155 43)" fill="url(#paint7_linear_299_321)"/>
<rect x="155" y="42.2929" width="11.3918" height="11.3918" transform="rotate(45 155 42.2929)" stroke="#E1C186"/>
</g>
<defs>
<filter id="filter0_d_299_321" x="929.238" y="361.586" width="25.5249" height="26.5249" filterUnits="userSpaceOnUse" color-interpolation-filters="sRGB">
<feFlood flood-opacity="0" result="BackgroundImageFix"/>
<feColorMatrix in="SourceAlpha" type="matrix" values="0 0 0 0 0 0 0 0 0 0 0 0 0 0 0 0 0 0 127 0" result="hardAlpha"/>
<feOffset dy="5"/>
<feGaussianBlur stdDeviation="2"/>
<feComposite in2="hardAlpha" operator="out"/>
<feColorMatrix type="matrix" values="0 0 0 0 0 0 0 0 0 0 0 0 0 0 0 0 0 0 0.15 0"/>
<feBlend mode="normal" in2="BackgroundImageFix" result="effect1_dropShadow_299_321"/>
<feBlend mode="normal" in="SourceGraphic" in2="effect1_dropShadow_299_321" result="shape"/>
</filter>
<filter id="filter1_d_299_321" x="142.238" y="41.5857" width="25.5249" height="26.5249" filterUnits="userSpaceOnUse" color-interpolation-filters="sRGB">
<feFlood flood-opacity="0" result="BackgroundImageFix"/>
<feColorMatrix in="SourceAlpha" type="matrix" values="0 0 0 0 0 0 0 0 0 0 0 0 0 0 0 0 0 0 127 0" result="hardAlpha"/>
<feOffset dy="5"/>
<feGaussianBlur stdDeviation="2"/>
<feComposite in2="hardAlpha" operator="out"/>
<feColorMatrix type="matrix" values="0 0 0 0 0 0 0 0 0 0 0 0 0 0 0 0 0 0 0.15 0"/>
<feBlend mode="normal" in2="BackgroundImageFix" result="effect1_dropShadow_299_321"/>
<feBlend mode="normal" in="SourceGraphic" in2="effect1_dropShadow_299_321" result="shape"/>
</filter>
<linearGradient id="paint0_linear_299_321" x1="949.426" y1="-13.8518" x2="676.745" y2="67.1928" gradientUnits="userSpaceOnUse">
<stop stop-color="#F1D08C"/>
<stop offset="1" stop-color="#DAC18E" stop-opacity="0.5"/>
</linearGradient>
<linearGradient id="paint1_linear_299_321" x1="157.009" y1="-41.8517" x2="429.69" y2="39.193" gradientUnits="userSpaceOnUse">
<stop stop-color="#F1D08C"/>
<stop offset="1" stop-color="#DAC18E" stop-opacity="0.5"/>
</linearGradient>
<linearGradient id="paint2_linear_299_321" x1="986.426" y1="116.148" x2="713.745" y2="197.193" gradientUnits="userSpaceOnUse">
<stop stop-color="#F1D08C"/>
<stop offset="1" stop-color="#DAC18E" stop-opacity="0.5"/>
</linearGradient>
<linearGradient id="paint3_linear_299_321" x1="949.426" y1="338.148" x2="676.745" y2="419.193" gradientUnits="userSpaceOnUse">
<stop stop-color="#F1D08C"/>
<stop offset="1" stop-color="#DAC18E" stop-opacity="0.5"/>
</linearGradient>
<linearGradient id="paint4_linear_299_321" x1="91" y1="227" x2="338" y2="303.5" gradientUnits="userSpaceOnUse">
<stop stop-color="#F1D08C"/>
<stop offset="1" stop-color="#DAC18E" stop-opacity="0.5"/>
</linearGradient>
<linearGradient id="paint5_linear_299_321" x1="147" y1="329" x2="394" y2="405.5" gradientUnits="userSpaceOnUse">
<stop stop-color="#F1D08C"/>
<stop offset="1" stop-color="#DAC18E" stop-opacity="0.5"/>
</linearGradient>
<linearGradient id="paint6_linear_299_321" x1="936.697" y1="361.939" x2="953.904" y2="359.728" gradientUnits="userSpaceOnUse">
<stop stop-color="#E8FFDD"/>
<stop offset="0.205627" stop-color="#96F7FD"/>
<stop offset="1" stop-color="#0B61C5"/>
</linearGradient>
<linearGradient id="paint7_linear_299_321" x1="149.697" y1="41.9393" x2="166.904" y2="39.7278" gradientUnits="userSpaceOnUse">
<stop stop-color="#E8FFDD"/>
<stop offset="0.205627" stop-color="#96F7FD"/>
<stop offset="1" stop-color="#0B61C5"/>
</linearGradient>
</defs>
</svg>
