<svg width="1440" height="136" viewBox="0 0 1440 136" fill="none" xmlns="http://www.w3.org/2000/svg">
<path d="M1439.52 0L0 0.482243C0 48.2243 0 18.3121 0 66.0542C0.96 66.0542 1.68 66.5365 2.16 67.0187C1.68 66.7776 1.2 67.0187 0.96 67.9832C0.72 68.4654 0.48 68.7065 0 68.9477C0 69.4299 0 70.1533 0 70.6355C0.96 71.1178 1.92 71.6 2.4 72.8056C0.24 72.8056 0.72 74.7346 0 75.6991C0 76.1813 0 76.9047 0 77.3869C0.96 77.3869 2.16 75.9402 2.88 77.8692C2.88 78.1103 3.6 78.3514 4.08 78.3514C6.72 78.3514 9.36 78.5925 11.76 79.0748C12.72 79.3159 12.96 79.3159 13.2 78.5925C13.2 77.1458 12.24 78.1103 11.52 77.8692C11.76 76.9047 12.48 76.4224 13.2 76.6635C14.4 76.9047 13.92 78.1103 13.92 78.8336C14.88 78.8336 15.36 78.1103 15.6 77.628C15.84 77.1458 16.8 76.6636 17.04 77.1458C18.24 79.7981 20.64 79.3159 23.04 79.3159C22.8 78.5925 22.32 77.628 21.84 76.6635C24.24 76.6635 26.4 77.1458 28.56 76.6635C29.52 76.4224 30 77.628 30.48 78.5925C30.72 79.0748 30.96 79.557 31.44 79.3159C31.92 79.0748 32.16 78.8336 32.16 78.1103C31.92 76.6635 31.92 76.1813 33.12 77.628C33.6 78.1103 34.08 78.3514 34.56 78.8336C35.76 80.5215 37.68 80.5215 38.4 78.5925C39.12 76.6635 39.6 76.6635 40.56 78.5925C40.8 79.0748 41.04 79.3159 41.28 79.3159C41.52 79.3159 42 79.0748 42.24 79.0748C42.72 78.8336 42.96 78.3514 42.96 78.3514C44.4 76.1813 47.52 76.1813 49.2 74.2523H49.44C50.4 72.3234 50.88 71.3589 51.84 74.4935C52.08 75.4579 53.28 73.529 54.48 73.2878C54 74.7346 53.04 75.6991 51.6 76.1813C49.92 76.9047 49.68 78.5925 50.88 80.0392C51.12 80.5215 51.36 81.0037 51.36 80.0392C51.36 78.1103 52.8 78.8336 53.28 79.0748C55.2 81.2449 57.84 80.2804 60 80.5215C62.4 81.0037 64.08 79.3159 66.48 79.0748C66.24 79.7981 65.04 80.2804 65.52 81.0037C66 81.486 66.48 80.7626 66.72 80.7626C68.16 80.7626 67.92 79.7981 67.92 77.628C69.36 81.486 70.8 80.0392 72.72 78.1103C71.76 79.7981 71.76 80.5215 72.24 80.5215H72.48C72.96 80.5215 73.44 80.5215 73.92 80.2804C77.28 79.7981 80.4 81.486 83.76 81.0037C85.44 80.7626 86.88 82.6916 88.56 81.9682C89.04 81.7271 89.76 81.486 89.52 80.7626C89.28 80.0393 88.56 80.5215 88.08 80.2804C87.6 80.0392 87.84 81.9682 87.12 80.7626C86.88 80.2804 87.12 79.7981 87.84 79.7981C88.8 79.557 90.72 80.2804 89.28 77.8692C89.04 77.1458 90 77.628 90.48 77.3869C91.2 77.1458 91.92 77.628 91.44 78.1103C90.48 79.557 92.16 80.2804 91.92 81.7271C91.68 83.1738 93.84 82.4505 94.08 82.4505C96.24 81.2449 96 78.8336 93.84 77.628C93.6 77.3869 93.12 77.628 92.88 77.3869C94.8 77.1458 96.72 76.9047 98.16 78.5925C99.12 79.7981 96.96 79.7981 96.96 81.0037C98.64 80.0392 99.6 81.9682 99.6 82.2093C100.56 84.1383 101.28 79.3159 102 82.4505C102.48 84.1383 104.16 81.9682 105.12 83.4149C105.12 82.9327 105.36 82.6916 105.36 82.4505C104.64 81.9682 103.68 81.7271 103.68 80.7626C103.68 80.5215 104.16 80.2804 104.4 80.5215C105.6 80.7626 107.04 80.7626 107.52 81.9682C108.24 83.6561 109.44 83.4149 110.4 82.9327C111.84 82.2093 113.04 82.9327 114.24 83.6561C114.72 83.8972 114.96 84.3794 115.44 83.8972C115.68 83.4149 115.92 82.6916 115.44 82.6916C114.48 82.2094 114 81.9682 114.96 81.2449C115.2 81.0037 116.16 81.486 116.64 81.9682C118.08 83.6561 121.92 84.1383 124.08 82.9327C124.08 82.9327 124.08 82.6916 124.08 82.4505C123.84 82.2093 123.84 81.9682 123.84 81.9682C122.4 82.9327 121.44 82.4505 120.48 81.2449C120 80.5215 120.72 80.2804 120.96 80.2804C122.16 80.7626 124.32 80.0392 124.8 82.2093C125.04 82.9327 124.32 83.8972 125.76 83.6561C126.72 83.4149 128.4 83.8972 128.64 82.6916C128.88 81.2449 129.6 81.9682 130.08 81.9682C131.28 82.4505 133.2 81.7271 133.68 83.6561H134.16C134.88 83.6561 134.16 82.2093 136.08 82.4505C138 82.9327 136.32 80.5215 136.08 79.3159C135.84 78.5925 135.12 77.628 135.84 77.3869C136.8 76.9047 136.8 78.5925 137.04 78.8336C138.24 79.557 137.76 81.7271 138.24 81.7271C140.88 82.2093 137.76 84.3794 139.68 85.1028C143.04 82.6916 138 80.5215 139.2 78.1103C140.16 78.3514 140.88 78.8336 140.64 80.0392C140.64 81.0037 140.88 81.7271 141.6 82.2093C142.08 82.2093 142.56 82.2093 143.28 81.9682C143.28 81.7271 143.28 81.486 143.04 81.0037C142.8 80.5215 142.32 80.2804 142.56 79.557C143.28 80.0392 144.48 79.3159 144.24 81.2449C144 83.4149 145.2 83.8972 147.36 82.6916C147.84 83.6561 146.16 84.6206 147.12 85.1028C147.84 85.585 148.8 85.8262 149.28 84.3794C149.52 83.8972 150 84.3794 150.24 84.6206C150.48 84.8617 150.72 85.8262 151.2 86.3084H151.44C151.68 86.3084 151.92 85.8262 152.16 84.8617C152.4 84.3794 153.6 84.6206 153.6 85.3439C153.36 86.5495 153.36 86.3084 154.56 86.3084C156.48 86.3084 156.48 86.7906 156.24 84.6206C158.4 87.2729 162.96 87.9963 166.56 86.0673C167.28 85.585 167.52 85.3439 167.52 86.5495C167.52 86.7906 167.52 87.0318 167.76 87.0318C168 87.0318 168 87.0318 168.24 87.0318C168.72 86.7906 168.96 86.5495 169.2 86.7906C170.4 84.6206 171.36 86.7906 172.56 87.0318C174.24 87.7551 175.92 87.7551 177.12 86.7906C177.36 86.5495 177.6 86.3084 177.84 86.7906C178.8 89.2019 180 87.0318 181.2 87.2729C182.4 87.514 183.84 85.8262 184.8 87.7551C184.8 87.7551 184.8 87.9963 185.04 87.9963C185.28 87.9963 185.52 87.9963 185.76 87.9963C186 87.7551 186.24 87.514 186.24 87.514C186.96 86.7906 185.52 86.7906 185.76 86.0673C186.72 85.585 186.96 86.5495 187.44 86.7906C187.92 87.0318 188.4 88.2374 188.88 87.2729C189.36 86.7906 189.12 86.0673 188.16 86.0673C187.68 86.0673 187.92 85.1028 188.64 85.1028C189.36 85.1028 190.08 85.1028 191.28 84.1383C190.08 86.0673 189.84 87.514 191.04 88.2374C191.76 88.7196 193.44 87.9963 193.68 86.7906C194.16 85.3439 195.84 88.7196 195.6 86.0673C195.6 84.6206 196.08 83.1738 193.92 82.6916C193.44 82.6916 192.48 81.7271 193.2 81.2449C194.16 80.0393 194.16 81.7271 194.64 81.9682C195.6 82.2093 196.8 83.8972 197.76 81.9682C197.76 81.9682 198.24 82.2093 198.72 82.2093C198.96 81.9682 199.44 81.7271 199.2 81.7271C198.24 78.1103 201.36 80.2804 202.32 79.557C202.32 79.557 203.04 80.5215 202.8 80.5215C201.36 81.0037 200.64 83.6561 198.48 82.2093C198.48 82.4505 198.48 82.4505 198.24 82.6916C198.48 82.6916 198.48 82.4505 198.72 82.4505C198.48 82.6916 198.48 82.6916 198.24 82.9327C197.76 84.3794 196.8 86.0673 199.68 86.3084C201.36 86.5495 198.96 88.9607 201.12 88.4785C202.8 88.2374 201.84 86.5495 202.8 85.8262C204.24 85.1028 204.24 86.0673 204.24 86.7906C204.24 89.443 205.68 88.7196 206.88 87.9963C207.84 87.514 208.56 85.8262 208.8 88.4785C210.24 88.2374 211.68 89.6841 212.88 87.9963C213.36 87.514 213.6 87.7551 214.08 87.7551C214.56 89.6841 216.48 88.2374 217.44 89.6841C217.68 88.4785 216.72 87.514 217.44 86.7906C219.36 87.0318 220.8 88.4785 222.24 89.443C223.68 90.4075 223.68 89.443 224.16 88.9607C224.4 88.7196 224.4 88.7196 224.4 88.4785C224.4 88.2374 224.16 87.9963 224.16 87.7551C223.92 87.7551 223.92 87.514 223.44 87.514C222.24 87.9963 222.48 87.0318 222.24 86.3084C222.24 85.3439 222.96 84.3794 221.76 83.6561C221.28 83.4149 221.52 82.2093 222.72 83.1738C223.44 81.9682 225.6 84.1383 225.84 81.7271C225.84 80.7626 226.32 80.0392 225.6 79.3159C225.36 79.0748 225.12 79.0748 224.4 79.0748C222.72 79.557 224.88 80.7626 223.68 81.2449C222.96 80.5215 222.72 79.7981 222.96 78.8336V78.5925C222.96 78.5925 222.96 78.5925 222.72 78.5925C221.76 78.8336 220.8 79.7981 219.84 78.3514C218.88 76.9047 221.04 76.9047 220.8 75.6991C221.52 76.6636 222.24 77.3869 222.96 78.3514C223.2 78.3514 223.68 78.5925 223.92 78.1103C224.4 75.9402 225.12 75.2168 226.32 77.628C226.8 78.3514 227.04 78.8336 227.52 77.8692C227.76 77.1458 228 76.6635 228.48 77.3869C228.72 77.8692 228.96 78.5925 228.24 78.8336C225.36 79.557 227.28 80.7626 227.76 81.9682C228 82.6916 229.44 82.9327 228.48 84.1383C227.76 85.3439 227.04 85.1028 226.08 84.6206C225.6 84.3794 225.12 84.6206 224.4 84.6206C225.36 86.0673 226.08 87.514 228 86.7906C228.48 86.5495 228.96 87.0318 229.44 87.514C230.16 88.4785 230.4 87.514 230.88 87.7551C232.8 88.2374 233.04 86.5495 234 86.0673C235.92 84.8617 235.2 82.9327 235.2 81.2449C235.2 81.0037 234.96 81.0037 234.96 80.7626C234.72 80.7626 233.76 81.2449 233.76 80.5215C233.52 79.557 232.56 78.8336 232.8 77.628C232.56 79.7981 230.88 79.0748 229.68 79.3159C229.2 79.3159 228.72 78.8336 228.96 78.5925C229.92 77.8692 229.2 76.4224 229.92 75.6991C230.4 75.2168 230.4 75.6991 230.64 75.9402C231.36 76.4224 232.08 76.6636 232.8 77.1458C232.8 76.1813 233.28 75.6991 234.24 74.7346C234.24 76.6635 234.96 77.628 236.64 77.3869C237.36 77.1458 237.84 78.1103 237.84 78.3514C238.08 78.8336 237.36 78.8336 236.88 79.0748C235.92 79.0748 236.16 79.557 236.4 80.2804C236.88 81.2449 236.88 81.9682 237.12 82.9327H237.36C238.32 82.6916 237.36 81.2449 238.32 81.0037C237.84 83.6561 240.48 85.3439 240.72 87.7551C240.96 90.6486 244.56 88.7196 245.04 91.372C245.04 91.372 245.04 91.372 245.28 91.372C246.24 89.9252 246 88.9607 245.04 87.7551C246.24 87.514 246.72 88.7196 247.68 88.2374C248.88 87.7551 249.36 87.9963 248.4 89.2019C247.68 90.6486 247.92 90.8897 249.6 90.6486C251.28 90.4075 252.96 92.0953 255.12 91.372C253.68 91.1308 252.96 89.443 251.52 89.6841C254.4 88.7196 256.32 90.6486 258.48 91.6131C259.44 92.0953 259.68 92.3364 260.16 91.372C260.64 89.6841 263.04 90.6486 263.52 88.9607C263.52 88.7196 264.96 89.443 264.72 89.6841C263.52 92.8187 266.88 90.8897 267.36 92.0953L267.6 92.3364C267.6 92.3364 267.84 92.3364 267.84 92.0953C268.08 91.8542 268.08 91.8542 268.08 91.6131C268.8 87.9963 270 89.2019 272.16 90.6486C274.08 91.8542 276.48 92.3364 278.64 92.8187C280.08 93.3009 281.28 95.2299 283.2 94.0243C283.44 93.7832 283.92 94.9888 284.16 94.0243C284.4 93.5421 284.16 92.8187 283.44 92.8187C282.72 92.8187 281.76 92.5776 281.76 91.6131C281.76 91.1308 282.72 90.8897 282.96 91.1308C283.44 92.3364 285.84 90.4075 285.36 92.5776C285.12 93.5421 286.08 93.7832 285.84 94.5065C287.04 94.2654 286.32 90.6486 288.96 93.0598C289.2 92.8187 289.44 92.5776 289.68 92.3364C289.2 91.8542 288.96 90.8897 288.24 91.1308C286.32 92.0953 286.8 90.4075 286.32 89.6841C288.72 89.6841 290.16 92.0953 292.32 91.6131C292.56 91.6131 293.04 91.6131 293.04 91.8542C294.24 94.7477 297.12 93.0598 298.8 94.0243C297.84 93.0598 296.16 92.8187 296.16 90.8897C297.36 91.1308 298.56 92.3364 299.76 91.1308C300.24 90.6486 302.88 90.1664 302.88 92.5776C302.88 94.0243 304.8 92.3364 304.8 93.7832C305.04 93.7832 305.28 93.5421 305.04 93.0598C304.8 92.3364 304.8 91.6131 305.76 91.372C306.48 91.1308 306.96 91.6131 307.2 92.0953C307.68 93.0598 306.72 93.5421 306.24 94.0243C307.92 94.5065 310.08 95.7121 309.6 92.3364C311.76 92.3364 311.04 87.7551 314.64 89.6841C315.84 90.4075 315.6 92.0953 317.28 92.3364C318.24 92.5776 319.44 92.8187 319.92 94.0243C320.16 94.2654 320.88 94.7477 321.36 94.5065C321.36 94.5065 321.6 94.5065 321.6 94.2654C322.08 94.0243 321.84 93.3009 321.6 92.8187C321.36 92.3364 320.88 91.8542 321.6 91.6131C322.08 91.372 322.8 91.372 323.28 91.6131C324 91.8542 323.52 92.3364 323.28 92.8187C323.04 93.5421 323.04 93.7832 324 93.7832C325.92 93.5421 328.32 95.2299 329.04 91.8542C329.28 90.8897 330.24 90.6486 330.96 91.8542C332.4 94.5065 335.04 93.0598 337.2 93.5421C337.44 93.5421 338.16 93.5421 337.92 93.0598C335.76 90.4075 340.32 90.4075 340.08 88.2374C340.08 87.9963 341.76 87.0318 342.24 88.4785C342.48 89.443 343.2 89.6841 343.68 89.443C345.6 88.2374 347.76 89.9252 349.44 88.2374C350.16 87.7551 350.4 87.7551 350.64 88.4785C351.12 88.9607 350.64 89.443 350.16 89.9252C348 91.8542 344.4 92.3364 342 91.1308C340.32 90.4075 340.32 90.4075 338.64 91.1308C339.84 91.6131 340.08 92.8187 341.52 92.3364C342.48 92.0953 343.68 92.8187 344.64 93.5421C345.84 94.7477 346.56 94.9888 348 93.5421C348.96 92.5776 350.88 92.8187 352.32 92.0953C353.28 91.6131 354.96 91.372 354.72 89.6841C354.72 89.2019 354.96 88.9607 355.44 88.7196C357.84 88.4785 361.92 89.6841 364.32 91.6131C364.32 91.6131 364.32 91.6131 364.56 91.6131C364.32 89.6841 366.24 88.7196 367.2 88.4785C368.4 88.2374 370.08 88.9607 371.76 88.9607C372.48 88.9607 372.96 89.9252 373.68 89.443C373.92 89.443 373.92 88.2374 373.68 87.9963C372.96 87.2729 372.24 87.9963 371.76 88.2374C371.52 88.2374 371.28 88.2374 370.56 88.2374C371.52 87.0318 372.96 86.7906 373.68 85.585C374.64 83.8972 376.8 85.1028 378.48 84.6206C378.72 84.6206 379.2 85.3439 378.72 85.585C378.48 85.8262 378 85.8262 377.76 86.0673C376.8 86.7906 374.88 86.0673 374.88 87.7551C374.88 88.7196 376.08 89.6841 377.76 89.2019C378.96 88.9607 380.16 92.0953 379.44 93.5421C379.2 94.2654 379.44 94.5065 379.68 94.7477C380.64 95.471 380.88 93.5421 382.08 93.7832C382.32 93.7832 381.84 93.5421 381.6 93.3009C380.16 90.8897 380.64 90.8897 382.56 89.6841C384.72 88.4785 385.68 89.443 386.64 90.4075C388.32 89.6841 385.44 87.9963 387.36 87.7551C387.84 87.7551 387.6 88.7196 387.84 89.2019C388.32 88.4785 388.56 87.7551 389.04 87.0318C389.76 87.7551 390.96 88.4785 390.24 89.443C389.04 91.372 390.96 91.372 391.68 92.0953C392.16 92.5776 393.36 93.0598 394.08 91.372C394.32 90.6486 396.72 90.4075 398.16 90.6486C399.12 90.6486 398.16 92.3364 398.88 93.0598C401.28 92.5776 402 90.4075 402.72 87.9963C403.44 92.8187 402.96 93.5421 398.88 93.7832C398.64 94.5065 399.6 94.2654 399.6 94.7477C400.08 95.9533 397.68 96.6766 399.12 97.1589C400.32 97.6411 401.76 96.9177 403.2 96.6766C403.92 96.6766 404.64 96.4355 405.12 96.1944C406.32 96.9178 403.68 98.3645 405.6 98.6056C406.32 98.6056 408.24 99.8112 408.24 97.4C408.24 97.1589 408.48 96.9178 408.96 97.1589C412.8 99.8112 417.12 97.1589 420.96 98.1234C424.8 99.0879 428.88 97.8822 432.48 99.5701C434.16 97.6411 436.08 100.052 437.76 99.5701C441.12 98.6056 444.48 101.258 447.84 99.329C448.8 98.6056 449.28 99.5701 449.76 100.052C450.48 100.535 450.72 101.74 452.16 100.776C453.12 99.8112 453.84 99.329 452.88 97.8822C452.64 97.6411 452.88 97.1589 453.12 96.6766C453.6 97.8822 455.52 97.6411 455.28 99.5701C455.28 100.293 456.24 100.293 456.48 100.535C457.2 100.776 456.72 99.8112 456.96 99.5701C457.44 97.8822 458.88 96.9177 459.84 95.471C460.08 94.9888 460.8 94.0243 461.28 94.7477C461.76 95.2299 461.76 96.1944 460.56 96.4355C460.08 96.6766 459.6 97.1589 459.36 97.6411C458.4 98.6056 457.44 99.5701 458.4 101.017C459.36 102.464 460.56 101.017 461.76 101.017C462.72 101.017 463.68 99.8112 464.64 99.5701C465.12 99.329 465.84 99.0878 466.08 100.052C466.32 101.258 465.36 100.535 464.88 100.776C463.68 101.258 462.72 101.74 464.16 102.946C464.4 103.187 464.4 103.669 464.4 103.669C464.4 103.669 464.64 103.669 464.64 103.428C464.64 103.187 464.88 102.705 465.12 102.705C465.36 102.464 465.6 102.222 465.84 102.222C466.8 100.535 467.76 98.3645 467.76 98.3645C466.08 98.6056 465.6 97.1589 464.64 96.4355C464.16 96.1944 463.2 95.7121 463.44 94.7477C463.68 94.0243 464.64 94.2654 465.12 94.2654C465.6 94.2654 466.08 94.2654 466.56 94.2654C467.76 94.2654 465.36 93.3009 466.8 93.0598C467.52 93.0598 468.96 92.0953 468.72 91.372C468 89.9252 467.04 91.8542 466.08 91.6131C464.16 91.1308 464.4 93.3009 463.2 93.7832C461.28 91.6131 464.64 90.6486 464.4 88.9607C465.6 89.6841 466.8 89.2019 467.76 89.2019C468.24 89.2019 468.48 89.2019 468.96 89.2019C469.2 88.9607 469.68 88.9607 469.92 88.9607C470.16 88.7196 470.4 88.2374 470.4 87.7551C470.64 86.5495 471.6 87.0318 472.32 87.0318C476.4 87.514 479.52 86.0673 482.64 83.8972C482.88 83.6561 483.6 84.3794 484.08 83.6561C481.92 82.9327 481.92 82.9327 480.48 84.3794C480 84.8617 479.76 84.8617 479.28 84.8617C477.6 84.3794 475.92 84.8617 474 85.1028C477.36 83.4149 480.72 82.2093 484.56 81.7271C482.4 80.7626 482.4 80.7626 478.32 82.6916C477.6 81.486 479.52 81.2449 479.28 80.2804C478.8 78.8336 477.6 81.486 477.12 79.7981C476.64 78.3514 478.08 77.628 479.52 78.3514C480 78.5925 480.24 79.3159 481.2 79.0748C481.2 76.4224 476.88 77.1458 477.36 74.2523C478.8 74.4935 479.76 75.2168 480.72 76.1813C482.64 78.1103 485.76 77.8692 486.96 75.6991C487.2 75.2168 486.48 73.7701 487.92 74.0112C489.12 74.0112 489.12 75.2168 489.36 76.1813C490.8 75.9402 489.12 73.7701 490.8 74.2523C492.24 74.4935 491.52 75.6991 491.52 76.6635C491.52 77.3869 491.52 77.8692 491.52 78.5925C491.76 78.5925 492.48 78.8336 492.48 78.8336C492.24 80.2804 493.44 81.2449 493.92 82.6916C494.88 83.6561 495.6 85.1028 497.04 85.585C497.04 85.585 497.04 85.585 497.28 85.585C497.28 85.585 497.28 85.585 497.28 85.3439C497.04 83.6561 496.08 82.4505 494.88 81.2449C493.2 79.7981 492.72 77.628 492.72 75.4579C492.72 74.7346 492.96 74.4935 493.68 74.2523C494.64 74.0112 494.4 74.7346 494.64 75.2168C494.88 77.1458 496.08 78.1103 498 78.1103C499.2 77.3869 496.32 76.1813 498.24 75.2168C499.2 74.4935 499.92 74.9757 500.4 75.6991C500.64 75.2168 499.92 73.529 501.6 74.7346C502.32 75.2168 503.28 75.6991 504 76.1813C504.48 75.6991 503.04 74.4935 504.48 74.2523C505.44 74.0112 506.4 74.9757 506.16 75.6991C505.92 77.1458 506.16 77.3869 507.6 77.3869C509.04 77.628 508.08 79.7981 509.76 80.2804C509.76 79.557 509.28 78.8336 510.24 78.5925C511.2 78.3514 511.2 79.0748 511.68 79.557C512.16 80.0392 512.64 80.5215 513.36 81.2449C511.68 81.9682 510.96 80.2804 509.76 80.2804C509.76 81.0037 511.44 81.2449 510.48 82.2093C509.52 83.1738 508.08 82.6916 506.88 82.6916C505.68 82.6916 505.68 82.2093 505.2 83.1738C504.72 84.1383 504.48 84.8617 503.28 83.1738C502.32 81.7271 500.4 80.7626 498.96 79.3159C498 80.5215 500.4 80.5215 500.16 81.9682C500.16 82.9327 501.6 83.6561 500.16 84.8617C499.2 85.8262 501.36 85.585 501.12 86.3084C500.88 87.0318 501.84 87.514 501.36 87.9963C500.88 88.4785 500.4 87.9963 499.92 87.2729C499.44 86.5495 499.2 85.3439 497.76 85.3439C497.52 85.8262 497.04 86.0673 496.56 85.8262C496.08 85.585 495.36 85.585 494.88 85.585C495.36 86.3084 496.08 86.7906 496.08 87.7551C494.16 88.2374 494.4 85.585 492.72 85.585C493.2 88.2374 495.84 89.443 496.32 91.8542C496.32 92.0953 496.8 92.5776 496.56 93.0598C494.64 91.1308 494.64 92.8187 494.4 94.2654C495.12 94.5065 495.6 94.7477 496.32 94.9888C497.76 96.6766 498.96 98.6056 500.4 100.293C501.36 101.499 502.56 101.74 504.48 101.258V101.017C503.04 100.293 501.6 100.535 500.88 98.8467C500.4 97.6411 500.4 97.1589 501.36 96.4355C502.32 95.471 502.8 96.4355 503.28 96.9178C504 97.6411 504.48 98.6056 505.44 98.8467C505.92 96.4355 503.52 95.471 503.04 92.8187C505.44 94.9888 507.12 96.9177 508.56 99.0878C507.36 100.052 506.4 98.8467 505.44 98.8467C504.72 102.222 508.56 101.981 509.52 104.393C510.72 102.946 510.24 101.981 509.28 100.776C510.96 100.776 511.2 101.981 511.92 102.464C512.88 103.187 514.32 105.116 515.28 102.222C515.28 101.981 515.76 101.74 515.76 101.74C516.24 101.981 516.72 102.222 516.72 102.946C516.96 104.634 517.44 104.151 517.92 103.187C518.16 102.705 518.64 102.946 518.88 103.187C519.12 103.91 519.36 104.875 520.32 104.151C521.04 103.428 520.56 102.464 520.32 101.499C519.84 100.052 517.92 99.5701 517.92 97.8822C519.6 98.3645 519.6 98.3645 521.04 101.017C521.76 102.222 523.2 103.187 523.68 104.875C524.16 102.946 522.48 101.499 522.48 99.5701C523.2 99.8112 523.92 99.8112 523.92 100.052C524.4 102.705 525.6 104.151 528.72 103.187C528.48 102.705 528.24 101.981 528 101.258C529.68 101.258 530.4 102.705 531.84 102.946C532.32 102.946 534.48 104.151 534.72 103.91C535.92 102.705 537.6 102.946 538.8 103.428C540.24 103.91 541.2 101.981 542.64 103.187C542.64 103.187 543.12 102.946 543.36 102.946C543.12 102.705 543.12 102.222 542.88 101.981C541.44 100.535 540.72 98.6056 540.48 96.1944C542.4 98.1234 542.88 100.293 544.32 102.222C545.28 103.669 546.24 101.258 546.72 102.705C546.96 101.981 547.2 101.017 546.72 100.776C544.56 100.052 545.76 97.8822 544.32 96.6766C546 96.6766 546 97.8822 546.72 98.6056C546.96 98.1234 546.96 97.6411 547.2 97.1589C548.4 97.6411 547.44 100.052 549.6 99.8112L549.84 100.293C547.68 102.705 550.56 103.187 551.52 104.875C552 102.464 551.52 100.776 550.32 99.0878C549.84 98.6056 549.84 98.1234 550.32 97.6411C550.8 97.1589 551.28 97.8822 551.52 97.8822C552.48 97.8822 552.24 99.0878 552.96 99.0878C553.92 99.0878 553.92 100.535 554.64 100.293C556.08 99.8112 554.16 98.8467 555.12 98.1234C556.56 99.5701 556.8 101.258 557.52 102.946C558.48 104.634 559.44 105.357 560.88 103.669H561.12V103.428C559.92 103.187 559.2 102.464 558.72 101.258C556.32 96.6766 554.16 92.0953 552.96 86.5495C556.8 91.6131 558.48 97.1589 561.6 101.981C561.12 99.5701 561.6 97.1589 561.84 94.7477C560.88 94.9888 561.36 96.9178 560.16 96.4355C558.72 95.7122 557.76 94.2654 558.48 92.3364C559.68 93.3009 561.84 93.0598 562.8 94.7477C563.28 95.471 563.52 96.1944 563.04 97.4C562.32 98.6056 564 101.981 565.2 102.222C566.16 102.222 566.4 101.74 566.4 100.776C566.4 100.293 565.44 99.329 566.64 99.0878C565.2 97.8822 563.28 96.9178 564.96 94.5065C567.12 95.471 566.88 97.4 566.64 99.0878C567.12 100.535 566.88 102.464 569.52 102.222C570.24 102.222 570.72 104.393 572.16 105.116C572.88 105.357 573.12 106.08 574.08 105.598C574.8 105.116 576 105.357 575.04 106.804C574.08 108.733 575.52 108.974 576.96 109.456C577.44 108.009 574.8 107.286 576.48 105.839C577.68 104.875 578.88 105.839 579.84 105.839C580.32 104.634 578.88 104.151 579.12 103.187C581.28 103.187 582.24 108.974 585.36 105.116C584.4 105.116 583.92 103.91 582.96 103.669C585.12 102.705 585.36 102.705 586.32 103.91C587.04 104.875 587.76 106.08 589.44 106.804C589.44 106.804 589.44 106.804 589.44 106.563C587.28 103.187 584.88 100.535 583.92 97.1589C585.84 99.5701 588 101.74 589.92 104.151C590.4 104.634 590.4 104.875 590.64 105.116C590.88 105.116 590.88 104.875 591.12 104.875C591.12 104.634 591.36 104.393 591.36 104.151C591.6 103.669 592.32 101.981 593.28 103.187C594.24 103.91 596.64 102.946 595.92 105.357C595.68 105.839 595.92 106.08 595.92 106.08C596.16 106.08 596.4 106.08 596.64 106.08C598.8 106.08 600.48 106.804 600.24 109.697C600.24 110.421 601.2 110.662 601.92 110.421C603.36 109.938 601.92 109.456 601.92 108.974C601.92 108.492 601.68 108.009 601.44 107.045C602.4 108.009 603.6 105.357 604.32 107.527C604.56 107.527 604.56 107.286 604.8 107.286C605.04 107.045 606.96 107.045 607.2 107.045C607.92 107.045 608.64 108.733 609.36 107.045C611.76 108.974 612.24 105.839 613.92 105.598C614.16 105.598 614.88 105.357 614.88 105.598C616.8 108.009 618.72 108.733 621.6 107.286C622.56 106.804 623.04 107.527 623.04 110.421C623.28 109.697 623.52 109.215 623.76 108.492C624 107.768 624.24 106.804 625.2 107.286C626.16 107.527 626.16 108.492 625.2 108.974C624.72 109.215 624.72 109.697 624.96 110.662C626.88 107.286 629.76 106.804 633.12 107.045C633.36 107.045 633.6 106.804 633.84 106.804C635.28 107.045 636.24 109.215 637.92 107.286C638.16 108.492 640.8 107.527 640.32 109.697C640.08 110.662 641.28 110.903 642.24 110.903C642 110.421 644.64 110.662 642.48 109.456C642 109.215 642.72 108.733 643.2 108.492C644.4 107.768 644.16 109.456 645.12 109.456C645.36 108.733 645.84 108.009 646.08 107.286C646.8 107.768 646.8 108.733 646.8 109.456C647.04 109.456 647.28 109.456 647.28 109.456C647.52 108.733 647.28 108.009 646.8 107.527C646.32 106.563 647.28 106.08 647.52 105.116C648 105.598 648.24 106.08 648.24 106.804C648.48 108.733 650.16 107.286 651.12 108.009C651.12 108.009 651.12 108.009 651.12 107.768C651.12 107.286 651.12 106.804 650.88 106.804C649.92 106.321 648.96 105.357 649.44 104.875C650.4 103.428 650.88 105.116 651.6 105.598C651.84 105.598 651.84 106.08 652.08 105.839C654.72 105.116 655.68 107.768 657.6 108.492C657.6 107.768 657.84 107.045 657.84 106.321C661.2 106.563 661.2 106.563 661.44 104.634C661.2 107.286 663.84 107.045 665.04 108.009C665.28 108.009 665.28 108.009 665.52 107.768C665.76 107.286 665.76 106.08 666 105.357C667.44 106.321 669.6 105.839 670.56 107.527C671.28 106.563 672.96 109.215 673.2 106.804C673.44 105.598 673.92 106.321 674.16 106.563C677.28 108.733 680.16 108.009 683.04 106.08C683.28 105.839 684 105.839 684.48 105.839C684.48 106.804 682.8 106.804 683.52 107.768C685.44 107.286 686.4 104.151 689.04 105.839C689.04 105.839 689.52 105.839 689.52 105.598C690.24 104.875 690.24 105.116 690.96 106.321C692.16 108.733 693.36 111.144 694.56 113.796C695.52 111.867 693.36 110.179 694.56 108.25C695.04 108.25 695.28 108.25 695.52 108.733C696 112.35 698.64 112.591 701.52 113.073C703.2 113.314 702.96 112.832 702.72 112.108C702.72 112.108 702.72 112.108 702.48 111.867V111.626C703.68 111.144 705.6 113.796 706.08 110.662C707.28 110.903 707.76 112.35 708.96 111.867C707.76 114.037 705.84 113.796 703.92 114.037C703.2 114.037 701.52 113.314 702 115.002C702.24 115.725 703.2 116.69 704.4 116.449C704.64 116.449 705.12 116.449 706.08 116.449C702.96 118.86 699.84 117.413 696.72 117.654C699.6 118.86 702.72 119.101 704.64 121.994C702.72 122.477 701.28 121.03 699.6 121.994C699.6 124.647 703.44 121.994 703.2 124.164C702.96 127.54 705.12 125.611 705.84 125.611C708 125.611 707.04 129.228 709.44 128.505C709.92 127.781 709.2 127.54 708.96 127.058C707.76 125.37 709.68 124.406 710.4 124.647C714.48 125.852 718.56 123.441 722.64 125.611C724.8 126.817 726.96 127.54 727.68 130.193C728.88 130.193 730.08 129.228 731.04 130.916C731.28 131.157 732 131.157 732 130.675C731.76 129.951 732.96 129.228 732.24 128.264C732 127.781 731.76 127.54 731.28 127.781C729.84 128.505 728.64 128.264 727.44 127.058C727.2 126.817 726.24 127.058 726.72 126.093C726.96 125.611 727.68 124.888 728.16 125.611C729.12 126.817 730.32 126.093 731.28 126.576C731.52 126.576 731.76 126.817 732 126.817C734.4 124.888 734.88 124.888 738 126.093C740.4 127.058 742.32 126.335 742.56 123.923C743.04 121.03 744.48 122.236 745.92 122.718C746.16 122.718 746.16 123.682 746.64 123.441C748.56 121.753 749.28 114.888 750.72 114.647C750.24 115.611 752.16 116.817 750.72 117.781C750.24 118.022 750 118.022 749.76 117.781C749.52 117.54 749.04 117.299 749.28 117.058C750.72 115.129 747.6 125.852 748.08 124.647C746.64 124.647 747.36 125.611 747.36 126.335C747.36 127.299 746.16 127.058 745.92 126.576C744.72 125.129 743.76 125.611 742.56 126.576C744.48 129.951 746.88 120.916 750.72 119.469C751.68 119.228 753.6 119.71 755.52 119.71C755.52 119.71 755.52 119.71 755.52 119.469C754.32 118.746 753.12 119.469 752.16 118.505C753.84 116.817 755.52 118.022 756.72 118.746C759.12 120.193 760.8 118.987 762.48 117.781C763.2 117.299 763.92 117.299 764.4 117.299C766.08 118.022 767.52 117.299 769.2 117.299C769.68 117.299 770.64 117.54 770.4 116.576C770.16 115.37 769.44 116.576 768.72 116.093C769.2 114.888 770.4 115.129 770.64 115.611C771.12 116.335 771.36 117.299 771.36 118.264C771.36 119.469 770.16 118.987 769.44 118.987C766.8 118.746 764.16 119.228 761.04 119.71V119.951C762.48 120.434 763.68 120.193 764.88 121.398C766.08 122.845 768.96 121.639 770.88 121.398C771.36 121.398 771.36 120.193 772.08 121.398C772.8 122.363 773.76 123.568 775.2 122.363C776.16 121.639 776.16 122.845 776.4 123.327C776.64 123.809 776.64 124.774 775.68 124.774C774.72 124.774 774 125.015 773.76 126.462C774.72 125.015 776.64 126.221 777.84 125.015C778.08 124.533 779.04 125.497 778.08 125.979C777.6 126.221 777.6 126.703 777.84 126.944C778.8 127.185 779.76 126.703 780.72 127.185C780.96 126.944 780.96 126.703 781.2 126.221C781.2 125.979 781.2 125.738 781.2 125.738C780.48 125.979 779.04 126.462 779.76 124.774C780 124.05 781.68 124.292 782.64 124.774C783.84 125.256 784.8 124.05 785.52 123.568C786.96 122.845 788.16 122.845 789.36 123.327C790.08 123.568 791.52 124.533 790.56 122.363C790.56 122.121 794.16 121.398 794.16 121.398C793.44 123.327 795.84 121.88 795.84 122.845C797.28 121.639 797.28 123.327 798 123.809H798.24C798.72 121.88 800.16 121.157 801.84 120.434C804 119.71 802.56 122.363 803.76 122.121C804.72 121.88 805.68 121.157 806.88 121.398C807.36 121.398 806.88 122.845 807.84 122.845C807.84 122.845 808.08 122.845 808.08 122.604C808.56 121.88 807.84 120.193 808.08 120.675C810 122.604 810 117.54 811.68 119.951C812.4 121.157 814.32 120.916 815.04 122.121C814.32 119.228 818.88 119.71 818.4 117.058C818.64 117.54 819.12 118.264 819.12 118.746C819.36 119.71 820.8 118.505 820.56 119.71C820.08 120.916 819.36 119.951 818.88 119.71C818.4 119.469 817.92 120.193 818.16 120.434C818.64 120.916 818.64 122.363 819.84 121.639C820.56 121.157 821.28 120.675 822.24 120.675C825.12 120.434 824.4 123.086 825.36 124.774C825.6 121.157 830.16 120.675 830.4 117.058C831.6 117.54 831.12 118.505 831.12 118.987C831.12 120.193 832.32 118.987 832.56 119.71C832.56 119.951 833.52 119.951 833.28 119.469C833.04 116.093 835.68 117.54 837.12 117.54C837.6 117.54 838.56 117.299 839.04 118.022C837.36 118.022 836.16 118.022 835.92 120.193C835.92 120.675 835.44 120.916 836.16 121.157C836.64 121.398 837.36 121.88 837.36 120.916C837.12 118.505 840.24 120.434 840.24 118.505C841.2 118.746 840.96 119.469 840.72 120.193C840.72 120.434 840.72 120.675 840.72 120.675C840.96 120.675 841.44 120.916 841.68 121.157C842.4 120.916 841.92 118.987 843.12 119.951C844.08 120.675 843.84 121.639 843.12 122.604C845.76 122.604 844.56 119.951 846 119.469C844.56 117.54 846.48 117.058 847.68 115.852C847.68 116.817 847.92 117.781 847.68 118.746C847.44 119.469 846.72 119.951 847.44 120.434C848.4 121.157 848.16 119.71 848.4 119.469C849.84 118.264 849.84 118.505 848.4 116.093C849.84 117.54 852 115.37 853.44 117.299C853.44 117.299 853.68 117.54 853.92 117.54C855.84 117.058 855.84 116.817 857.52 118.022C857.76 118.022 857.76 118.022 858 117.781C858.24 116.817 857.76 116.093 857.52 114.647C858.96 115.852 859.92 116.817 860.88 117.781C862.08 118.987 861.36 120.916 862.8 121.88C861.84 122.363 861.12 121.398 860.64 122.121C861.12 122.604 861.84 123.086 862.56 123.086C863.76 123.086 864.48 121.639 865.92 122.363C863.28 119.469 862.8 118.264 864 116.576C864 116.335 863.76 116.093 863.76 116.093C862.32 116.335 861.6 115.37 860.88 114.647C862.56 114.888 864.48 114.406 865.44 116.335C866.16 117.54 866.88 114.647 867.84 116.335C868.32 117.058 869.52 117.058 869.28 118.264C869.28 119.71 868.32 118.505 867.84 118.746C866.4 119.469 868.32 120.193 867.84 121.157C867.6 121.639 868.32 122.121 869.04 121.639C870.72 120.675 873.36 122.121 874.08 119.469C874.08 119.228 874.56 119.228 874.8 118.987C876 122.121 879.12 119.469 881.04 121.157C880.32 120.434 882.72 116.576 878.88 119.469C878.16 118.022 876.24 119.71 875.28 118.264C875.04 118.022 875.04 118.264 873.6 118.264C872.88 118.264 871.44 118.022 871.92 116.576C872.64 115.852 872.88 114.164 874.32 116.093C874.8 114.647 876 115.611 877.2 115.852C877.68 115.852 877.92 115.852 878.4 115.611C878.64 115.37 878.88 114.888 878.88 114.164C878.88 113.682 879.36 114.406 879.6 114.406C880.08 114.406 880.32 114.647 880.56 115.37C882.48 112.718 882.72 116.576 884.4 116.335C885.12 116.093 885.84 116.576 886.56 115.852C886.8 115.611 886.8 114.888 887.52 115.611C888.72 116.576 891.12 116.576 891.6 115.129C892.56 113.2 893.28 114.406 894.24 114.888C894.48 114.164 894.48 113.682 894 113.441C893.76 112.959 893.52 112.477 894.24 112.236C894.96 111.994 894.96 112.718 894.96 113.2C894.72 114.406 895.68 114.888 896.4 115.37C895.92 115.852 895.44 115.611 894.72 115.611C893.28 115.611 894.48 116.576 894.24 117.058C894.48 117.058 894.96 117.299 894.96 117.299C896.16 115.611 898.08 119.469 899.28 116.817C899.76 115.611 900.72 115.129 901.68 116.335C902.64 117.54 904.32 115.611 905.04 116.817C905.76 117.54 905.52 114.647 906.24 116.576C906.48 117.781 906 118.264 905.04 118.264C904.32 118.264 903.6 118.022 902.88 117.781C901.92 117.54 900.48 118.022 900.48 118.505C900 120.675 899.52 120.193 899.04 118.505C898.8 118.505 898.56 118.746 898.32 118.746H898.08V118.987C898.08 118.987 898.08 118.987 898.32 118.987C899.52 122.121 901.92 120.434 903.84 120.193C903.36 124.05 906.48 121.639 907.92 122.363C908.4 121.398 906.24 120.916 907.44 120.434C909.12 119.71 910.08 121.157 910.8 122.363C910.56 121.639 910.56 120.675 910.32 120.193C909.84 119.228 910.32 118.505 911.04 118.505C912.24 118.505 911.28 119.228 911.28 119.951C911.28 120.193 911.52 120.193 911.76 120.434H912C913.44 116.817 914.4 120.916 914.64 121.157C916.08 121.88 917.52 122.363 918.96 121.157C919.68 120.675 919.92 120.675 920.16 121.398C920.4 121.88 920.4 122.121 919.92 122.604C918.72 123.568 917.52 122.845 916.32 123.327C916.8 124.292 917.52 125.015 917.28 126.221C917.28 126.462 917.28 127.426 917.52 127.426C920.88 125.738 923.28 131.766 926.88 128.632C927.84 127.908 929.76 129.114 930.96 127.908C930.48 128.873 933.84 127.426 931.92 129.355C932.4 129.596 932.64 129.837 932.88 130.078C934.08 129.837 935.52 128.15 935.52 126.944C935.52 126.221 936 125.497 936.72 125.015C938.4 127.426 952.56 129.114 955.92 127.185C955.92 125.738 954.48 127.667 954.48 126.221C955.2 126.221 956.16 125.015 956.64 126.462C957.12 127.426 957.84 127.426 958.32 127.185C959.52 126.462 957.6 126.703 957.84 126.221C958.32 125.256 958.56 125.738 959.04 125.979C959.76 126.462 960.96 128.15 961.44 125.738H961.68C963.12 128.15 966 125.256 966.24 126.221C966.96 128.391 968.4 128.15 969.6 127.908C971.04 127.667 972.72 126.462 974.16 127.908C975.84 124.774 979.68 129.114 981.12 125.738C981.12 125.497 982.32 125.497 982.8 125.738C984.48 126.703 985.68 125.015 985.92 124.533C986.4 123.086 984.24 123.086 983.52 122.121C980.88 123.809 978.72 122.121 976.08 121.157C977.76 120.675 979.68 120.434 981.36 119.951C981.6 119.951 981.6 120.193 981.84 120.193C982.56 120.434 980.4 121.88 982.32 121.639C983.52 121.398 982.8 120.193 983.28 119.469C986.64 122.604 988.08 125.256 986.16 125.979C987.12 126.221 987.84 126.462 988.32 125.738C989.04 124.533 990 125.015 990.72 125.256C991.68 125.497 992.64 127.908 992.88 124.774C994.32 126.703 996.48 123.809 997.92 125.256C998.64 125.979 999.36 125.979 1000.08 126.221C1001.52 126.944 1002.24 127.667 1002.72 125.497C1002.72 124.774 1003.44 125.256 1003.92 125.497C1004.88 125.738 1005.12 126.703 1005.36 127.667C1005.6 127.667 1005.6 127.667 1005.84 127.667C1006.32 126.944 1006.8 126.462 1008 127.185C1009.44 127.908 1011.84 126.462 1013.52 127.426C1014.96 128.391 1014.72 126.221 1015.68 125.979C1017.84 125.497 1020 126.221 1021.92 125.015C1022.4 124.774 1022.88 124.05 1023.6 124.774C1024.56 125.738 1022.64 125.979 1023.36 126.703C1024.32 126.703 1025.52 127.185 1026.24 126.221C1026.96 125.497 1028.4 125.256 1028.88 125.738C1031.28 127.426 1034.16 126.703 1036.56 126.462C1038.48 126.462 1040.4 126.462 1042.08 125.979C1044.24 125.497 1042.8 124.05 1042.56 122.363C1044.72 123.568 1045.92 125.738 1048.08 125.497C1048.08 125.256 1048.32 125.256 1048.32 125.015C1048.08 124.533 1047.84 124.533 1047.36 124.292C1046.4 123.809 1047.36 123.327 1047.6 123.086C1047.84 122.363 1048.32 123.086 1048.32 123.327C1050 125.738 1052.16 125.256 1054.8 125.256C1056.72 125.256 1058.64 125.979 1060.56 125.256C1061.52 124.774 1062.72 123.327 1063.92 125.256C1063.92 125.497 1064.4 125.497 1064.64 125.497C1064.88 125.497 1065.12 125.497 1065.12 125.256C1065.36 125.256 1065.36 125.015 1065.6 125.015C1066.8 123.568 1067.52 123.568 1069.2 124.292C1070.4 124.774 1072.32 126.221 1073.04 123.086C1073.28 121.88 1075.44 120.845 1075.92 121.086C1076.88 122.05 1078.08 122.05 1078.8 121.568C1080.24 120.604 1082.64 123.015 1083.6 120.121C1083.84 119.398 1084.56 120.121 1085.04 120.363C1086.24 121.327 1087.68 121.086 1088.88 121.809C1089.12 120.604 1092.72 122.533 1090.8 119.398C1090.32 118.675 1091.52 118.193 1092.24 118.675C1093.68 119.88 1095.6 120.363 1097.28 121.327C1098.24 121.809 1098.96 122.774 1099.68 121.086C1099.92 120.845 1100.4 120.604 1100.64 121.086C1100.88 121.327 1099.92 121.809 1100.64 122.533C1102.08 120.363 1103.76 119.639 1106.4 121.327C1107.36 122.05 1108.8 120.845 1110.48 120.604C1112.88 120.604 1115.52 121.086 1117.68 120.604C1119.84 120.121 1122.24 122.533 1124.16 119.639C1124.4 119.157 1125.36 120.121 1126.32 120.121C1126.56 120.121 1126.8 119.88 1127.04 119.88C1127.04 119.88 1127.28 119.88 1127.28 119.639C1128.72 118.434 1130.16 118.675 1131.36 119.639C1132.08 120.363 1132.8 119.639 1133.52 119.639C1135.44 119.639 1137.6 118.675 1139.76 119.88C1140.24 120.121 1140.48 119.88 1140.96 119.398C1141.92 118.434 1142.64 118.675 1143.12 120.121C1143.6 121.086 1146.72 120.845 1147.44 119.88C1148.64 118.434 1150.08 117.951 1151.76 118.916C1153.92 120.363 1156.32 119.398 1158.72 119.639C1160.88 119.639 1163.04 119.157 1165.2 120.363C1165.68 116.157 1163.52 119.639 1164.24 118.434C1164.96 117.469 1165.68 115.193 1166.4 115.434C1169.04 116.398 1171.44 116.88 1174.32 115.434C1175.52 114.71 1179.12 113.746 1180.8 116.88C1181.52 118.327 1182.48 117.121 1183.2 116.88C1185.84 116.157 1185.84 116.157 1185.12 114.228C1186.08 114.469 1185.84 114.469 1187.04 115.916C1187.52 116.398 1188.48 117.121 1189.44 116.88C1191.6 116.398 1193.52 115.193 1196.16 116.639C1197.36 117.363 1200.24 116.398 1202.4 115.916C1203.36 115.675 1204.32 116.88 1205.28 115.916C1205.52 115.675 1206.96 116.639 1206.24 114.951C1205.52 113.505 1206.48 113.505 1207.44 113.746C1208.88 113.746 1210.56 115.675 1212 113.746C1212.96 114.71 1214.4 115.193 1215.6 115.916C1217.28 116.88 1218 115.434 1218.48 114.951C1219.44 113.746 1220.4 113.264 1221.84 114.228C1224 115.916 1226.4 114.228 1228.8 114.71C1229.28 114.951 1228.56 113.022 1229.52 112.54C1230.96 112.54 1229.76 114.228 1230.72 114.71C1232.4 112.299 1234.08 111.817 1236.48 113.264C1236.96 113.505 1237.2 113.746 1237.68 113.746C1241.04 112.781 1244.4 114.951 1247.52 113.022C1248.72 112.299 1249.2 113.987 1250.4 113.505C1252.56 112.54 1254.24 112.781 1256.64 113.746C1256.88 113.746 1257.12 114.228 1257.36 114.228C1257.36 114.228 1257.6 114.228 1257.6 113.987C1258.8 111.093 1260 113.264 1261.68 113.505C1263.12 113.746 1264.8 113.264 1266.24 112.781C1268.16 112.299 1269.84 112.299 1271.52 113.746C1272.24 114.469 1272.48 113.505 1272.48 113.022C1272.24 110.37 1273.92 112.058 1274.4 112.299C1275.6 113.022 1276.32 114.228 1277.04 112.058C1277.04 111.817 1278 110.852 1278.48 111.817C1279.44 113.505 1281.84 110.611 1282.32 113.264C1282.8 112.54 1284 112.54 1284 111.576C1284 110.37 1285.2 110.852 1285.44 110.852C1286.64 110.611 1285.44 111.335 1285.68 111.817C1285.92 112.54 1286.16 112.54 1286.64 112.058C1286.88 111.817 1287.12 111.093 1287.36 111.576C1288.32 113.746 1289.04 112.058 1290.24 111.817C1294.08 111.093 1297.92 112.058 1301.76 113.022C1302.24 113.264 1302.48 113.505 1302.96 113.022C1304.88 110.852 1306.8 110.37 1309.44 111.576C1309.92 111.817 1310.64 112.058 1310.64 111.817C1312.56 110.129 1314.48 110.37 1316.64 111.093C1319.28 111.817 1320.72 109.888 1321.68 108.2C1322.64 106.512 1323.84 106.271 1325.28 106.03C1325.76 106.03 1326.24 105.789 1326.48 106.512C1326.72 106.994 1326 107.718 1325.76 107.718C1323.12 107.236 1324.32 110.852 1322.4 110.852C1322.16 110.852 1322.4 111.335 1322.64 111.576C1323.12 111.817 1323.6 112.058 1323.84 111.817C1325.76 109.888 1327.68 109.888 1330.08 110.852C1330.8 111.093 1331.76 110.611 1331.52 109.647C1331.52 106.03 1333.68 108.682 1334.4 108.682C1335.12 108.923 1334.16 109.164 1334.16 109.888L1334.4 110.129C1335.36 109.164 1336.8 108.682 1335.84 106.994C1335.12 105.789 1336.8 105.065 1337.28 104.824C1338.24 104.342 1338.96 104.101 1339.68 103.378C1342.8 100.725 1344 104.101 1345.2 105.548C1346.4 106.994 1347.6 97.4766 1349.28 97.4766C1349.28 98.6822 1348.08 98.4411 1347.6 98.9234C1347.6 98.9234 1347.6 98.9234 1347.6 99.1645C1349.04 100.129 1350.48 100.129 1352.16 99.4056C1353.84 98.6822 1355.52 100.852 1356.96 101.576C1357.44 101.093 1356 98.9234 1358.16 100.37C1358.64 100.611 1359.36 101.335 1359.84 101.093C1360.08 100.852 1360.32 100.611 1360.32 100.129C1360.08 99.6467 1359.36 99.4056 1359.12 98.9234C1358.88 98.4411 1358.4 98.2 1358.16 97.9589C1359.12 97.2355 1360.56 99.1645 1361.52 97.2355C1361.76 96.9944 1362.48 98.2 1362.72 98.9234C1362.96 99.6467 1362.96 100.129 1363.92 100.129C1365.12 100.129 1364.4 99.1645 1364.64 98.9234C1365.12 98.4411 1364.88 96.9944 1365.84 97.2355C1367.52 97.9589 1369.92 96.7533 1370.88 98.6822C1371.84 100.852 1374.24 99.6467 1375.2 101.093C1375.68 99.4056 1377.6 100.129 1378.56 99.4056C1379.28 97.7178 1380.96 99.6467 1381.92 98.4411C1381.92 96.9944 1379.04 98.6822 1379.52 96.5121C1379.76 96.0299 1379.28 95.3065 1379.76 94.8243C1380.24 94.5832 1380.72 94.8243 1381.44 95.0654C1382.64 96.0299 1383.6 96.9944 1384.32 98.4411C1384.32 98.4411 1384.56 98.4411 1384.56 98.6822C1385.28 98.4411 1385.28 96.7533 1386.48 97.2355C1387.68 97.7178 1386.72 98.6822 1386.48 99.4056C1386.48 99.6467 1386.48 99.8878 1386.72 99.8878H1386.96C1387.2 99.8878 1387.44 99.8878 1387.68 99.8878C1388.4 99.8878 1388.88 99.6467 1389.6 99.6467C1390.32 99.6467 1389.6 101.817 1390.8 100.611C1391.52 100.129 1390.56 98.6822 1389.84 98.4411C1387.92 97.2355 1388.88 94.1009 1386.24 93.3776C1388.16 93.1364 1388.88 94.1009 1389.36 95.5477C1389.6 96.5121 1389.6 97.2355 1390.8 96.0299C1392 94.8243 1394.64 97.2355 1394.64 99.8878C1396.08 97.2355 1398.24 98.2 1400.16 98.9234C1401.12 99.1645 1400.88 99.8878 1401.84 98.6822C1403.76 96.5121 1400.64 95.5477 1401.12 93.8598C1401.36 92.8953 1400.4 91.4486 1401.84 90.7252C1403.28 91.6897 1401.84 93.3776 1402.56 94.8243C1403.52 96.7533 1405.68 96.7533 1406.64 98.2C1407.36 97.4766 1408.08 96.9944 1407.6 95.7888C1407.36 94.8243 1405.92 94.342 1406.4 92.6542C1408.56 94.1009 1408.8 96.5121 1410.24 97.9589C1410.96 98.9234 1411.68 99.4056 1412.4 99.1645H1412.64C1413.12 98.9234 1413.36 98.6822 1413.84 97.9589C1415.04 95.7888 1416 96.271 1416.96 97.9589C1418.4 100.611 1420.8 100.37 1422.96 99.6467C1424.16 99.1645 1426.56 100.852 1426.8 97.9589C1428 97.9589 1428.48 99.6467 1429.92 99.1645C1430.64 98.9234 1431.6 101.335 1432.32 98.9234C1432.56 97.7178 1432.8 97.9589 1430.64 96.0299C1432.56 96.7533 1433.04 94.1009 1434.96 95.7888C1434.96 95.7888 1439.52 95.7888 1439.52 95.5477V0ZM3.12 67.9832C3.12 67.9832 3.12 67.7421 2.88 67.7421C3.36 68.2243 3.6 68.7065 4.08 69.1888C4.08 69.671 4.08 70.1533 4.32 70.3944C3.84 69.671 3.36 68.7065 3.12 67.9832ZM4.56 68.7065C5.28 67.9832 5.04 67.2598 4.8 66.7776C5.28 67.2598 5.28 68.2243 4.56 68.7065ZM4.8 55.9271C3.12 56.8916 4.8 58.5794 3.84 59.5439C1.2 56.8916 1.2 56.6505 1.92 56.4093C3.12 55.686 4.32 54.9626 5.28 53.9981C6 55.2037 6 55.2037 4.8 55.9271ZM12 47.2467C12.24 48.2112 14.64 48.9346 12.48 50.3813C12.48 49.1757 11.28 48.4523 12 47.2467ZM12.48 58.3383C11.04 56.6505 9.12 57.1327 8.64 55.2037C10.56 55.686 12.24 54.9626 13.92 54.7215C13.68 56.4093 9.36 54.7215 12.48 58.3383ZM14.64 51.5869C15.12 53.0336 16.56 53.9981 16.8 56.4093C14.88 55.2037 14.64 53.5159 14.64 51.5869ZM22.08 54.9626C23.76 55.686 25.92 53.5159 27.12 56.8916C25.2 55.686 23.28 57.1327 22.08 54.9626ZM61.2 54.9626C60.72 55.2037 60.48 54.4804 60.72 53.9981C60.96 53.0336 61.44 52.3103 62.64 52.3103C62.88 52.3103 63.36 52.7925 63.6 53.2748C62.64 53.757 61.92 54.7215 61.2 54.9626ZM82.32 60.7495C81.84 60.9907 80.88 60.2673 80.4 59.785C80.16 59.5439 80.16 59.0617 80.4 58.8206C81.36 57.8561 82.8 58.0972 84 58.0972C84.48 58.0972 84.72 58.0972 84.72 59.0617C83.52 58.8206 83.04 60.0262 82.32 60.7495ZM82.56 54.9626C84 52.7925 86.16 54.4804 88.08 54.2393C88.8 54.2393 88.56 55.4449 88.32 55.686C87.84 56.1682 88.08 55.2037 87.84 54.9626C87.12 54.4804 86.4 54.7215 85.92 54.9626C84.48 55.9271 83.52 55.4449 82.56 54.9626ZM84.96 59.3028C87.12 58.3383 88.56 58.5794 90 60.2673C88.08 60.5084 86.64 60.2673 84.96 59.3028ZM92.4 53.757C95.04 53.9981 97.2 54.9626 99.6 56.1682C96.96 56.1682 94.56 55.4449 92.4 53.757ZM110.4 60.5084C109.2 59.3028 108.72 60.2673 108 60.5084C106.08 61.2318 106.08 61.2318 105.12 59.0617C108.24 60.2673 111.6 57.3738 114.24 60.2673C112.32 61.4729 111.84 61.9551 110.4 60.5084ZM160.8 63.4019L160.32 63.643C159.36 62.9196 158.88 61.9551 159.12 60.5084C159.36 60.5084 159.36 60.5084 159.36 60.5084C160.08 61.2318 161.04 61.9551 160.8 63.4019ZM169.2 82.4505C170.64 82.9327 169.92 84.6206 170.64 85.3439C168.96 84.3794 168.96 84.3794 169.2 82.4505ZM201.12 77.628C201.36 74.4935 203.04 76.9047 203.52 77.1458C203.04 77.1458 202.08 77.3869 201.12 77.628ZM233.76 81.7271C234 81.7271 234.24 81.0037 234.48 81.7271C234.72 81.9682 234.48 82.4505 234.48 82.9327C234.48 83.8972 235.92 83.4149 235.92 84.6206C233.52 86.3084 232.32 85.8262 232.08 83.6561C232.08 82.2093 232.56 81.7271 233.76 81.7271ZM252 60.9907C252.96 62.1963 253.68 63.1607 254.4 63.8841C251.76 64.6075 251.76 64.6075 252 60.9907ZM230.4 58.3383C230.88 57.3738 231.84 57.615 232.32 58.3383C233.04 59.3028 234 59.0617 235.68 59.3028C233.76 59.5439 232.8 60.9907 231.36 59.785C230.88 59.3028 229.68 59.5439 230.4 58.3383ZM217.44 56.8916C217.68 55.9271 219.36 56.4093 218.88 57.1327C218.4 58.0972 219.36 58.8206 218.64 59.5439C217.92 59.0617 217.2 58.0972 217.44 56.8916ZM206.88 85.1028C206.16 85.3439 205.2 85.3439 204.96 84.6206C204.48 83.8972 204.48 82.9327 204 81.9682C204 81.9682 204.24 81.7271 204.48 81.7271C204.96 81.7271 204.96 81.9682 205.2 82.4505C205.92 83.8972 205.92 83.8972 207.12 83.1738C207.36 83.1738 207.6 82.9327 207.6 83.1738C207.84 83.4149 207.84 83.6561 208.08 83.6561C207.84 84.3794 207.6 84.8617 206.88 85.1028ZM210 66.2953C208.8 67.5009 209.76 69.671 208.08 71.3589C208.08 68.4654 208.32 65.572 203.76 65.572C204.96 65.0897 205.44 64.6075 205.68 64.8486C206.88 65.0897 208.08 65.572 208.32 64.1252C208.56 63.4019 207.12 63.1607 206.4 62.9196C205.68 62.4374 206.4 60.7495 204.96 60.5084C205.68 59.3028 206.88 60.0262 207.6 60.2673C208.08 60.2673 208.32 60.9907 208.8 60.5084C209.28 60.0262 208.56 59.785 208.32 59.3028C208.08 58.8206 206.64 59.0617 207.36 58.0972C207.6 57.8561 208.32 56.8916 209.04 57.615C209.52 58.0972 210.72 58.0972 210.24 59.5439C210 60.5084 209.04 61.4729 209.52 62.4374C209.52 62.6785 210 62.9196 210.24 63.4019C211.2 62.6785 209.76 60.5084 211.92 60.7495C212.4 60.7495 213.12 60.2673 213.36 61.2318C211.44 61.2318 214.08 63.643 211.92 63.643C211.2 63.643 210.48 63.8841 210.96 64.3663C212.64 65.8131 210.48 67.2598 211.92 68.7065C210.72 67.9832 211.2 66.5365 210 66.2953ZM213.6 78.3514C212.16 78.8336 211.92 77.8692 211.68 76.6635C212.64 76.6635 213.84 75.9402 214.32 77.3869C214.32 77.628 214.08 78.1103 213.6 78.3514ZM213.84 65.572C216 65.572 217.92 65.572 220.56 65.572C218.88 66.2953 217.92 66.0542 216.72 66.0542C216.24 66.0542 215.28 66.0542 215.52 66.7776C215.76 67.5009 215.76 68.2243 215.04 68.2243C214.08 68.2243 215.28 67.2598 214.56 66.7776C214.32 66.5364 214.32 66.0542 213.84 65.572ZM222.96 83.6561C222.96 84.1383 222 84.8617 221.28 85.585C221.04 85.8262 220.32 85.585 220.08 85.3439C218.88 83.4149 217.2 82.9327 215.28 84.1383C215.04 84.3794 214.8 84.1383 214.8 83.8972C214.8 83.6561 214.56 82.9327 214.56 82.9327C215.04 82.6916 215.76 82.4505 216.24 82.2093C217.44 82.9327 218.4 83.6561 219.12 81.7271C219.36 81.0037 219.84 81.486 219.84 81.7271C220.32 83.4149 222.72 81.9682 222.96 83.6561ZM222.48 68.4654C222.24 68.7065 221.76 69.1888 221.28 68.7065C219.84 67.5009 221.04 66.2953 221.52 64.6075C222.24 66.0542 223.2 67.0187 222.48 68.4654ZM223.68 59.785C223.2 60.0262 222 59.0617 222.24 60.5084C222.24 60.7495 221.52 61.2318 221.04 61.2318C220.32 61.2318 220.56 60.5084 220.56 60.0262C220.32 56.8916 221.52 56.4093 225.6 57.3738C225.84 59.0617 221.76 56.4093 223.68 59.785C226.08 60.7495 223.92 62.1963 223.92 63.8841C222.96 62.1963 223.68 60.9907 223.68 59.785ZM225.12 73.529C224.4 72.0822 225.6 70.8766 225.12 69.9121C226.56 70.8766 225.84 72.0822 225.12 73.529ZM230.4 73.2878C230.4 73.529 229.68 73.529 229.68 73.529C228.96 72.5645 228.48 71.6 228.96 70.1533C228.96 70.1533 229.2 70.1533 229.2 70.3944C229.44 71.3589 230.88 71.8411 230.4 73.2878ZM232.56 68.4654C231.84 68.9477 230.64 68.7065 230.16 68.2243C229.2 67.2598 228 67.5009 225.84 67.5009C227.28 66.2953 228.24 65.8131 227.04 64.3663C226.8 63.8841 226.8 61.4729 228.24 60.7495C229.2 60.0262 230.16 61.4729 231.6 61.2318C232.8 60.9907 234.24 61.9551 235.44 60.9907C235.92 60.7495 236.16 60.7495 236.16 61.2318C236.16 61.714 236.64 62.4374 235.92 62.6785C235.68 62.6785 235.44 62.4374 235.2 62.4374C233.28 62.6785 231.84 64.6075 232.56 66.2953C233.04 67.0187 233.28 67.9832 232.56 68.4654ZM234.48 67.7421C234 67.9832 233.52 67.9832 233.28 67.5009C233.28 67.2598 233.28 66.7776 233.52 66.7776C234.96 66.0542 236.64 65.8131 238.08 66.5364C239.04 67.2598 238.08 68.2243 237.36 68.9477C236.88 67.0187 235.68 67.2598 234.48 67.7421ZM239.76 72.5645C238.8 72.8056 238.8 74.4935 237.6 74.4935C236.16 74.4935 235.44 73.7701 235.68 71.3589C236.64 73.7701 238.08 70.3944 239.04 72.0822C240.24 70.1533 239.52 72.3234 239.76 72.5645ZM242.88 82.2093C242.88 82.4505 242.16 82.4505 242.16 82.4505C241.68 81.7271 240.72 80.7626 242.16 79.0748C242.4 80.5215 243.6 81.0037 242.88 82.2093ZM244.08 78.8336C248.4 77.628 248.88 77.8692 248.88 80.7626C247.68 79.0748 246 79.0748 244.08 78.8336ZM247.2 63.1607C245.52 63.1607 246.48 65.572 245.04 65.572C245.28 66.2953 246 66.2953 246.48 66.5364C247.92 66.7776 247.68 67.9832 247.2 68.9477C246.24 70.8766 245.28 69.9121 244.32 69.1888C243.84 69.1888 243.36 69.4299 242.88 69.4299C242.4 69.1888 241.44 70.6355 241.2 69.1888C241.2 68.9477 240.72 68.7065 241.2 68.2243C242.16 67.2598 242.16 68.4654 242.64 68.7065C243.36 69.1888 243.6 68.4654 244.08 68.2243C243.6 66.7776 242.4 67.2598 241.44 67.0187C240.72 67.0187 239.76 67.5009 239.52 66.5364C239.28 66.2953 239.52 65.3308 239.76 65.0897C240.48 64.6075 240.96 65.8131 241.68 65.3308C241.2 63.8841 241.92 60.9907 239.04 63.643C238.56 64.1252 237.84 63.8841 237.36 63.643C237.12 63.4019 236.64 63.1607 237.12 62.6785C237.6 61.714 238.08 62.4374 238.32 62.6785C239.28 60.0262 243.6 63.1607 243.84 59.5439C243.84 59.0617 244.8 59.5439 245.04 60.0262C245.28 61.2318 246.48 61.2318 246.96 61.714C247.68 62.4374 249.12 61.4729 249.12 62.6785C249.12 63.643 247.92 63.1607 247.2 63.1607ZM250.32 87.0318C249.36 87.0318 249.6 86.0673 249.6 85.585C249.6 85.1028 249.6 84.6206 250.56 84.8617C251.04 85.1028 251.52 85.585 251.28 86.3084C251.28 86.7906 250.8 87.0318 250.32 87.0318ZM252 70.6355C251.76 68.7065 251.52 67.2598 248.88 67.5009C252.96 66.0542 253.44 66.0542 254.88 68.4654C253.44 68.2243 252 68.2243 252 70.6355ZM252.96 74.0112C253.68 73.529 253.68 72.0822 254.64 72.0822C254.88 72.0822 255.12 72.8056 255.12 73.0467C254.88 74.0112 254.4 74.4935 252.96 74.0112ZM262.08 68.9477C261.6 67.9832 259.92 68.7065 258.96 68.7065C258.72 68.7065 258.96 70.6355 258.24 68.9477C258 68.2243 257.76 67.7421 258.72 67.5009C258.96 67.5009 259.44 67.5009 259.92 67.7421C260.88 67.9832 261.36 67.5009 262.08 67.2598C261.12 66.7776 261.6 65.572 261.12 65.3308C259.44 64.8486 259.68 64.1252 260.64 63.4019C261.36 62.6785 262.56 61.2318 263.52 62.9196C264 63.643 264.72 64.1252 265.44 64.3663C264.48 64.8486 263.04 64.1252 262.8 65.3308C262.56 66.0542 263.52 66.7776 264 67.2598C264.48 67.9832 266.4 68.7065 265.2 69.9121C264 70.6355 262.8 70.6355 262.08 68.9477ZM265.44 80.0392C264.24 80.0392 263.76 81.7271 262.56 81.0037C262.32 81.0037 262.32 80.2804 262.32 80.2804C263.52 79.557 264.72 79.0748 266.16 79.557C265.68 79.7981 265.68 80.0392 265.44 80.0392ZM268.8 72.3234C270.24 71.8411 271.68 71.8411 272.64 73.2878C270.72 74.4935 270.24 71.3589 268.8 72.3234ZM290.64 82.6916C290.16 79.7981 289.92 80.0392 292.8 80.5215C293.76 80.7626 294.96 80.7626 295.68 81.2449C294.48 83.6561 292.08 80.2804 290.64 82.6916ZM302.4 76.6635C302.88 73.2878 304.56 74.7346 306.24 75.2168C305.04 76.4224 303.6 75.4579 302.4 76.6635ZM306 90.8897C306 91.1308 305.04 91.1308 304.8 90.6486C304.32 89.6841 304.32 88.2374 305.28 87.7551C306.48 87.2729 306.96 87.2729 306 85.585C307.2 87.0318 307.44 89.2019 310.08 87.9963C308.88 89.9252 306.48 88.7196 306 90.8897ZM310.8 83.1738C310.56 83.1738 309.84 82.6916 310.08 82.2093C310.08 81.486 310.08 80.5215 311.28 80.5215C312.72 80.5215 310.8 81.7271 311.76 81.7271C312 82.6916 311.28 83.1738 310.8 83.1738ZM318 70.1533C318.48 70.8766 318.96 71.3589 317.76 71.3589C317.04 71.3589 316.8 70.8766 316.8 70.1533C316.56 69.1888 317.52 68.9477 318 68.9477C319.68 69.1888 317.28 69.9121 318 70.1533ZM333.6 69.1888C333.6 69.4299 333.36 70.1533 333.36 70.1533C331.92 69.9121 331.44 68.4654 330 67.5009C331.44 67.7421 333.12 67.2598 333.6 69.1888ZM324.48 83.1738C324.24 82.9327 324.48 82.4505 324.72 82.4505C325.92 82.2093 326.64 83.1738 327.6 83.6561C326.4 84.6206 325.44 83.6561 324.48 83.1738ZM329.04 72.0822C328.56 71.3589 326.4 72.0822 327.84 69.9121C328.08 69.671 326.4 68.9477 325.44 68.4654C326.88 68.7065 328.56 66.7776 329.28 69.671C329.76 71.3589 331.92 71.8411 333.36 72.8056C334.32 73.2878 335.28 73.7701 335.28 75.2168C333.6 73.0467 330.48 74.4935 329.04 72.0822ZM349.68 72.8056C349.68 73.529 349.2 74.0112 348.72 73.529C348.24 72.8056 346.8 73.529 346.8 72.3234C346.8 71.8411 347.28 71.1178 347.76 71.6C348.48 72.0822 349.92 71.3589 349.68 72.8056ZM365.76 86.7906C364.08 85.8262 361.92 87.0318 360.48 85.8262C359.76 86.7906 361.2 87.7551 360 88.4785C359.28 88.7196 359.28 87.7551 358.8 87.2729C357.84 86.3084 358.56 86.0673 359.28 85.3439C361.44 83.6561 363.84 83.8972 366 84.1383C366.48 84.1383 367.68 84.3794 367.44 85.1028C367.44 86.0673 366.48 87.2729 365.76 86.7906ZM381.36 88.9607C381.84 87.514 382.08 86.5495 382.56 85.8262C384.72 87.514 387.12 83.6561 389.28 86.3084C387.12 88.4785 384 87.2729 381.36 88.9607ZM394.08 71.6C391.2 72.3234 388.56 74.0112 386.64 75.4579C384.48 75.4579 382.56 73.529 381.36 76.1813C381.12 76.4224 379.92 75.9402 379.44 75.2168C378.96 74.2523 379.92 74.4935 380.4 74.2523C382.08 72.5645 384 73.7701 385.68 73.529C388.56 73.2879 390.72 71.3589 393.6 70.8766C393.84 70.8766 394.08 70.1533 394.32 70.6355C394.08 70.8766 394.08 71.6 394.08 71.6ZM402.96 86.7906C402.24 87.2729 402.24 85.8262 401.52 85.3439C401.76 88.9607 398.64 87.7551 396.48 88.4785C397.44 85.585 400.32 86.7906 401.52 85.3439C401.52 85.3439 401.52 85.3439 401.52 85.1028C401.52 83.8972 402.72 84.1383 403.68 83.4149C403.2 85.1028 403.92 86.3084 402.96 86.7906ZM424.08 95.2299C425.76 94.0243 426.72 94.5065 427.92 94.9888C426.96 95.7121 425.76 95.7122 424.08 95.2299ZM460.08 72.8056C460.8 73.0467 460.56 73.529 459.12 73.7701C458.64 73.7701 458.4 74.7346 457.44 74.0112C458.16 72.8056 458.88 72.3234 460.08 72.8056ZM454.32 80.0392C450 81.2449 445.68 80.2804 441.6 80.5215C445.92 80.2804 450 78.5925 454.32 80.0392ZM444.24 87.9963C444.96 87.514 445.44 88.2374 445.44 88.7196C445.44 90.1664 444.24 89.9252 443.28 89.6841C442.56 90.1664 441.6 90.1664 441.6 89.443C441.6 87.514 443.28 88.4785 444.24 87.9963ZM435.6 95.471C439.92 94.2654 444.24 94.7477 448.56 94.5065C444.48 94.7477 440.16 96.4355 435.6 95.471ZM445.2 97.1589C447.12 95.471 448.56 96.4355 450 97.1589C448.32 97.1589 446.88 97.1589 445.2 97.1589ZM445.92 88.4785C447.6 87.7551 448.8 88.2374 450.24 88.2374C449.04 88.7196 447.84 89.9252 445.92 88.4785ZM454.32 84.6206C450.96 84.6206 447.6 84.6206 444 84.6206C443.52 84.6206 443.04 84.6206 442.56 84.6206C446.64 84.6206 450.24 83.4149 454.08 82.9327C454.56 82.9327 455.52 82.4505 455.52 83.6561C455.52 84.1383 455.04 84.6206 454.32 84.6206ZM456.48 97.4C456.24 93.542 456.72 93.0598 460.8 92.3364C458.4 93.3009 459.36 96.9177 456.48 97.4ZM456.24 89.6841C457.2 87.9963 458.64 89.2019 460.32 87.9963C459.36 91.1308 457.92 89.9252 456.24 89.6841ZM455.76 76.9047C457.68 75.6991 459.12 77.1458 461.04 77.1458C459.12 78.5925 457.68 78.3514 455.76 76.9047ZM469.92 77.8692C468.96 78.1103 467.76 79.557 466.32 78.3514C467.28 76.6636 468.96 77.8692 469.92 77.8692ZM469.2 80.7626C469.68 81.0037 469.44 81.486 469.2 81.7271C468.24 82.9327 467.28 80.7626 466.32 81.7271C467.28 80.5215 468.24 80.2804 469.2 80.7626ZM470.16 84.8617C468.24 86.5495 466.08 87.2729 463.68 88.2374C463.92 86.5495 467.28 86.5495 464.88 84.6206C464.88 84.6206 464.88 84.1383 465.12 84.1383C466.32 83.4149 467.04 84.3794 467.76 84.8617C469.44 85.3439 466.32 81.9682 468.96 83.4149C469.44 83.6561 470.16 82.4505 470.4 83.6561C470.88 84.1383 470.64 84.6206 470.16 84.8617ZM476.64 74.0112C476.64 73.7701 477.36 73.529 477.6 73.7701C478.8 74.2523 477.84 75.2168 478.08 75.9402C477.36 75.2168 476.16 75.2168 476.64 74.0112ZM475.44 81.7271C476.4 79.3159 477.6 77.8692 479.04 76.9047C479.04 78.8336 477.36 79.7981 475.44 81.7271ZM486 75.4579C485.76 75.9402 486 76.9047 485.04 76.6635C484.56 76.6635 484.32 75.9402 483.84 75.4579C484.32 74.9757 484.8 74.4935 485.28 74.0112C485.76 74.7346 486.48 74.7346 486 75.4579ZM502.56 94.2654C502.08 94.7477 501.6 94.5065 501.12 94.0243C500.4 93.3009 499.44 92.5776 498.48 91.8542C500.4 91.1308 500.88 92.5776 502.08 92.8187C502.56 93.0598 503.04 93.5421 502.56 94.2654ZM510.24 93.7832C509.28 93.0598 508.32 92.5776 508.08 91.1308C508.56 91.1308 508.56 90.8897 508.56 90.8897C509.52 91.372 510.48 92.0953 510.72 93.0598C510.96 93.3009 510.24 93.7832 510.24 93.7832ZM516 100.052C516 100.293 515.52 100.052 515.28 100.293C515.28 99.0878 512.88 99.329 513.6 97.6411C513.6 97.4 513.36 97.1589 513.12 96.6766C513.12 96.4355 513.36 96.4355 513.36 96.1944C513.84 96.4355 514.56 96.9177 514.8 97.4C515.28 98.1234 516.72 98.6056 516 100.052ZM515.52 87.9963C514.32 87.9963 513.6 87.0318 512.88 86.3084C512.64 86.0673 513.84 85.585 514.56 85.1028C515.28 85.8262 516.72 85.585 516.96 87.0318C516.48 87.514 516.24 88.2374 515.52 87.9963ZM526.08 81.7271C525.6 82.2093 524.64 82.6916 524.16 82.4505C522.48 81.0037 520.8 82.2093 519.12 81.9682C516.72 83.1738 516.96 80.7626 515.52 79.7981C517.68 79.557 517.68 81.7271 519.12 81.9682C519.36 81.486 518.64 80.2804 520.32 81.0037C521.76 81.7271 521.04 80.0392 521.28 79.557C521.52 78.8336 520.8 77.628 522.24 77.628C523.2 77.628 524.16 77.8692 524.4 79.0748C524.4 79.557 525.6 80.2804 525.36 80.7626C525.12 81.486 527.04 80.7626 526.08 81.7271ZM531.36 76.1813C532.56 75.4579 533.76 75.9402 535.2 75.9402C534.72 76.1813 534.72 76.4224 534.72 76.4224C533.52 75.9402 532.56 77.628 531.36 76.9047C531.12 76.6635 531.12 76.4224 531.36 76.1813ZM529.68 98.1234C529.2 99.0879 529.92 100.293 528.48 100.052C527.28 100.052 527.28 99.0879 527.52 98.1234C527.76 97.4 527.28 96.1944 528.72 96.4355C529.68 96.9178 530.16 97.6411 529.68 98.1234ZM532.08 94.9888C531.6 93.7832 530.4 95.471 529.92 94.5065C529.68 93.7832 528 94.5065 528.24 93.0598C528.24 92.0953 528.96 92.3364 528.96 92.5776C529.2 93.5421 530.16 92.5776 530.4 93.0598C530.88 93.5421 532.08 92.8187 532.08 94.0243C532.32 94.2654 532.32 94.5065 532.08 94.9888ZM531.36 84.1383C533.28 84.1383 535.2 83.8972 536.64 82.4505C535.92 85.3439 534.24 85.8262 531.36 84.1383ZM534.96 89.9252C535.44 90.4075 535.68 89.9252 536.16 89.9252C535.92 90.8897 535.68 91.8542 535.44 92.5776C534.72 91.8542 534.24 90.8897 534.96 89.9252ZM537.6 101.499C536.16 101.981 536.4 100.293 535.2 100.052C536.4 99.5701 537.12 99.5701 537.84 100.535C538.08 100.776 538.08 101.258 537.6 101.499ZM535.68 94.5065C535.68 94.5065 535.44 93.7832 535.68 93.7832C536.88 93.0598 537.84 94.0243 539.28 93.7832C538.08 95.471 536.88 94.7477 535.68 94.5065ZM540.48 88.9607C542.64 90.4075 542.4 93.3009 543.6 95.471C541.44 93.7832 541.44 91.1308 540.48 88.9607ZM547.44 79.557C548.16 80.7626 548.88 81.7271 549.12 83.1738C547.92 82.2093 546.72 81.2449 547.44 79.557ZM554.16 91.8542C553.92 92.5776 553.44 93.3009 553.92 94.0243C555.36 96.6766 553.2 94.7477 552.72 94.9888C552.48 95.2299 553.2 96.4355 552 95.7121C551.28 95.2299 550.32 93.7832 550.8 96.1944C551.04 96.9178 550.32 96.4355 550.08 96.1944C549.36 95.471 548.64 94.5065 548.64 93.5421C548.64 93.0598 549.36 93.0598 549.84 93.0598C551.04 93.0598 552.24 92.8187 552.24 94.5065C552.24 94.5065 552.48 94.7477 552.72 94.7477C552.96 93.0598 553.2 91.372 553.44 89.6841C554.64 90.1664 554.4 91.1308 554.16 91.8542ZM571.68 75.6991C572.64 76.9047 573.6 77.8692 573.6 79.557C573.12 78.1103 571.2 77.628 571.68 75.6991ZM571.44 80.2804C572.16 81.0037 573.84 79.557 574.08 81.0037C574.08 81.486 574.08 82.6916 573.36 83.8972C572.88 82.2093 571.2 81.9682 571.44 80.2804ZM557.28 86.7906C557.28 85.8262 555.84 86.0673 555.84 84.8617C555.84 84.6206 556.08 83.8972 556.32 84.1383C557.04 84.6206 557.52 85.3439 558 86.0673C558 86.3084 557.52 86.5495 557.28 86.7906ZM560.64 87.7551C559.68 88.4785 559.92 87.2729 559.68 87.0318C558.24 85.585 558.72 82.6916 556.08 81.9682C557.52 81.486 558.96 80.5215 558.96 83.4149C558.96 84.6206 559.68 85.8262 560.64 86.5495C561.36 86.7906 561.12 87.2729 560.64 87.7551ZM563.28 83.1738C562.8 82.6916 562.08 82.2094 562.08 81.2449C562.08 79.7981 562.8 78.1103 560.16 77.628C559.44 77.3869 560.64 74.9757 559.68 73.529C562.56 75.9402 562.08 80.0392 564.72 82.2093C564.96 82.4505 564.72 82.9327 564.72 83.1738C564.72 82.2093 563.76 83.4149 563.28 83.1738ZM567.36 91.1308C565.44 89.2019 564.24 87.2729 565.92 84.3794C566.64 86.3084 569.04 87.514 568.32 89.9252C570 89.6841 570.24 91.372 570.48 92.0953C570.72 93.3009 571.2 94.2654 572.16 94.9888C569.04 95.9533 569.04 95.9533 567.36 91.1308ZM574.32 100.776C573.84 100.776 571.44 97.4 571.68 96.9178C571.68 96.6766 572.16 96.6766 572.64 96.6766C573.36 97.6411 574.08 98.8467 574.8 100.052C575.04 100.293 574.8 100.776 574.32 100.776ZM573.84 97.4C573.6 89.443 568.56 84.1383 565.68 77.8692C564.96 76.4224 564.48 74.9757 564.24 73.2878C568.8 81.2449 573.36 89.443 577.92 97.4C575.52 94.9888 575.28 94.9888 573.84 97.4ZM583.68 93.7832C583.2 91.8542 582 91.8542 580.56 92.0953C578.16 92.5776 577.92 92.0953 577.44 89.443C578.4 90.4075 579.6 92.3364 580.08 89.443C580.32 88.7196 580.8 88.4785 581.28 89.443C581.28 89.6841 581.52 89.9252 581.76 89.9252C584.4 90.8897 584.4 90.8897 583.68 93.7832ZM583.92 84.3794C584.16 85.8262 584.4 87.2729 584.64 88.7196C582.96 87.2729 583.44 85.8262 583.92 84.3794ZM585.12 81.0037C584.4 82.9327 581.76 84.1383 580.08 83.4149C579.6 83.1738 579.6 82.6916 579.6 82.4505C582.96 81.0037 581.28 78.8336 580.8 76.6635C580.8 76.4224 580.8 76.4224 581.04 75.9402C582.48 76.6636 582.72 78.1103 583.2 78.8336C583.44 79.3159 583.44 81.0037 584.88 80.0392C585.12 80.0392 585.36 80.5215 585.12 81.0037ZM587.28 79.3159C585.84 79.0748 586.56 78.1103 586.32 76.9047C587.28 77.3869 588.24 77.628 588 78.8336C588 79.3159 587.76 79.557 587.28 79.3159ZM589.2 89.443C589.2 89.6841 588.72 89.6841 588.48 89.9252C588 88.7196 587.04 87.7551 587.76 86.3084C589.2 86.7906 589.44 87.9963 589.2 89.443ZM593.28 96.9178C592.56 97.6411 592.08 96.9178 591.6 96.4355C590.88 95.7122 591.36 95.471 591.84 94.9888C593.52 93.3009 591.84 91.6131 591.84 89.6841C591.84 88.4785 591.36 87.0318 591.12 85.585C590.4 83.6561 589.92 81.486 589.92 79.3159C590.88 81.2449 592.08 83.1738 591.12 85.585C593.04 86.3084 592.32 88.4785 592.32 89.443C592.08 91.6131 594.48 93.0598 593.28 95.2299C595.68 96.4355 593.52 96.9178 593.28 96.9178ZM598.08 76.1813C598.56 78.1103 599.76 79.0748 598.8 80.5215C597.36 79.3159 598.08 78.1103 598.08 76.1813ZM598.32 97.6411C597.36 97.6411 598.08 96.6766 597.84 95.9533C598.32 95.471 597.12 94.2654 598.56 94.0243C600 94.0243 598.8 95.471 599.52 95.7121C599.28 96.6766 599.52 97.8822 598.32 97.6411ZM603.36 82.4505C603.36 81.2449 603.6 81.2449 604.32 81.9682C603.84 80.2804 604.08 78.8336 604.56 77.1458C604.32 78.8336 606.24 80.5215 604.32 81.9682C604.32 81.9682 604.32 81.9682 604.32 82.2093C604.56 83.8972 605.52 83.1738 606.24 82.6916C606.72 84.8617 604.08 83.6561 603.84 85.8262C603.84 84.1383 603.6 83.1738 603.36 82.4505ZM605.52 94.5065C605.52 94.5065 605.28 94.9888 605.04 94.9888C604.8 94.9888 604.32 94.7477 604.32 94.7477C604.56 93.7832 603.6 93.0598 604.32 92.0953C605.04 90.8897 605.76 91.372 606.96 91.372C606 92.3364 604.08 92.8187 605.52 94.5065ZM610.32 91.8542C610.08 90.8897 610.8 89.9252 609.6 88.9607C608.64 88.2374 610.08 87.9963 610.56 87.7551C611.76 87.0318 611.04 88.2374 611.04 88.4785C612 89.9252 611.76 92.0953 613.44 93.5421C611.52 94.2654 611.04 93.5421 610.32 91.8542ZM618.48 96.9178C618.24 96.9178 617.76 96.6766 617.52 96.4355C617.28 95.471 618.24 95.2299 618.96 94.7477C619.44 95.7121 619.68 96.6766 618.48 96.9178ZM630.48 94.0243C629.52 94.2654 628.56 94.5065 628.08 93.5421C627.84 93.3009 627.84 92.5776 628.32 92.3364C629.04 92.0953 629.04 93.0598 629.52 93.0598C630 91.6131 629.28 90.6486 630 89.443C630.96 90.6486 629.28 92.5776 631.2 93.5421C631.44 93.5421 630.72 93.7832 630.48 94.0243ZM635.04 102.946C633.84 101.258 635.04 99.329 633.84 97.8822C633.6 97.6411 634.08 97.1589 634.56 97.1589C635.28 97.1589 635.76 97.4 635.52 98.1234C635.28 99.8112 635.76 101.258 635.04 102.946ZM636.96 82.2093C637.92 81.486 638.64 82.6916 638.16 83.1738C637.68 83.6561 638.16 84.6206 637.44 84.8617C637.2 84.1383 635.76 83.1738 636.96 82.2093ZM637.68 102.222C637.44 102.464 637.2 102.464 636.96 102.222C636.24 101.499 636.48 100.776 636.72 99.8112C636.96 99.0878 637.2 98.6056 637.68 97.6411C638.88 98.6056 637.92 99.329 638.16 100.052C638.4 101.017 638.4 101.74 637.68 102.222ZM639.84 97.1589C638.4 95.9533 637.44 94.7477 639.12 93.0598C639.12 94.5065 640.8 95.7121 639.84 97.1589ZM646.8 94.7477C646.08 94.2654 645.12 94.2654 644.16 94.2654C643.44 95.471 645.6 96.9178 643.68 98.3645C643.2 95.9533 643.2 94.0243 644.4 92.0953C645.6 92.3364 644.64 95.2299 646.8 93.5421C647.28 93.3009 648 93.7832 647.76 94.2654C647.76 94.7477 647.52 94.9888 646.8 94.7477ZM647.28 92.0953C646.56 91.8542 646.8 91.6131 646.8 91.372C647.04 90.4075 646.32 89.2019 647.28 87.9963C647.28 87.9963 648 87.9963 648 88.2374C648.24 89.6841 648.24 91.1308 647.28 92.0953ZM648.72 85.1028C648.24 85.1028 648 84.8617 648 84.3794C648 83.6561 648.24 82.9327 648.96 82.6916C649.2 82.6916 650.4 82.6916 650.16 83.4149C650.16 84.1383 649.2 84.6206 648.72 85.1028ZM651.36 94.7477C651.12 95.2299 650.88 95.2299 650.16 95.2299C648.24 94.7477 649.92 93.3009 649.44 92.5776C650.16 93.3009 652.08 93.0598 651.36 94.7477ZM652.08 85.8262C651.36 84.3794 651.6 82.6916 651.12 81.0037C652.56 82.2093 653.04 83.8972 652.08 85.8262ZM658.32 103.669C658.08 103.428 657.84 103.428 657.6 103.187C657.12 101.981 657.84 101.017 658.8 100.535C659.52 101.74 658.56 102.705 658.32 103.669ZM662.16 95.9533C661.2 95.471 662.64 93.3009 660.48 94.2654C659.76 94.5065 659.28 93.3009 659.52 92.5776C659.76 91.8542 660.48 91.372 661.2 91.6131C662.16 91.8542 662.88 92.3364 663.36 93.5421C663.84 95.2299 662.64 95.2299 662.16 95.9533ZM667.2 92.0953C665.76 93.3009 666.96 94.7477 666.48 95.9533C665.76 94.5065 665.76 93.0598 666 91.6131C666 90.8897 666.48 90.8897 666.96 90.8897C667.2 90.8897 667.68 91.1308 667.68 91.1308C667.68 91.6131 667.44 91.8542 667.2 92.0953ZM677.28 79.3159C677.28 79.557 676.8 80.2804 676.8 80.2804C676.08 79.7981 675.12 79.557 674.4 79.0748C675.36 79.557 676.8 78.1103 677.28 79.3159ZM671.76 82.6916C671.04 84.6206 671.04 86.3084 672.24 87.7551C672.48 87.9963 672.24 88.4785 672 88.4785C671.76 88.4785 671.28 88.4785 671.04 88.2374C670.08 87.7551 670.56 83.6561 671.76 82.6916ZM671.52 101.981C671.04 101.981 670.56 101.499 670.56 101.017C670.56 100.293 671.28 100.052 672 100.052C672.72 100.052 672.96 100.535 672.96 101.258C672.96 101.981 672 101.74 671.52 101.981ZM673.44 102.222C673.68 100.535 674.16 99.329 675.36 98.8467C675.6 98.6056 676.32 99.329 676.32 99.5701C675.84 100.776 674.88 101.499 673.44 102.222ZM675.36 95.2299C674.64 95.471 675.36 96.9178 674.88 97.6411C673.92 97.1589 672.72 97.1589 672.24 96.1944C672 95.7121 671.52 95.471 671.28 95.7121C669.84 97.4 669.84 95.9533 669.84 94.9888C669.6 94.2654 669.6 93.5421 669.36 92.8187C671.52 94.7477 674.16 94.0243 675.6 91.372C675.84 90.8897 676.56 90.4075 677.04 90.4075C677.52 90.4075 677.28 91.1308 677.52 91.6131C678.48 92.8187 677.76 94.2654 677.76 95.2299C678 96.4355 677.76 97.8822 678 99.329C676.32 98.6056 677.76 96.1944 675.36 95.2299ZM684 95.9533C683.76 96.4355 683.28 97.1589 683.04 96.6766C682.08 95.471 678.72 95.9533 680.16 93.0598C680.88 93.3009 681.12 93.7832 681.36 94.5065C682.08 93.7832 681.36 92.8187 682.32 92.3364C682.56 92.3364 682.8 92.3364 682.8 92.3364C682.32 93.7832 685.2 93.7832 684 95.9533ZM688.56 74.7346C689.76 75.2168 690.72 75.9402 691.68 77.1458C690.48 76.9047 689.04 77.1458 688.32 75.6991C688.08 75.4579 688.56 74.4935 688.56 74.7346ZM688.32 87.9963C688.56 87.7551 688.8 87.514 689.04 87.7551C690 88.4785 689.52 89.443 689.28 89.9252C689.04 89.2019 687.6 88.9607 688.32 87.9963ZM689.76 102.946C689.04 103.91 688.56 102.705 688.08 102.705C686.64 102.222 687.36 101.981 688.08 101.258C688.56 100.776 687.6 99.5701 688.08 98.6056C689.28 98.8467 689.52 100.052 690 100.776C690.72 101.74 690.24 102.222 689.76 102.946ZM695.52 97.8822C693.84 98.6056 694.56 97.1589 694.56 96.4355C694.56 96.1944 694.08 95.7121 693.84 95.7121C692.64 95.9533 693.84 97.1589 692.88 97.6411C692.16 97.1589 690.96 96.4355 691.68 94.9888C692.16 94.2654 691.44 94.5065 690.96 94.5065C690.48 94.5065 690.96 95.7122 690.24 95.2299C690 94.9888 689.76 93.7832 690.48 93.3009C690.96 93.0598 691.44 92.3364 691.68 93.3009C691.92 93.7832 692.16 94.2654 692.64 94.5065C693.84 93.5421 691.92 92.8187 692.64 91.8542C693.84 92.8187 694.08 94.5065 695.52 95.471C696.24 95.471 696.48 97.4 695.52 97.8822ZM696.96 87.0318C696.48 86.3084 695.28 85.8262 695.52 84.8617C695.52 84.6206 696.24 84.6206 696.48 84.6206C697.68 85.1028 696.72 86.3084 696.96 87.0318ZM716.16 82.9327C716.88 81.9682 717.84 82.4505 719.04 82.4505C718.08 83.4149 718.08 84.6206 716.64 83.6561C716.4 83.4149 715.92 83.1738 716.16 82.9327ZM699.36 97.8822C700.56 99.0878 701.04 100.052 699.36 101.499C699.36 100.052 699.36 99.0878 699.36 97.8822ZM699.12 105.839C699.6 106.321 700.32 107.286 701.28 107.045C702.48 106.804 702.48 107.768 702.48 108.25C702.72 109.697 703.68 110.421 704.88 111.144C702 110.179 700.08 108.492 699.12 105.839ZM704.4 102.946C703.68 102.464 702.96 101.74 702.24 101.017C702.24 101.017 702.48 100.293 702.72 100.293C704.16 100.052 703.92 101.981 705.84 102.222C704.88 102.705 704.4 102.946 704.4 102.946ZM706.32 95.471V94.7477C707.52 94.0243 708.48 94.7477 709.44 95.471C708.48 96.4355 707.28 95.9533 706.32 95.471ZM710.16 77.8692C711.84 78.5925 713.28 78.5925 714 80.5215C712.32 80.0392 711.12 79.7981 710.16 77.8692ZM711.12 94.7477C714.24 97.4 716.88 100.776 719.76 103.669C716.4 101.258 713.52 98.3645 711.12 94.7477ZM722.4 95.7121C722.16 95.9533 721.2 96.1944 720.96 95.9533C720.24 94.9888 718.56 95.2299 718.56 93.5421C720 93.3009 720.96 93.5421 722.16 94.5065C722.64 94.9888 722.64 95.471 722.4 95.7121ZM725.04 74.7346C725.04 75.6991 726.96 75.2168 726.48 76.6635C726.48 76.9047 726 77.1458 725.76 77.1458C724.56 76.9047 724.8 75.9402 725.04 74.7346ZM725.52 92.8187C725.04 94.7477 726.96 95.9533 726.96 98.1234C725.04 96.4355 725.28 94.7477 725.52 92.8187ZM729.6 87.9963C727.92 86.0673 729.36 85.585 730.32 84.6206C730.8 86.0673 729.6 86.7906 729.6 87.9963ZM874.08 116.817C874.32 117.058 874.56 117.058 874.8 117.299C874.56 117.299 874.32 117.299 874.08 116.817Z" fill="#211B16"/>
<path d="M0 87.9963C0 88.9608 0 89.9252 0 90.8897C1.92 90.8897 3.84 89.9252 5.76 91.372C6.72 92.0953 6.72 91.6131 7.44 90.8897C8.88 89.6841 10.56 88.7196 12.72 88.9608C8.64 88.4785 4.32 87.2729 0 87.9963Z" fill="#211B16"/>
<path d="M260.4 99.329C258.24 98.8467 256.08 100.776 254.16 99.8112C252.24 98.8467 249.84 100.535 248.16 98.8467C248.16 99.329 246 98.6056 247.68 100.052C248.4 101.017 246.48 100.776 246 101.258C245.52 101.74 245.04 101.258 245.04 100.535C245.04 100.052 245.28 99.329 244.08 99.329C244.08 100.776 243.6 102.222 244.32 103.187C244.56 103.669 246.72 104.151 247.2 102.222C247.44 102.464 247.92 102.705 247.92 102.464C250.08 101.258 252 104.875 254.4 102.946L254.64 103.187C255.84 101.74 256.56 103.669 258 103.428C259.92 103.187 262.08 101.74 264 103.669C264.48 104.151 264.72 103.428 265.2 103.187C265.68 103.187 266.4 102.946 266.4 103.669C266.64 105.357 267.12 104.875 267.84 104.151C268.56 103.428 269.28 103.91 270 103.669C271.92 102.705 274.08 104.151 275.76 103.187C274.08 102.946 273.12 101.017 271.44 100.776C267.84 100.293 264 100.052 260.4 99.329Z" fill="#211B16"/>
<path d="M306.959 102.464C304.319 101.258 302.399 102.705 299.999 102.705C298.559 102.705 296.879 103.187 297.599 100.535C297.839 99.5701 296.879 99.329 295.919 99.329C294.719 99.329 294.959 99.8112 295.199 100.535C295.679 101.74 294.719 101.981 293.999 101.499C293.039 100.776 292.319 101.499 291.359 101.017C291.359 101.981 292.799 102.222 292.319 102.946C291.599 103.91 290.879 102.946 290.159 102.705C289.439 102.464 288.719 102.464 287.999 102.222C287.039 101.981 287.279 101.017 286.319 101.017C284.879 101.017 286.559 102.464 285.599 102.464C285.359 102.464 285.119 102.464 285.119 102.222C284.159 101.017 284.159 101.017 282.24 101.499C282.24 102.222 283.919 102.222 283.439 103.428C287.999 105.839 293.039 103.428 297.599 105.598C297.839 105.598 298.079 105.598 298.079 105.598C299.999 103.187 301.679 105.357 303.359 105.839C303.599 105.839 304.079 106.322 304.319 106.08C306.239 104.875 307.199 105.839 308.159 107.527C308.879 106.563 307.919 106.08 308.399 105.116C309.359 103.669 308.639 103.187 306.959 102.464Z" fill="#211B16"/>
<path d="M415.441 108.974C414.481 108.974 415.441 110.179 414.961 110.662C416.161 110.179 416.641 112.108 416.881 111.626C418.081 109.938 418.561 111.144 419.521 111.867C419.761 112.108 419.761 113.073 420.721 112.591C422.401 111.626 424.321 112.35 425.761 112.108C426.241 112.832 425.041 113.555 426.001 114.279C425.761 111.385 428.401 113.314 429.361 112.35C430.321 111.385 429.361 109.938 431.761 109.456C428.161 109.215 425.281 108.974 422.881 108.25C420.001 106.804 418.081 108.733 415.441 108.974Z" fill="#211B16"/>
<path d="M366.72 106.322C365.52 107.045 364.56 107.045 364.08 105.598C364.08 105.598 363.36 104.875 362.88 105.357C360.72 107.045 358.8 105.839 356.88 104.875C355.44 104.151 354.96 104.393 354.72 105.839C354.72 106.563 354.72 107.286 353.76 107.768C353.52 104.634 349.92 107.768 349.44 104.151C348.96 106.08 348.72 106.804 348.48 107.768C350.16 107.768 350.64 109.697 352.08 110.179C353.28 110.421 353.28 109.215 353.76 108.733C355.2 111.867 356.88 108.492 356.88 108.25C358.32 106.804 358.08 108.492 358.32 108.974C357.84 109.456 357.6 109.938 358.32 110.179C358.8 110.421 359.28 110.179 359.52 109.456C360.24 108.009 361.68 107.527 363.12 108.492C364.56 109.456 365.52 107.527 366.72 108.25C366.96 107.768 367.2 107.286 367.2 107.045C367.68 106.563 366.96 106.08 366.72 106.322Z" fill="#211B16"/>
<path d="M620.88 114.279C619.2 113.796 617.52 113.555 617.04 115.725C616.08 115.484 617.28 114.037 615.36 114.279C613.44 114.52 611.04 115.484 608.88 114.037C607.44 113.073 605.52 113.796 604.32 115.725C603.84 116.449 604.56 117.413 604.8 117.172C606.96 115.484 609.36 118.378 611.28 116.69C611.76 116.207 612.96 116.207 613.68 116.931C614.88 118.619 617.28 117.654 618.72 118.86C619.44 117.413 621.84 119.101 622.08 116.931C621.6 115.966 622.08 114.761 620.88 114.279Z" fill="#211B16"/>
<path d="M638.64 115.002C637.44 114.278 636.48 116.207 635.76 115.484C634.08 113.796 632.16 114.761 630.24 114.52C625.44 114.037 624.96 114.52 626.64 119.342C626.64 119.342 626.88 119.342 627.12 119.583C627.6 118.378 629.04 116.69 629.76 117.654C630.96 119.583 632.16 118.136 633.36 118.378C636.48 119.342 639.36 116.931 642.96 118.619C641.28 116.449 639.84 115.966 638.64 115.002Z" fill="#211B16"/>
<path d="M666.719 115.966C665.519 116.69 664.799 116.207 663.599 115.484C662.639 115.002 661.439 115.484 660.479 116.207C659.999 116.449 661.199 117.895 659.759 117.413C658.559 117.172 659.759 116.207 659.519 115.725C657.839 115.966 656.399 117.172 654.479 116.207C653.519 115.725 652.799 115.243 652.56 116.69C652.32 117.172 652.08 117.413 651.6 117.413C649.68 117.654 650.16 115.484 649.2 115.002C648.24 114.761 648.48 117.895 646.8 115.966C645.36 114.278 643.919 114.52 642.24 115.243C643.2 115.725 644.4 115.484 645.36 116.207C647.76 117.895 650.399 118.619 653.039 117.654C654.719 117.172 655.44 119.101 656.4 118.619C659.76 116.931 663.359 118.86 666.719 118.136C666.959 118.136 667.439 119.101 667.679 118.378C667.919 117.654 667.919 116.69 667.679 115.725C667.439 115.725 666.959 115.725 666.719 115.966Z" fill="#211B16"/>
<path d="M23.52 88.7196C22.56 88.7196 21.6 87.7551 20.64 89.2018C19.68 90.6486 20.4 91.3719 21.36 92.5776C21.36 91.8542 21.6 91.3719 21.6 89.9252C22.32 92.8187 23.52 92.8187 25.44 92.0953C27.84 91.1308 30.24 89.6841 33.12 90.1663C35.04 90.6486 35.04 90.8897 35.52 88.7196C31.44 89.443 27.36 88.4785 23.52 88.7196Z" fill="#211B16"/>
<path d="M848.399 129.596C846.959 130.078 845.279 130.32 843.839 130.802C842.399 131.284 844.559 132.731 842.879 133.454C842.879 132.249 842.399 131.284 840.959 131.284C840.239 131.284 839.519 130.561 839.759 132.007C840.719 132.731 841.679 132.972 841.919 134.419C841.919 135.142 843.119 135.624 843.839 135.142C845.519 133.936 847.199 132.731 848.879 131.284C849.359 131.043 849.599 130.561 849.119 130.078C849.119 129.837 848.879 129.596 848.399 129.596Z" fill="#211B16"/>
<path d="M322.56 103.669C322.32 103.669 321.84 103.91 321.6 103.91C321.84 104.151 321.84 104.634 322.08 104.875C324 106.08 326.4 107.045 327.84 106.804C330.24 106.322 332.64 104.875 335.28 103.91C335.04 103.669 334.8 103.669 334.8 103.669C330.72 104.151 326.64 105.116 322.56 103.669Z" fill="#211B16"/>
<path d="M437.76 108.733C435.6 107.768 434.16 109.456 432 108.25C432.48 108.974 433.2 109.456 432.96 109.456C431.76 112.108 434.4 111.385 434.88 111.144C437.76 109.697 439.2 111.626 441.12 113.073C441.6 113.314 442.08 113.796 442.32 113.314C442.56 112.832 442.8 111.385 442.56 111.626C440.16 111.867 439.44 109.456 437.76 108.733Z" fill="#211B16"/>
<path d="M231.12 100.294C228.96 98.3645 226.32 99.0879 223.921 98.1234C223.68 98.1234 222.961 98.8468 222.961 99.0879C223.201 100.294 223.921 101.258 224.881 101.981C225.361 102.222 225.841 102.464 225.841 101.74C226.321 99.329 227.76 101.258 228 101.499C228.96 101.981 229.441 102.705 230.641 101.74C230.881 101.74 231.6 102.705 231.84 101.74C232.32 101.017 231.6 100.535 231.12 100.294Z" fill="#211B16"/>
<path d="M520.561 112.832C518.881 113.555 517.681 114.52 516.241 112.832C515.761 113.314 514.56 112.832 514.32 113.796C514.32 114.037 514.081 114.52 514.561 114.761C517.681 114.761 520.8 116.931 524.401 114.761C522.961 114.037 522.001 112.108 520.561 112.832Z" fill="#211B16"/>
<path d="M839.76 132.007C840.001 132.007 840.001 132.007 839.76 132.007V132.007Z" fill="#211B16"/>
<path d="M831.36 132.731C831.12 133.937 832.56 133.213 833.28 133.454C834.96 133.936 836.4 132.008 838.08 133.454C838.56 133.695 840 133.213 839.76 131.766C837.84 130.561 835.92 130.802 834 130.802C832.32 130.802 831.6 131.766 831.36 132.731Z" fill="#211B16"/>
<path d="M374.401 106.08C374.161 106.322 374.161 106.08 374.401 106.08C373.921 107.768 372.481 106.563 371.761 107.286C372.001 110.662 375.121 109.215 376.801 110.179C379.68 111.867 378.48 109.215 378.48 108.733C377.76 106.804 374.641 108.733 374.401 106.08Z" fill="#211B16"/>
<path d="M275.76 103.428C275.76 103.187 275.76 103.187 275.76 103.428V103.428Z" fill="#211B16"/>
<path d="M273.84 101.017C274.8 101.499 275.28 102.464 275.76 103.187C276 102.946 276 102.705 276.24 102.705C277.92 105.116 281.28 102.223 282.96 104.634C283.199 104.875 283.2 104.634 283.44 103.187C280.32 102.223 277.44 100.052 273.84 101.017Z" fill="#211B16"/>
<path d="M592.319 113.555C591.839 115.484 590.639 114.279 589.439 114.279C587.999 114.279 587.279 112.832 585.839 113.314C586.559 114.52 587.039 115.966 587.999 116.449C588.959 116.931 589.199 118.136 590.399 118.136C589.919 115.484 592.079 117.654 592.559 116.931C592.079 115.966 591.839 115.002 593.039 114.279C593.519 114.037 593.279 113.555 593.039 113.314C592.799 113.314 592.319 112.832 592.319 113.555Z" fill="#211B16"/>
<path d="M392.16 106.804C390.24 105.839 391.68 104.875 391.92 103.91C390 104.151 390.48 105.598 390.48 106.563C390.72 108.009 390.24 108.25 389.28 107.286C388.56 106.563 388.56 107.286 388.32 107.527C388.08 107.768 387.6 108.009 388.08 108.492C388.8 109.456 392.88 110.421 393.6 109.697C393.84 109.456 393.84 109.215 393.84 108.974C392.4 108.974 392.88 107.045 392.16 106.804Z" fill="#211B16"/>
<path d="M745.439 128.746C745.199 127.54 744.719 128.264 744.479 128.505C743.759 128.987 743.279 129.469 743.279 128.264C743.039 126.335 741.839 126.576 740.639 126.817C741.599 129.951 742.32 130.434 745.2 130.193C745.92 130.193 746.399 129.951 746.639 129.469C746.639 128.987 745.679 129.228 745.439 128.746Z" fill="#211B16"/>
<path d="M782.16 127.426C780 128.632 777.84 126.462 775.68 126.944C775.68 129.355 777.84 128.632 778.8 129.114C780 129.596 781.44 129.114 782.64 129.114C783.12 129.114 782.88 128.391 782.88 128.149C782.88 127.426 782.4 127.185 782.16 127.426Z" fill="#211B16"/>
<path d="M189.84 96.9178C189.6 96.4355 189.12 96.1944 187.92 95.2299C188.64 97.1589 189.12 98.3645 187.44 98.8467C186.72 99.0879 188.16 100.293 188.16 100.052C189.36 99.0879 191.28 100.535 191.76 99.5701C192.48 98.3645 190.56 97.6411 189.84 96.9178Z" fill="#211B16"/>
<path d="M893.04 128.15C893.281 127.908 893.04 127.908 893.04 128.15C893.04 127.908 893.04 127.908 893.04 128.15Z" fill="#211B16"/>
<path d="M899.52 127.426C899.04 126.944 898.56 127.426 898.32 127.908C897.84 129.114 897.359 128.873 896.64 128.15C895.44 126.944 894.24 126.944 893.04 128.15C894 128.391 895.92 127.426 895.44 129.114C895.2 130.802 895.92 130.561 896.64 130.561C897.599 130.561 898.56 130.32 899.28 130.32C899.76 129.596 898.32 129.355 898.8 128.873C899.52 128.15 900.24 127.908 899.52 127.426Z" fill="#211B16"/>
<path d="M737.28 126.335C736.8 126.093 736.08 126.576 736.32 127.299C736.56 128.746 737.76 129.951 739.2 130.434C739.92 130.675 740.64 130.434 740.16 129.228C740.4 127.058 738.24 127.058 737.28 126.335Z" fill="#211B16"/>
<path d="M92.1602 91.8542C91.2002 90.6486 90.2402 90.6486 89.2803 91.8542C88.3203 93.3009 87.8402 92.0953 86.8802 92.0953C87.8402 92.5776 88.0802 95.7121 89.7602 92.5776C90.2402 91.6131 90.9603 92.3365 91.2002 92.8187C91.4402 93.7832 91.9203 94.5065 92.8803 93.7832C94.0803 92.8187 92.6403 92.3365 92.1602 91.8542Z" fill="#211B16"/>
<path d="M792.48 126.462C793.68 127.185 794.4 128.391 796.32 127.667C797.76 127.185 798 126.462 798 125.256C796.8 127.667 794.16 124.292 792.48 126.462Z" fill="#211B16"/>
<path d="M864.96 129.837C864.48 130.079 864 130.561 864.48 131.284C864.96 131.766 865.68 132.731 865.92 132.007C867.12 130.079 868.08 132.007 869.28 132.007C868.32 129.596 866.4 128.632 864.96 129.837Z" fill="#211B16"/>
<path d="M172.08 97.1589C170.16 97.6412 168.96 97.1589 168 96.4356C167.04 95.9533 166.8 96.4356 166.56 97.1589C166.32 97.6412 166.8 98.3645 166.8 98.3645C168.24 96.6767 169.92 99.329 172.08 97.6412C172.32 98.3646 173.28 98.8468 174.24 98.3645C176.16 97.6412 174.72 95.9533 175.2 94.5066C173.52 95.23 172.08 95.7122 172.08 97.1589Z" fill="#211B16"/>
<path d="M119.04 93.542C118.8 93.0598 117.36 93.0598 116.64 93.542C116.4 93.7832 116.16 94.0243 116.4 94.5065C116.88 95.2299 117.6 95.471 118.32 95.7121C119.76 95.9532 120.72 95.471 122.16 94.7476C120.96 94.2654 119.76 94.7476 119.04 93.542Z" fill="#211B16"/>
<path d="M443.761 108.733C445.201 110.179 446.401 111.867 449.041 111.867C447.841 109.215 445.921 108.25 443.761 108.733Z" fill="#211B16"/>
<path d="M55.6794 89.443C55.4394 89.2019 55.1994 89.443 54.9594 89.443C53.0394 88.9607 53.0395 90.4075 52.7995 91.6131C52.5595 92.5776 53.7594 92.8187 53.7594 92.5776C53.9994 91.6131 57.1194 92.8187 55.4394 90.6486C55.6794 90.1664 56.3994 89.9252 55.6794 89.443Z" fill="#211B16"/>
<path d="M176.159 95.9532C175.439 96.4355 175.679 97.1589 175.679 97.6411C175.679 100.776 178.079 97.8822 179.039 98.8467C178.799 98.1234 178.559 97.4 178.319 96.6766C178.319 94.7476 176.399 97.6411 176.159 95.9532Z" fill="#211B16"/>
<path d="M408.72 108.25C407.04 108.492 405.84 107.045 403.92 107.527C403.68 108.733 405.12 108.009 405.12 108.974C405.12 109.456 405.12 110.179 406.08 109.938C406.08 109.938 406.08 108.974 405.84 108.492C406.8 108.974 407.28 109.938 408.48 109.938C408.96 109.938 409.68 110.421 409.92 109.456C409.92 108.733 409.44 108.25 408.72 108.25Z" fill="#211B16"/>
<path d="M694.56 117.172C695.281 119.583 697.681 118.86 699.361 120.548C698.641 117.172 697.201 116.69 694.56 117.172Z" fill="#211B16"/>
<path d="M486.72 110.662C486.48 110.662 486 111.144 485.52 111.626C486.72 112.108 485.76 114.278 487.68 114.037C488.16 114.037 489.36 114.278 489.12 112.591C488.88 111.867 487.92 110.903 486.72 110.662Z" fill="#211B16"/>
<path d="M79.4401 90.4074C78.4801 90.1663 78.2401 90.8897 78.4801 91.8542C78.4801 92.5775 78.2401 93.7831 79.4401 93.7831C80.1601 93.7831 81.3601 93.3009 81.3601 92.0953C81.3601 90.8897 80.6401 90.4074 79.4401 90.4074Z" fill="#211B16"/>
<path d="M100.079 92.3365C98.6395 92.8187 101.519 94.2654 99.8395 95.4711C99.1195 95.9533 100.799 95.9533 101.039 96.6767C102.239 96.4356 101.999 95.2299 102.719 94.5066C101.279 94.2655 101.279 91.8542 100.079 92.3365Z" fill="#211B16"/>
<path d="M862.319 131.525C863.039 132.49 861.119 133.454 862.319 134.178C863.279 134.66 864.479 134.178 865.679 134.66C866.159 134.901 866.639 134.178 866.399 133.454C864.479 133.936 863.999 131.043 862.319 131.525Z" fill="#211B16"/>
<path d="M862.08 131.525C862.8 130.561 862.32 130.32 861.36 130.078C859.92 129.837 858.48 129.355 857.76 128.15C856.8 126.703 855.84 126.944 854.88 127.908C853.92 128.873 852.96 130.32 852.48 131.525C851.52 133.936 855.36 131.766 854.88 133.936C854.88 134.178 855.6 134.419 855.84 133.936C856.56 132.007 858 132.731 859.2 132.972C860.64 133.454 861.6 132.49 862.08 131.525Z" fill="#211B16"/>
<path d="M623.039 119.101C623.999 117.413 623.999 117.413 623.759 113.796C621.839 114.761 621.599 115.243 623.039 119.101Z" fill="#211B16"/>
<path d="M121.439 92.5776C123.359 92.3365 122.639 93.7832 123.119 94.5066C123.839 95.471 124.799 94.9888 125.999 94.9888C124.079 92.0953 124.079 92.0953 121.439 92.5776Z" fill="#211B16"/>
<path d="M870.96 130.079C870.72 130.32 869.52 130.079 870 130.802C870.24 131.284 870.96 131.284 871.44 131.043C872.64 130.561 873.6 129.114 875.28 129.114C873.36 127.667 872.16 128.632 870.96 130.079Z" fill="#211B16"/>
<path d="M106.321 91.8542C104.881 91.6131 103.92 92.8187 102.96 94.2654C104.4 93.0598 104.881 94.9888 105.601 94.9888C106.561 95.2299 107.041 91.8542 106.321 91.8542Z" fill="#211B16"/>
<path d="M727.44 128.505C725.76 128.505 726.24 131.157 724.561 131.157C725.041 131.398 725.521 131.88 725.761 132.121C727.201 131.88 727.681 130.675 728.401 129.71C728.641 128.987 728.16 128.505 727.44 128.505Z" fill="#211B16"/>
<path d="M219.6 98.3645C219.6 100.293 223.44 100.535 220.56 102.946C222 102.464 223.2 102.222 223.2 101.017C222.72 99.329 221.28 98.8467 219.6 98.3645Z" fill="#211B16"/>
<path d="M234.24 99.0878C233.76 99.0878 232.56 98.8467 233.04 100.052C233.28 101.258 234.48 101.499 235.44 101.74C235.92 101.981 237.36 101.74 237.12 100.293C235.68 100.535 235.2 98.8467 234.24 99.0878Z" fill="#211B16"/>
<path d="M765.84 129.596C764.16 129.596 762.72 129.837 761.52 130.802C762.72 131.284 763.92 131.766 764.88 130.561C765.36 130.078 765.84 130.078 766.32 130.561C766.56 130.802 766.32 131.525 766.56 131.525C767.28 132.007 767.76 131.525 767.52 131.043C767.04 130.561 766.8 129.596 765.84 129.596Z" fill="#211B16"/>
<path d="M340.319 104.393C339.359 104.875 338.639 105.598 338.639 106.804C338.639 107.286 338.639 107.768 339.599 107.768C340.319 107.045 341.52 106.563 341.52 105.357C341.52 104.875 341.039 104.151 340.319 104.393Z" fill="#211B16"/>
<path d="M192.48 96.1944C192 95.9533 191.76 96.6766 192 97.1589C192.48 98.1233 192.72 99.3289 193.44 100.052C193.92 100.535 194.64 99.5701 194.88 98.6056C194.16 97.8822 193.44 96.9177 192.48 96.1944Z" fill="#211B16"/>
<path d="M889.2 130.561C890.88 130.32 892.8 130.32 893.04 127.908C890.64 127.185 890.16 129.114 889.2 130.561Z" fill="#211B16"/>
<path d="M156.72 94.0243C156 94.7477 156.24 95.2299 156.72 95.7122C157.2 96.1944 157.2 97.4 158.4 97.1589C159.12 96.9178 159.36 95.9533 160.08 94.7477C157.92 96.6767 158.16 93.5421 156.72 94.0243Z" fill="#211B16"/>
<path d="M724.8 128.505C725.04 127.54 724.32 127.058 723.84 126.576C723.12 126.093 722.4 126.093 721.68 126.335C721.2 126.576 721.44 127.058 721.44 127.54C722.88 127.058 723.12 128.505 723.6 128.987C724.32 129.228 724.56 128.987 724.8 128.505Z" fill="#211B16"/>
<path d="M499.2 111.144C500.16 113.796 500.16 113.796 503.28 113.796C502.8 111.626 500.4 112.35 499.2 111.144Z" fill="#211B16"/>
<path d="M491.52 112.591C490.8 113.796 492.96 113.796 493.44 114.761C493.68 115.243 493.92 115.002 495.36 112.35C493.68 113.073 492.24 110.903 491.52 112.591Z" fill="#211B16"/>
<path d="M313.2 103.91C312.96 103.91 312.24 104.151 312.72 104.875C313.44 106.563 314.88 105.839 316.32 106.08C315.6 104.393 314.4 103.91 313.2 103.91Z" fill="#211B16"/>
<path d="M770.88 128.391C770.4 128.391 769.68 128.873 769.92 129.355C770.16 130.078 770.88 131.043 772.32 129.837C772.56 129.355 773.76 131.525 773.76 129.837C773.76 129.114 772.08 128.632 770.88 128.391Z" fill="#211B16"/>
<path d="M881.52 129.114C882 130.078 883.44 129.837 883.92 131.043C883.92 131.284 884.64 131.525 884.88 131.043C885.12 130.561 885.12 130.078 885.12 129.596C883.92 129.596 883.2 127.185 881.52 129.114Z" fill="#211B16"/>
<path d="M180.72 95.7122C180.24 96.6767 181.68 96.9178 181.2 97.8823C180.96 98.1234 180.24 97.6412 180.48 98.3645C180.48 98.6056 180.96 98.6057 181.44 98.8468C181.68 98.1234 182.88 99.0879 182.88 97.8823C182.64 96.6767 182.4 95.2299 180.72 95.7122Z" fill="#211B16"/>
<path d="M199.44 96.9178C199.2 96.9178 198.72 96.9178 198.96 97.4C199.44 98.6057 199.92 99.5701 201.36 99.8113C201.6 99.8113 201.6 99.8113 202.08 99.5701C201.84 99.0879 201.6 98.8468 201.36 98.8468C200.88 97.8823 200.88 96.4356 199.44 96.9178Z" fill="#211B16"/>
<path d="M824.4 132.49C822.96 133.454 821.039 132.249 819.839 133.695C821.279 133.454 822.719 133.213 823.919 133.936C824.399 134.178 824.879 134.178 824.879 133.454C824.879 133.213 824.88 132.249 824.4 132.49Z" fill="#211B16"/>
<path d="M849.839 133.454C851.759 132.007 852.24 130.802 852 128.873C850.56 130.078 850.319 131.525 849.839 133.454Z" fill="#211B16"/>
<path d="M237.36 98.8467C236.88 98.8467 236.64 99.5701 236.88 100.293C237.84 100.776 238.56 101.499 240.48 101.258C238.8 100.535 238.8 98.6056 237.36 98.8467Z" fill="#211B16"/>
<path d="M570.24 112.832C570.479 114.52 570.479 115.725 571.919 116.69C572.399 115.002 571.919 113.796 570.24 112.832Z" fill="#211B16"/>
<path d="M109.2 91.6131C108.48 91.1309 107.76 91.6131 107.28 92.3365C107.76 92.8187 107.76 94.0243 108.48 94.0243C109.44 94.2655 108.72 92.3365 109.92 92.5776C109.92 92.0954 109.68 91.8542 109.2 91.6131Z" fill="#211B16"/>
<path d="M36.7195 90.4075C36.2395 90.4075 36.2395 90.8897 36.2395 91.372C36.2395 92.8187 37.1995 92.8187 38.3995 92.5776C38.1595 91.8542 38.1595 90.4075 36.7195 90.4075Z" fill="#211B16"/>
<path d="M62.3997 89.6841C62.1597 94.0243 64.0797 92.3365 65.5197 91.8542C64.3197 91.8542 63.3597 91.372 62.3997 89.6841Z" fill="#211B16"/>
<path d="M17.04 88.7196C16.08 88.7196 15.84 89.443 15.6 90.1663C15.6 90.8897 15.84 91.1308 16.32 90.8897C17.04 90.6486 17.52 89.9252 17.76 89.443C18 88.7196 17.52 88.7196 17.04 88.7196Z" fill="#211B16"/>
<path d="M568.56 114.037C568.32 114.037 567.6 114.037 567.6 114.278C567.12 115.725 569.28 115.484 569.52 116.69C570 115.725 570 114.52 568.56 114.037Z" fill="#211B16"/>
<path d="M314.64 102.946C315.84 103.91 317.04 104.634 318 105.598C317.76 103.669 316.8 102.464 314.64 102.946Z" fill="#211B16"/>
<path d="M208.08 97.8822C207.36 97.8822 206.64 98.3644 206.64 98.8467C206.64 99.5701 207.36 99.8112 208.08 100.052C208.32 99.8112 209.04 100.293 208.799 99.3289C208.799 99.0878 209.04 98.1233 208.08 97.8822Z" fill="#211B16"/>
<path d="M299.76 104.875C299.76 104.875 299.04 105.357 299.04 105.598C298.8 107.045 300.24 106.804 301.2 107.286C300.96 106.563 300.72 105.598 299.76 104.875Z" fill="#211B16"/>
<path d="M210.48 99.0879C210.48 99.0879 210.48 99.5701 210.48 99.8112C210.96 101.017 211.92 100.535 212.88 100.535C212.4 99.5701 211.68 98.8467 210.48 99.0879Z" fill="#211B16"/>
<path d="M580.56 113.314C580.8 113.796 581.041 114.52 581.281 115.002C581.521 115.725 583.201 115.484 582.961 114.761C582.721 113.796 581.281 114.037 580.56 113.314Z" fill="#211B16"/>
<path d="M601.439 114.52C600.959 115.002 600.719 115.725 600.959 115.966C602.159 117.172 602.159 114.761 602.879 114.761C602.399 114.52 602.159 113.796 601.439 114.52Z" fill="#211B16"/>
<path d="M602.879 114.761C603.119 115.002 603.12 115.002 603.36 115.002C603.12 114.761 602.879 114.761 602.879 114.761Z" fill="#211B16"/>
<path d="M339.84 102.464C339.84 102.222 339.12 101.74 338.88 101.74C338.16 101.981 337.92 102.705 337.68 103.91C338.64 103.428 339.6 103.669 339.84 102.464Z" fill="#211B16"/>
<path d="M381.12 107.286C382.32 110.421 382.32 110.421 384.24 108.25C383.04 108.974 382.32 108.25 381.12 107.286Z" fill="#211B16"/>
<path d="M508.32 112.35C508.56 114.52 508.56 114.52 510.48 114.037C509.52 114.037 509.52 112.591 508.32 112.35Z" fill="#211B16"/>
<path d="M141.84 93.0598C141.12 93.0598 141.36 93.7832 141.36 94.5066C141.36 94.9888 141.12 95.2299 141.36 95.7122C140.88 95.2299 140.16 94.7477 139.68 94.2654C138.96 93.7832 138 94.0243 137.04 94.2654C136.56 94.2654 136.56 95.2299 136.8 95.471C137.28 96.1944 138.24 96.9178 138.96 96.1944C139.92 95.2299 140.88 97.1589 141.6 96.1944C141.84 95.9533 142.08 95.471 142.56 95.2299C142.8 94.7477 143.52 94.5066 143.04 93.7832C142.56 93.3009 142.08 93.0598 141.84 93.0598Z" fill="#211B16"/>
</svg>
