<svg width="1440" height="33" viewBox="0 0 1440 33" fill="none" xmlns="http://www.w3.org/2000/svg">
<path d="M1440 33V11.7113H1411.93L1333.39 8.81467L1303.93 14.8427L1299.03 11.7113L1259.75 7.546L1243.07 9.13L1244.37 12.6207L1188.73 9.44533L1120.99 14.52L1112.8 16.4267L1115.8 8.52867L1101.68 6.59267L1068.95 11.7113H1047.25L1009.3 15.4733L997.973 16.5953L998.677 22.352L996.503 17.688L917.88 11.7113L899.595 7.502L881.767 5.73467H864.398L848.858 3.07267L836.97 4.84733L822.802 6.17467L768.863 5.73467V15.4733L753.78 3.96L728.025 2.78667L728.227 4.29733L727.447 2.76467L701.04 1.562L699.96 1.892L696.6 1.364L666.637 0L666.3 0.623333L671.498 12.3787L650.01 10.604L632.182 6.17467H594.705L591.99 8.33067L591.383 8.25733L591.158 6.17467H532.08L514.71 11.044L500.655 15.8107L494.835 16.28L467.625 23.452L471.742 17.688L458.94 9.27667L453.457 16.808L342.442 14.7473L337.29 16.3093L325.98 14.4393L238.612 12.8187L232.673 19.4627L234.952 12.8187L223.53 6.17467L220.327 14.146L213.015 8.82933L207.075 10.604L201.128 8.82933H175.072L166.845 17.688H161.362H152.678L143.535 19.4627L127.995 17.688L102.277 16.1407L72.2775 19.1327L52.2975 14.652L47.2575 13.816L43.14 20.13V16.4707L22.9125 18.2967L0 18.1353V33H1440Z" fill="#1D1B2C"/>
</svg>
