<svg width="1440" height="88" viewBox="0 0 1440 88" fill="none" xmlns="http://www.w3.org/2000/svg">
<g clip-path="url(#clip0_272_166)">
<path d="M0 -47L1439.52 -46.5178C1439.52 1.2243 1439.52 -28.6879 1439.52 19.0542C1438.56 19.0542 1437.84 19.5364 1437.36 20.0187C1437.84 19.7776 1438.32 20.0187 1438.56 20.9832C1438.8 21.4654 1439.04 21.7065 1439.52 21.9477C1439.52 22.4299 1439.52 23.1533 1439.52 23.6355C1438.56 24.1178 1437.6 24.6 1437.12 25.8056C1439.28 25.8056 1438.8 27.7346 1439.52 28.6991C1439.52 29.1813 1439.52 29.9047 1439.52 30.3869C1438.56 30.3869 1437.36 28.9402 1436.64 30.8692C1436.64 31.1103 1435.92 31.3514 1435.44 31.3514C1432.8 31.3514 1430.16 31.5925 1427.76 32.0748C1426.8 32.3159 1426.56 32.3159 1426.32 31.5925C1426.32 30.1458 1427.28 31.1103 1428 30.8692C1427.76 29.9047 1427.04 29.4224 1426.32 29.6635C1425.12 29.9047 1425.6 31.1103 1425.6 31.8336C1424.64 31.8336 1424.16 31.1103 1423.92 30.628C1423.68 30.1458 1422.72 29.6636 1422.48 30.1458C1421.28 32.7981 1418.88 32.3159 1416.48 32.3159C1416.72 31.5925 1417.2 30.628 1417.68 29.6635C1415.28 29.6635 1413.12 30.1458 1410.96 29.6635C1410 29.4224 1409.52 30.628 1409.04 31.5925C1408.8 32.0748 1408.56 32.557 1408.08 32.3159C1407.6 32.0748 1407.36 31.8336 1407.36 31.1103C1407.6 29.6635 1407.6 29.1813 1406.4 30.628C1405.92 31.1103 1405.44 31.3514 1404.96 31.8336C1403.76 33.5215 1401.84 33.5215 1401.12 31.5925C1400.4 29.6635 1399.92 29.6635 1398.96 31.5925C1398.72 32.0748 1398.48 32.3159 1398.24 32.3159C1398 32.3159 1397.52 32.0748 1397.28 32.0748C1396.8 31.8336 1396.56 31.3514 1396.56 31.3514C1395.12 29.1813 1392 29.1813 1390.32 27.2523H1390.08C1389.12 25.3234 1388.64 24.3589 1387.68 27.4935C1387.44 28.4579 1386.24 26.529 1385.04 26.2878C1385.52 27.7346 1386.48 28.6991 1387.92 29.1813C1389.6 29.9047 1389.84 31.5925 1388.64 33.0392C1388.4 33.5215 1388.16 34.0037 1388.16 33.0392C1388.16 31.1103 1386.72 31.8336 1386.24 32.0748C1384.32 34.2449 1381.68 33.2804 1379.52 33.5215C1377.12 34.0037 1375.44 32.3159 1373.04 32.0748C1373.28 32.7981 1374.48 33.2804 1374 34.0037C1373.52 34.486 1373.04 33.7626 1372.8 33.7626C1371.36 33.7626 1371.6 32.7981 1371.6 30.628C1370.16 34.486 1368.72 33.0392 1366.8 31.1103C1367.76 32.7981 1367.76 33.5215 1367.28 33.5215H1367.04C1366.56 33.5215 1366.08 33.5215 1365.6 33.2804C1362.24 32.7981 1359.12 34.486 1355.76 34.0037C1354.08 33.7626 1352.64 35.6916 1350.96 34.9682C1350.48 34.7271 1349.76 34.486 1350 33.7626C1350.24 33.0393 1350.96 33.5215 1351.44 33.2804C1351.92 33.0392 1351.68 34.9682 1352.4 33.7626C1352.64 33.2804 1352.4 32.7981 1351.68 32.7981C1350.72 32.557 1348.8 33.2804 1350.24 30.8692C1350.48 30.1458 1349.52 30.628 1349.04 30.3869C1348.32 30.1458 1347.6 30.628 1348.08 31.1103C1349.04 32.557 1347.36 33.2804 1347.6 34.7271C1347.84 36.1738 1345.68 35.4505 1345.44 35.4505C1343.28 34.2449 1343.52 31.8336 1345.68 30.628C1345.92 30.3869 1346.4 30.628 1346.64 30.3869C1344.72 30.1458 1342.8 29.9047 1341.36 31.5925C1340.4 32.7981 1342.56 32.7981 1342.56 34.0037C1340.88 33.0392 1339.92 34.9682 1339.92 35.2093C1338.96 37.1383 1338.24 32.3159 1337.52 35.4505C1337.04 37.1383 1335.36 34.9682 1334.4 36.4149C1334.4 35.9327 1334.16 35.6916 1334.16 35.4505C1334.88 34.9682 1335.84 34.7271 1335.84 33.7626C1335.84 33.5215 1335.36 33.2804 1335.12 33.5215C1333.92 33.7626 1332.48 33.7626 1332 34.9682C1331.28 36.6561 1330.08 36.415 1329.12 35.9327C1327.68 35.2093 1326.48 35.9327 1325.28 36.6561C1324.8 36.8972 1324.56 37.3794 1324.08 36.8972C1323.84 36.415 1323.6 35.6916 1324.08 35.6916C1325.04 35.2093 1325.52 34.9682 1324.56 34.2449C1324.32 34.0037 1323.36 34.486 1322.88 34.9682C1321.44 36.6561 1317.6 37.1383 1315.44 35.9327C1315.44 35.9327 1315.44 35.6916 1315.44 35.4505C1315.68 35.2093 1315.68 34.9682 1315.68 34.9682C1317.12 35.9327 1318.08 35.4505 1319.04 34.2449C1319.52 33.5215 1318.8 33.2804 1318.56 33.2804C1317.36 33.7626 1315.2 33.0392 1314.72 35.2093C1314.48 35.9327 1315.2 36.8972 1313.76 36.6561C1312.8 36.4149 1311.12 36.8972 1310.88 35.6916C1310.64 34.2449 1309.92 34.9682 1309.44 34.9682C1308.24 35.4505 1306.32 34.7271 1305.84 36.6561H1305.36C1304.64 36.6561 1305.36 35.2093 1303.44 35.4505C1301.52 35.9327 1303.2 33.5215 1303.44 32.3159C1303.68 31.5925 1304.4 30.628 1303.68 30.3869C1302.72 29.9047 1302.72 31.5925 1302.48 31.8336C1301.28 32.557 1301.76 34.7271 1301.28 34.7271C1298.64 35.2093 1301.76 37.3794 1299.84 38.1028C1296.48 35.6916 1301.52 33.5215 1300.32 31.1103C1299.36 31.3514 1298.64 31.8336 1298.88 33.0392C1298.88 34.0037 1298.64 34.7271 1297.92 35.2093C1297.44 35.2093 1296.96 35.2093 1296.24 34.9682C1296.24 34.7271 1296.24 34.486 1296.48 34.0037C1296.72 33.5215 1297.2 33.2804 1296.96 32.557C1296.24 33.0392 1295.04 32.3159 1295.28 34.2449C1295.52 36.415 1294.32 36.8972 1292.16 35.6916C1291.68 36.6561 1293.36 37.6206 1292.4 38.1028C1291.68 38.585 1290.72 38.8262 1290.24 37.3794C1290 36.8972 1289.52 37.3794 1289.28 37.6206C1289.04 37.8617 1288.8 38.8262 1288.32 39.3084H1288.08C1287.84 39.3084 1287.6 38.8262 1287.36 37.8617C1287.12 37.3794 1285.92 37.6206 1285.92 38.3439C1286.16 39.5495 1286.16 39.3084 1284.96 39.3084C1283.04 39.3084 1283.04 39.7906 1283.28 37.6206C1281.12 40.2729 1276.56 40.9963 1272.96 39.0673C1272.24 38.585 1272 38.3439 1272 39.5495C1272 39.7906 1272 40.0318 1271.76 40.0318C1271.52 40.0318 1271.52 40.0318 1271.28 40.0318C1270.8 39.7906 1270.56 39.5495 1270.32 39.7906C1269.12 37.6206 1268.16 39.7906 1266.96 40.0318C1265.28 40.7551 1263.6 40.7551 1262.4 39.7906C1262.16 39.5495 1261.92 39.3084 1261.68 39.7906C1260.72 42.2019 1259.52 40.0318 1258.32 40.2729C1257.12 40.514 1255.68 38.8262 1254.72 40.7551C1254.72 40.7551 1254.72 40.9963 1254.48 40.9963C1254.24 40.9963 1254 40.9963 1253.76 40.9963C1253.52 40.7551 1253.28 40.514 1253.28 40.514C1252.56 39.7906 1254 39.7906 1253.76 39.0673C1252.8 38.585 1252.56 39.5495 1252.08 39.7906C1251.6 40.0318 1251.12 41.2374 1250.64 40.2729C1250.16 39.7906 1250.4 39.0673 1251.36 39.0673C1251.84 39.0673 1251.6 38.1028 1250.88 38.1028C1250.16 38.1028 1249.44 38.1028 1248.24 37.1383C1249.44 39.0673 1249.68 40.514 1248.48 41.2374C1247.76 41.7196 1246.08 40.9963 1245.84 39.7906C1245.36 38.3439 1243.68 41.7196 1243.92 39.0673C1243.92 37.6206 1243.44 36.1738 1245.6 35.6916C1246.08 35.6916 1247.04 34.7271 1246.32 34.2449C1245.36 33.0393 1245.36 34.7271 1244.88 34.9682C1243.92 35.2093 1242.72 36.8972 1241.76 34.9682C1241.76 34.9682 1241.28 35.2093 1240.8 35.2093C1240.56 34.9682 1240.08 34.7271 1240.32 34.7271C1241.28 31.1103 1238.16 33.2804 1237.2 32.557C1237.2 32.557 1236.48 33.5215 1236.72 33.5215C1238.16 34.0037 1238.88 36.6561 1241.04 35.2093C1241.04 35.4505 1241.04 35.4505 1241.28 35.6916C1241.04 35.6916 1241.04 35.4505 1240.8 35.4505C1241.04 35.6916 1241.04 35.6916 1241.28 35.9327C1241.76 37.3794 1242.72 39.0673 1239.84 39.3084C1238.16 39.5495 1240.56 41.9607 1238.4 41.4785C1236.72 41.2374 1237.68 39.5495 1236.72 38.8262C1235.28 38.1028 1235.28 39.0673 1235.28 39.7906C1235.28 42.443 1233.84 41.7196 1232.64 40.9963C1231.68 40.514 1230.96 38.8262 1230.72 41.4785C1229.28 41.2374 1227.84 42.6841 1226.64 40.9963C1226.16 40.514 1225.92 40.7551 1225.44 40.7551C1224.96 42.6841 1223.04 41.2374 1222.08 42.6841C1221.84 41.4785 1222.8 40.514 1222.08 39.7906C1220.16 40.0318 1218.72 41.4785 1217.28 42.443C1215.84 43.4075 1215.84 42.443 1215.36 41.9607C1215.12 41.7196 1215.12 41.7196 1215.12 41.4785C1215.12 41.2374 1215.36 40.9963 1215.36 40.7551C1215.6 40.7551 1215.6 40.514 1216.08 40.514C1217.28 40.9963 1217.04 40.0318 1217.28 39.3084C1217.28 38.3439 1216.56 37.3794 1217.76 36.6561C1218.24 36.4149 1218 35.2093 1216.8 36.1738C1216.08 34.9682 1213.92 37.1383 1213.68 34.7271C1213.68 33.7626 1213.2 33.0392 1213.92 32.3159C1214.16 32.0748 1214.4 32.0748 1215.12 32.0748C1216.8 32.557 1214.64 33.7626 1215.84 34.2449C1216.56 33.5215 1216.8 32.7981 1216.56 31.8336V31.5925C1216.56 31.5925 1216.56 31.5925 1216.8 31.5925C1217.76 31.8336 1218.72 32.7981 1219.68 31.3514C1220.64 29.9047 1218.48 29.9047 1218.72 28.6991C1218 29.6636 1217.28 30.3869 1216.56 31.3514C1216.32 31.3514 1215.84 31.5925 1215.6 31.1103C1215.12 28.9402 1214.4 28.2168 1213.2 30.628C1212.72 31.3514 1212.48 31.8336 1212 30.8692C1211.76 30.1458 1211.52 29.6635 1211.04 30.3869C1210.8 30.8692 1210.56 31.5925 1211.28 31.8336C1214.16 32.557 1212.24 33.7626 1211.76 34.9682C1211.52 35.6916 1210.08 35.9327 1211.04 37.1383C1211.76 38.3439 1212.48 38.1028 1213.44 37.6206C1213.92 37.3794 1214.4 37.6206 1215.12 37.6206C1214.16 39.0673 1213.44 40.514 1211.52 39.7906C1211.04 39.5495 1210.56 40.0318 1210.08 40.514C1209.36 41.4785 1209.12 40.514 1208.64 40.7551C1206.72 41.2374 1206.48 39.5495 1205.52 39.0673C1203.6 37.8617 1204.32 35.9327 1204.32 34.2449C1204.32 34.0037 1204.56 34.0037 1204.56 33.7626C1204.8 33.7626 1205.76 34.2449 1205.76 33.5215C1206 32.557 1206.96 31.8336 1206.72 30.628C1206.96 32.7981 1208.64 32.0748 1209.84 32.3159C1210.32 32.3159 1210.8 31.8336 1210.56 31.5925C1209.6 30.8692 1210.32 29.4224 1209.6 28.6991C1209.12 28.2168 1209.12 28.6991 1208.88 28.9402C1208.16 29.4224 1207.44 29.6636 1206.72 30.1458C1206.72 29.1813 1206.24 28.6991 1205.28 27.7346C1205.28 29.6635 1204.56 30.628 1202.88 30.3869C1202.16 30.1458 1201.68 31.1103 1201.68 31.3514C1201.44 31.8336 1202.16 31.8336 1202.64 32.0748C1203.6 32.0748 1203.36 32.557 1203.12 33.2804C1202.64 34.2449 1202.64 34.9682 1202.4 35.9327H1202.16C1201.2 35.6916 1202.16 34.2449 1201.2 34.0037C1201.68 36.6561 1199.04 38.3439 1198.8 40.7551C1198.56 43.6486 1194.96 41.7196 1194.48 44.372C1194.48 44.372 1194.48 44.372 1194.24 44.372C1193.28 42.9252 1193.52 41.9607 1194.48 40.7551C1193.28 40.514 1192.8 41.7196 1191.84 41.2374C1190.64 40.7551 1190.16 40.9963 1191.12 42.2019C1191.84 43.6486 1191.6 43.8897 1189.92 43.6486C1188.24 43.4075 1186.56 45.0953 1184.4 44.372C1185.84 44.1308 1186.56 42.443 1188 42.6841C1185.12 41.7196 1183.2 43.6486 1181.04 44.6131C1180.08 45.0953 1179.84 45.3364 1179.36 44.372C1178.88 42.6841 1176.48 43.6486 1176 41.9607C1176 41.7196 1174.56 42.443 1174.8 42.6841C1176 45.8187 1172.64 43.8897 1172.16 45.0953L1171.92 45.3364C1171.92 45.3364 1171.68 45.3364 1171.68 45.0953C1171.44 44.8542 1171.44 44.8542 1171.44 44.6131C1170.72 40.9963 1169.52 42.2019 1167.36 43.6486C1165.44 44.8542 1163.04 45.3364 1160.88 45.8187C1159.44 46.3009 1158.24 48.2299 1156.32 47.0243C1156.08 46.7832 1155.6 47.9888 1155.36 47.0243C1155.12 46.5421 1155.36 45.8187 1156.08 45.8187C1156.8 45.8187 1157.76 45.5776 1157.76 44.6131C1157.76 44.1308 1156.8 43.8897 1156.56 44.1308C1156.08 45.3364 1153.68 43.4075 1154.16 45.5776C1154.4 46.5421 1153.44 46.7832 1153.68 47.5065C1152.48 47.2654 1153.2 43.6486 1150.56 46.0598C1150.32 45.8187 1150.08 45.5776 1149.84 45.3364C1150.32 44.8542 1150.56 43.8897 1151.28 44.1308C1153.2 45.0953 1152.72 43.4075 1153.2 42.6841C1150.8 42.6841 1149.36 45.0953 1147.2 44.6131C1146.96 44.6131 1146.48 44.6131 1146.48 44.8542C1145.28 47.7477 1142.4 46.0598 1140.72 47.0243C1141.68 46.0598 1143.36 45.8187 1143.36 43.8897C1142.16 44.1308 1140.96 45.3364 1139.76 44.1308C1139.28 43.6486 1136.64 43.1664 1136.64 45.5776C1136.64 47.0243 1134.72 45.3364 1134.72 46.7832C1134.48 46.7832 1134.24 46.5421 1134.48 46.0598C1134.72 45.3364 1134.72 44.6131 1133.76 44.372C1133.04 44.1308 1132.56 44.6131 1132.32 45.0953C1131.84 46.0598 1132.8 46.5421 1133.28 47.0243C1131.6 47.5065 1129.44 48.7121 1129.92 45.3364C1127.76 45.3364 1128.48 40.7551 1124.88 42.6841C1123.68 43.4075 1123.92 45.0953 1122.24 45.3364C1121.28 45.5776 1120.08 45.8187 1119.6 47.0243C1119.36 47.2654 1118.64 47.7477 1118.16 47.5065C1118.16 47.5065 1117.92 47.5065 1117.92 47.2654C1117.44 47.0243 1117.68 46.3009 1117.92 45.8187C1118.16 45.3364 1118.64 44.8542 1117.92 44.6131C1117.44 44.372 1116.72 44.372 1116.24 44.6131C1115.52 44.8542 1116 45.3364 1116.24 45.8187C1116.48 46.5421 1116.48 46.7832 1115.52 46.7832C1113.6 46.5421 1111.2 48.2299 1110.48 44.8542C1110.24 43.8897 1109.28 43.6486 1108.56 44.8542C1107.12 47.5065 1104.48 46.0598 1102.32 46.5421C1102.08 46.5421 1101.36 46.5421 1101.6 46.0598C1103.76 43.4075 1099.2 43.4075 1099.44 41.2374C1099.44 40.9963 1097.76 40.0318 1097.28 41.4785C1097.04 42.443 1096.32 42.6841 1095.84 42.443C1093.92 41.2374 1091.76 42.9252 1090.08 41.2374C1089.36 40.7551 1089.12 40.7551 1088.88 41.4785C1088.4 41.9607 1088.88 42.443 1089.36 42.9252C1091.52 44.8542 1095.12 45.3364 1097.52 44.1308C1099.2 43.4075 1099.2 43.4075 1100.88 44.1308C1099.68 44.6131 1099.44 45.8187 1098 45.3364C1097.04 45.0953 1095.84 45.8187 1094.88 46.5421C1093.68 47.7477 1092.96 47.9888 1091.52 46.5421C1090.56 45.5776 1088.64 45.8187 1087.2 45.0953C1086.24 44.6131 1084.56 44.372 1084.8 42.6841C1084.8 42.2019 1084.56 41.9607 1084.08 41.7196C1081.68 41.4785 1077.6 42.6841 1075.2 44.6131C1075.2 44.6131 1075.2 44.6131 1074.96 44.6131C1075.2 42.6841 1073.28 41.7196 1072.32 41.4785C1071.12 41.2374 1069.44 41.9607 1067.76 41.9607C1067.04 41.9607 1066.56 42.9252 1065.84 42.443C1065.6 42.443 1065.6 41.2374 1065.84 40.9963C1066.56 40.2729 1067.28 40.9963 1067.76 41.2374C1068 41.2374 1068.24 41.2374 1068.96 41.2374C1068 40.0318 1066.56 39.7906 1065.84 38.585C1064.88 36.8972 1062.72 38.1028 1061.04 37.6206C1060.8 37.6206 1060.32 38.3439 1060.8 38.585C1061.04 38.8262 1061.52 38.8262 1061.76 39.0673C1062.72 39.7906 1064.64 39.0673 1064.64 40.7551C1064.64 41.7196 1063.44 42.6841 1061.76 42.2019C1060.56 41.9607 1059.36 45.0953 1060.08 46.5421C1060.32 47.2654 1060.08 47.5065 1059.84 47.7477C1058.88 48.471 1058.64 46.5421 1057.44 46.7832C1057.2 46.7832 1057.68 46.5421 1057.92 46.3009C1059.36 43.8897 1058.88 43.8897 1056.96 42.6841C1054.8 41.4785 1053.84 42.443 1052.88 43.4075C1051.2 42.6841 1054.08 40.9963 1052.16 40.7551C1051.68 40.7551 1051.92 41.7196 1051.68 42.2019C1051.2 41.4785 1050.96 40.7551 1050.48 40.0318C1049.76 40.7551 1048.56 41.4785 1049.28 42.443C1050.48 44.372 1048.56 44.372 1047.84 45.0953C1047.36 45.5776 1046.16 46.0598 1045.44 44.372C1045.2 43.6486 1042.8 43.4075 1041.36 43.6486C1040.4 43.6486 1041.36 45.3364 1040.64 46.0598C1038.24 45.5776 1037.52 43.4075 1036.8 40.9963C1036.08 45.8187 1036.56 46.5421 1040.64 46.7832C1040.88 47.5065 1039.92 47.2654 1039.92 47.7477C1039.44 48.9533 1041.84 49.6766 1040.4 50.1589C1039.2 50.6411 1037.76 49.9177 1036.32 49.6766C1035.6 49.6766 1034.88 49.4355 1034.4 49.1944C1033.2 49.9178 1035.84 51.3645 1033.92 51.6056C1033.2 51.6056 1031.28 52.8112 1031.28 50.4C1031.28 50.1589 1031.04 49.9178 1030.56 50.1589C1026.72 52.8112 1022.4 50.1589 1018.56 51.1234C1014.72 52.0879 1010.64 50.8822 1007.04 52.5701C1005.36 50.6411 1003.44 53.0523 1001.76 52.5701C998.4 51.6056 995.04 54.2579 991.68 52.329C990.72 51.6056 990.24 52.5701 989.76 53.0523C989.04 53.5346 988.8 54.7402 987.36 53.7757C986.4 52.8112 985.68 52.329 986.64 50.8822C986.88 50.6411 986.64 50.1589 986.4 49.6766C985.92 50.8822 984 50.6411 984.24 52.5701C984.24 53.2935 983.28 53.2935 983.04 53.5346C982.32 53.7757 982.8 52.8112 982.56 52.5701C982.08 50.8822 980.64 49.9177 979.68 48.471C979.44 47.9888 978.72 47.0243 978.24 47.7477C977.76 48.2299 977.76 49.1944 978.96 49.4355C979.44 49.6766 979.92 50.1589 980.16 50.6411C981.12 51.6056 982.08 52.5701 981.12 54.0168C980.16 55.4635 978.96 54.0168 977.76 54.0168C976.8 54.0168 975.84 52.8112 974.88 52.5701C974.4 52.329 973.68 52.0878 973.44 53.0523C973.2 54.2579 974.16 53.5346 974.64 53.7757C975.84 54.2579 976.8 54.7402 975.36 55.9458C975.12 56.1869 975.12 56.6692 975.12 56.6692C975.12 56.6692 974.88 56.6692 974.88 56.428C974.88 56.1869 974.64 55.7047 974.4 55.7047C974.16 55.4635 973.92 55.2224 973.68 55.2224C972.72 53.5346 971.76 51.3645 971.76 51.3645C973.44 51.6056 973.92 50.1589 974.88 49.4355C975.36 49.1944 976.32 48.7121 976.08 47.7477C975.84 47.0243 974.88 47.2654 974.4 47.2654C973.92 47.2654 973.44 47.2654 972.96 47.2654C971.76 47.2654 974.16 46.3009 972.72 46.0598C972 46.0598 970.56 45.0953 970.8 44.372C971.52 42.9252 972.48 44.8542 973.44 44.6131C975.36 44.1308 975.12 46.3009 976.32 46.7832C978.24 44.6131 974.88 43.6486 975.12 41.9607C973.92 42.6841 972.72 42.2019 971.76 42.2019C971.28 42.2019 971.04 42.2019 970.56 42.2019C970.32 41.9607 969.84 41.9607 969.6 41.9607C969.36 41.7196 969.12 41.2374 969.12 40.7551C968.88 39.5495 967.92 40.0318 967.2 40.0318C963.12 40.514 960 39.0673 956.88 36.8972C956.64 36.6561 955.92 37.3794 955.44 36.6561C957.6 35.9327 957.6 35.9327 959.04 37.3794C959.52 37.8617 959.76 37.8617 960.24 37.8617C961.92 37.3794 963.6 37.8617 965.52 38.1028C962.16 36.415 958.8 35.2093 954.96 34.7271C957.12 33.7626 957.12 33.7626 961.2 35.6916C961.92 34.486 960 34.2449 960.24 33.2804C960.72 31.8336 961.92 34.486 962.4 32.7981C962.88 31.3514 961.44 30.628 960 31.3514C959.52 31.5925 959.28 32.3159 958.32 32.0748C958.32 29.4224 962.64 30.1458 962.16 27.2523C960.72 27.4935 959.76 28.2168 958.8 29.1813C956.88 31.1103 953.76 30.8692 952.56 28.6991C952.32 28.2168 953.04 26.7701 951.6 27.0112C950.4 27.0112 950.4 28.2168 950.16 29.1813C948.72 28.9402 950.4 26.7701 948.72 27.2523C947.28 27.4935 948 28.6991 948 29.6635C948 30.3869 948 30.8692 948 31.5925C947.76 31.5925 947.04 31.8336 947.04 31.8336C947.28 33.2804 946.08 34.2449 945.6 35.6916C944.64 36.6561 943.92 38.1028 942.48 38.585C942.48 38.585 942.48 38.585 942.24 38.585C942.24 38.585 942.24 38.585 942.24 38.3439C942.48 36.6561 943.44 35.4505 944.64 34.2449C946.32 32.7981 946.8 30.628 946.8 28.4579C946.8 27.7346 946.56 27.4935 945.84 27.2523C944.88 27.0112 945.12 27.7346 944.88 28.2168C944.64 30.1458 943.44 31.1103 941.52 31.1103C940.32 30.3869 943.2 29.1813 941.28 28.2168C940.32 27.4935 939.6 27.9757 939.12 28.6991C938.88 28.2168 939.6 26.529 937.92 27.7346C937.2 28.2168 936.24 28.6991 935.52 29.1813C935.04 28.6991 936.48 27.4935 935.04 27.2523C934.08 27.0112 933.12 27.9757 933.36 28.6991C933.6 30.1458 933.36 30.3869 931.92 30.3869C930.48 30.628 931.44 32.7981 929.76 33.2804C929.76 32.557 930.24 31.8336 929.28 31.5925C928.32 31.3514 928.32 32.0748 927.84 32.557C927.36 33.0392 926.88 33.5215 926.16 34.2449C927.84 34.9682 928.56 33.2804 929.76 33.2804C929.76 34.0037 928.08 34.2449 929.04 35.2093C930 36.1738 931.44 35.6916 932.64 35.6916C933.84 35.6916 933.84 35.2093 934.32 36.1738C934.8 37.1383 935.04 37.8617 936.24 36.1738C937.2 34.7271 939.12 33.7626 940.56 32.3159C941.52 33.5215 939.12 33.5215 939.36 34.9682C939.36 35.9327 937.92 36.6561 939.36 37.8617C940.32 38.8262 938.16 38.585 938.4 39.3084C938.64 40.0318 937.68 40.514 938.16 40.9963C938.64 41.4785 939.12 40.9963 939.6 40.2729C940.08 39.5495 940.32 38.3439 941.76 38.3439C942 38.8262 942.48 39.0673 942.96 38.8262C943.44 38.585 944.16 38.585 944.64 38.585C944.16 39.3084 943.44 39.7906 943.44 40.7551C945.36 41.2374 945.12 38.585 946.8 38.585C946.32 41.2374 943.68 42.443 943.2 44.8542C943.2 45.0953 942.72 45.5776 942.96 46.0598C944.88 44.1308 944.88 45.8187 945.12 47.2654C944.4 47.5065 943.92 47.7477 943.2 47.9888C941.76 49.6766 940.56 51.6056 939.12 53.2934C938.16 54.4991 936.96 54.7402 935.04 54.2579V54.0168C936.48 53.2934 937.92 53.5346 938.64 51.8467C939.12 50.6411 939.12 50.1589 938.16 49.4355C937.2 48.471 936.72 49.4355 936.24 49.9178C935.52 50.6411 935.04 51.6056 934.08 51.8467C933.6 49.4355 936 48.471 936.48 45.8187C934.08 47.9888 932.4 49.9177 930.96 52.0878C932.16 53.0523 933.12 51.8467 934.08 51.8467C934.8 55.2224 930.96 54.9813 930 57.3925C928.8 55.9458 929.28 54.9813 930.24 53.7757C928.56 53.7757 928.32 54.9813 927.6 55.4635C926.64 56.1869 925.2 58.1159 924.24 55.2224C924.24 54.9813 923.76 54.7402 923.76 54.7402C923.28 54.9813 922.8 55.2224 922.8 55.9458C922.56 57.6336 922.08 57.1514 921.6 56.1869C921.36 55.7047 920.88 55.9458 920.64 56.1869C920.4 56.9103 920.16 57.8748 919.2 57.1514C918.48 56.428 918.96 55.4635 919.2 54.4991C919.68 53.0523 921.6 52.5701 921.6 50.8822C919.92 51.3645 919.92 51.3645 918.48 54.0168C917.76 55.2224 916.32 56.1869 915.84 57.8748C915.36 55.9458 917.04 54.4991 917.04 52.5701C916.32 52.8112 915.6 52.8112 915.6 53.0523C915.12 55.7047 913.92 57.1514 910.8 56.1869C911.04 55.7047 911.28 54.9813 911.52 54.2579C909.84 54.2579 909.12 55.7047 907.68 55.9458C907.2 55.9458 905.04 57.1514 904.8 56.9103C903.6 55.7047 901.92 55.9458 900.72 56.428C899.28 56.9103 898.32 54.9813 896.88 56.1869C896.88 56.1869 896.4 55.9458 896.16 55.9458C896.4 55.7047 896.4 55.2224 896.64 54.9813C898.08 53.5346 898.8 51.6056 899.04 49.1944C897.12 51.1234 896.64 53.2934 895.2 55.2224C894.24 56.6692 893.28 54.2579 892.8 55.7047C892.56 54.9813 892.32 54.0168 892.8 53.7757C894.96 53.0523 893.76 50.8822 895.2 49.6766C893.52 49.6766 893.52 50.8822 892.8 51.6056C892.56 51.1234 892.56 50.6411 892.32 50.1589C891.12 50.6411 892.08 53.0523 889.92 52.8112L889.68 53.2934C891.84 55.7047 888.96 56.1869 888 57.8748C887.52 55.4635 888 53.7757 889.2 52.0878C889.68 51.6056 889.68 51.1234 889.2 50.6411C888.72 50.1589 888.24 50.8822 888 50.8822C887.04 50.8822 887.28 52.0878 886.56 52.0878C885.6 52.0878 885.6 53.5346 884.88 53.2934C883.44 52.8112 885.36 51.8467 884.4 51.1234C882.96 52.5701 882.72 54.2579 882 55.9458C881.04 57.6336 880.08 58.357 878.64 56.6692H878.4V56.428C879.6 56.1869 880.32 55.4635 880.8 54.2579C883.2 49.6766 885.36 45.0953 886.56 39.5495C882.72 44.6131 881.04 50.1589 877.92 54.9813C878.4 52.5701 877.92 50.1589 877.68 47.7477C878.64 47.9888 878.16 49.9178 879.36 49.4355C880.8 48.7122 881.76 47.2654 881.04 45.3364C879.84 46.3009 877.68 46.0598 876.72 47.7477C876.24 48.471 876 49.1944 876.48 50.4C877.2 51.6056 875.52 54.9813 874.32 55.2224C873.36 55.2224 873.12 54.7402 873.12 53.7757C873.12 53.2935 874.08 52.329 872.88 52.0878C874.32 50.8822 876.24 49.9178 874.56 47.5065C872.4 48.471 872.64 50.4 872.88 52.0878C872.4 53.5346 872.64 55.4635 870 55.2224C869.28 55.2224 868.8 57.3925 867.36 58.1159C866.64 58.357 866.4 59.0804 865.44 58.5981C864.72 58.1159 863.52 58.357 864.48 59.8037C865.44 61.7327 864 61.9738 862.56 62.4561C862.08 61.0093 864.72 60.286 863.04 58.8392C861.84 57.8748 860.64 58.8392 859.68 58.8392C859.2 57.6336 860.64 57.1514 860.4 56.1869C858.24 56.1869 857.28 61.9738 854.16 58.1159C855.12 58.1159 855.6 56.9103 856.56 56.6692C854.4 55.7047 854.16 55.7047 853.2 56.9103C852.48 57.8748 851.76 59.0804 850.08 59.8037C850.08 59.8037 850.08 59.8037 850.08 59.5626C852.24 56.1869 854.64 53.5346 855.6 50.1589C853.68 52.5701 851.52 54.7402 849.6 57.1514C849.12 57.6336 849.12 57.8748 848.88 58.1159C848.64 58.1159 848.64 57.8748 848.4 57.8748C848.4 57.6336 848.16 57.3925 848.16 57.1514C847.92 56.6692 847.2 54.9813 846.24 56.1869C845.28 56.9103 842.88 55.9458 843.6 58.357C843.84 58.8392 843.6 59.0804 843.6 59.0804C843.36 59.0804 843.12 59.0804 842.88 59.0804C840.72 59.0804 839.04 59.8037 839.28 62.6972C839.28 63.4206 838.32 63.6617 837.6 63.4206C836.16 62.9383 837.6 62.4561 837.6 61.9738C837.6 61.4916 837.84 61.0093 838.08 60.0449C837.12 61.0093 835.92 58.357 835.2 60.5271C834.96 60.5271 834.96 60.286 834.72 60.286C834.48 60.0449 832.56 60.0449 832.32 60.0449C831.6 60.0449 830.88 61.7327 830.16 60.0449C827.76 61.9738 827.28 58.8392 825.6 58.5981C825.36 58.5981 824.64 58.357 824.64 58.5981C822.72 61.0093 820.8 61.7327 817.92 60.286C816.96 59.8037 816.48 60.5271 816.48 63.4206C816.24 62.6972 816 62.215 815.76 61.4916C815.52 60.7682 815.28 59.8037 814.32 60.286C813.36 60.5271 813.36 61.4916 814.32 61.9738C814.8 62.215 814.8 62.6972 814.56 63.6617C812.64 60.286 809.76 59.8037 806.4 60.0449C806.16 60.0449 805.92 59.8037 805.68 59.8037C804.24 60.0449 803.28 62.215 801.6 60.286C801.36 61.4916 798.72 60.5271 799.2 62.6972C799.44 63.6617 798.24 63.9028 797.28 63.9028C797.52 63.4206 794.88 63.6617 797.04 62.4561C797.52 62.2149 796.8 61.7327 796.32 61.4916C795.12 60.7682 795.36 62.4561 794.4 62.4561C794.16 61.7327 793.68 61.0093 793.44 60.286C792.72 60.7682 792.72 61.7327 792.72 62.4561C792.48 62.4561 792.24 62.4561 792.24 62.4561C792 61.7327 792.24 61.0093 792.72 60.5271C793.2 59.5626 792.24 59.0804 792 58.1159C791.52 58.5981 791.28 59.0804 791.28 59.8037C791.04 61.7327 789.36 60.286 788.4 61.0093C788.4 61.0093 788.4 61.0093 788.4 60.7682C788.4 60.286 788.4 59.8037 788.64 59.8037C789.6 59.3215 790.56 58.357 790.08 57.8748C789.12 56.428 788.64 58.1159 787.92 58.5981C787.68 58.5981 787.68 59.0804 787.44 58.8392C784.8 58.1159 783.84 60.7682 781.92 61.4916C781.92 60.7682 781.68 60.0449 781.68 59.3215C778.32 59.5626 778.32 59.5626 778.08 57.6336C778.32 60.286 775.68 60.0449 774.48 61.0093C774.24 61.0093 774.24 61.0093 774 60.7682C773.76 60.286 773.76 59.0804 773.52 58.357C772.08 59.3215 769.92 58.8392 768.96 60.5271C768.24 59.5626 766.56 62.215 766.32 59.8037C766.08 58.5981 765.6 59.3215 765.36 59.5626C762.24 61.7327 759.36 61.0093 756.48 59.0804C756.24 58.8392 755.52 58.8392 755.04 58.8392C755.04 59.8037 756.72 59.8037 756 60.7682C754.08 60.286 753.12 57.1514 750.48 58.8392C750.48 58.8392 750 58.8392 750 58.5981C749.28 57.8748 749.28 58.1159 748.56 59.3215C747.36 61.7327 746.16 64.1439 744.96 66.7963C744 64.8673 746.16 63.1794 744.96 61.2505C744.48 61.2505 744.24 61.2505 744 61.7327C743.52 65.3495 740.88 65.5906 738 66.0729C736.32 66.314 736.56 65.8318 736.8 65.1084C736.8 65.1084 736.8 65.1084 737.04 64.8673V64.6262C735.84 64.1439 733.92 66.7962 733.44 63.6617C732.24 63.9028 731.76 65.3495 730.56 64.8673C731.76 67.0374 733.68 66.7963 735.6 67.0374C736.32 67.0374 738 66.314 737.52 68.0019C737.28 68.7252 736.32 69.6897 735.12 69.4486C734.88 69.4486 734.4 69.4486 733.44 69.4486C736.56 71.8598 739.68 70.4131 742.8 70.6542C739.92 71.8598 736.8 72.1009 734.88 74.9944C736.8 75.4766 738.24 74.0299 739.92 74.9944C739.92 77.6467 736.08 74.9944 736.32 77.1645C736.56 80.5402 734.4 78.6112 733.68 78.6112C731.52 78.6112 732.48 82.228 730.08 81.5047C729.6 80.7813 730.32 80.5402 730.56 80.0579C731.76 78.3701 729.84 77.4056 729.12 77.6467C725.04 78.8523 720.96 76.4411 716.88 78.6112C714.72 79.8168 712.56 80.5402 711.84 83.1925C710.64 83.1925 709.44 82.228 708.48 83.9159C708.24 84.157 707.52 84.157 707.52 83.6748C707.76 82.9514 706.56 82.228 707.28 81.2635C707.52 80.7813 707.76 80.5402 708.24 80.7813C709.68 81.5047 710.88 81.2635 712.08 80.0579C712.32 79.8168 713.28 80.0579 712.8 79.0935C712.56 78.6112 711.84 77.8878 711.36 78.6112C710.4 79.8168 709.2 79.0935 708.24 79.5757C708 79.5757 707.76 79.8168 707.52 79.8168C705.12 77.8878 704.64 77.8878 701.52 79.0935C699.12 80.0579 697.2 79.3346 696.96 76.9234C696.48 74.0299 695.04 75.2355 693.6 75.7178C693.36 75.7178 693.36 76.6822 692.88 76.4411C690.96 74.7533 690.24 67.8878 688.8 67.6467C689.28 68.6112 687.36 69.8168 688.8 70.7813C689.28 71.0224 689.52 71.0224 689.76 70.7813C690 70.5402 690.48 70.2991 690.24 70.0579C688.8 68.129 691.92 78.8523 691.44 77.6467C692.88 77.6467 692.16 78.6112 692.16 79.3346C692.16 80.2991 693.36 80.0579 693.6 79.5757C694.8 78.129 695.76 78.6112 696.96 79.5757C695.04 82.9514 692.64 73.9159 688.8 72.4692C687.84 72.228 685.92 72.7103 684 72.7103C684 72.7103 684 72.7103 684 72.4692C685.2 71.7458 686.4 72.4692 687.36 71.5047C685.68 69.8168 684 71.0224 682.8 71.7458C680.4 73.1925 678.72 71.9869 677.04 70.7813C676.32 70.2991 675.6 70.2991 675.12 70.2991C673.44 71.0224 672 70.2991 670.32 70.2991C669.84 70.2991 668.88 70.5402 669.12 69.5757C669.36 68.3701 670.08 69.5757 670.8 69.0935C670.32 67.8878 669.12 68.129 668.88 68.6112C668.4 69.3346 668.16 70.2991 668.16 71.2635C668.16 72.4692 669.36 71.9869 670.08 71.9869C672.72 71.7458 675.36 72.228 678.48 72.7103V72.9514C677.04 73.4336 675.84 73.1925 674.64 74.3981C673.44 75.8449 670.56 74.6393 668.64 74.3981C668.16 74.3981 668.16 73.1925 667.44 74.3981C666.72 75.3626 665.76 76.5682 664.32 75.3626C663.36 74.6392 663.36 75.8449 663.12 76.3271C662.88 76.8093 662.88 77.7738 663.84 77.7738C664.8 77.7738 665.52 78.0149 665.76 79.4617C664.8 78.0149 662.88 79.2206 661.68 78.0149C661.44 77.5327 660.48 78.4972 661.44 78.9794C661.92 79.2206 661.92 79.7028 661.68 79.9439C660.72 80.185 659.76 79.7028 658.8 80.185C658.56 79.9439 658.56 79.7028 658.32 79.2206C658.32 78.9794 658.32 78.7383 658.32 78.7383C659.04 78.9794 660.48 79.4617 659.76 77.7738C659.52 77.0505 657.84 77.2916 656.88 77.7738C655.68 78.2561 654.72 77.0505 654 76.5682C652.56 75.8448 651.36 75.8449 650.16 76.3271C649.44 76.5682 648 77.5327 648.96 75.3626C648.96 75.1215 645.36 74.3981 645.36 74.3981C646.08 76.3271 643.68 74.8804 643.68 75.8448C642.24 74.6392 642.24 76.3271 641.52 76.8093H641.28C640.8 74.8804 639.36 74.157 637.68 73.4336C635.52 72.7103 636.96 75.3626 635.76 75.1215C634.8 74.8804 633.84 74.157 632.64 74.3981C632.16 74.3981 632.64 75.8448 631.68 75.8448C631.68 75.8448 631.44 75.8449 631.44 75.6037C630.96 74.8804 631.68 73.1925 631.44 73.6748C629.52 75.6037 629.52 70.5402 627.84 72.9514C627.12 74.157 625.2 73.9159 624.48 75.1215C625.2 72.228 620.64 72.7103 621.12 70.0579C620.88 70.5402 620.4 71.2635 620.4 71.7458C620.16 72.7103 618.72 71.5047 618.96 72.7103C619.44 73.9159 620.16 72.9514 620.64 72.7103C621.12 72.4692 621.6 73.1925 621.36 73.4336C620.88 73.9159 620.88 75.3626 619.68 74.6392C618.96 74.157 618.24 73.6748 617.28 73.6748C614.4 73.4336 615.12 76.086 614.16 77.7738C613.92 74.157 609.36 73.6748 609.12 70.0579C607.92 70.5402 608.4 71.5047 608.4 71.9869C608.4 73.1925 607.2 71.9869 606.96 72.7103C606.96 72.9514 606 72.9514 606.24 72.4692C606.48 69.0935 603.84 70.5402 602.4 70.5402C601.92 70.5402 600.96 70.2991 600.48 71.0224C602.16 71.0224 603.36 71.0224 603.6 73.1925C603.6 73.6748 604.08 73.9159 603.36 74.157C602.88 74.3981 602.16 74.8804 602.16 73.9159C602.4 71.5047 599.28 73.4336 599.28 71.5047C598.32 71.7458 598.56 72.4692 598.8 73.1925C598.8 73.4336 598.8 73.6748 598.8 73.6748C598.56 73.6748 598.08 73.9159 597.84 74.157C597.12 73.9159 597.6 71.9869 596.4 72.9514C595.44 73.6748 595.68 74.6393 596.4 75.6037C593.76 75.6037 594.96 72.9514 593.52 72.4692C594.96 70.5402 593.04 70.0579 591.84 68.8523C591.84 69.8168 591.6 70.7813 591.84 71.7458C592.08 72.4691 592.8 72.9514 592.08 73.4336C591.12 74.157 591.36 72.7103 591.12 72.4692C589.68 71.2635 589.68 71.5047 591.12 69.0935C589.68 70.5402 587.52 68.3701 586.08 70.2991C586.08 70.2991 585.84 70.5402 585.6 70.5402C583.68 70.0579 583.68 69.8168 582 71.0224C581.76 71.0224 581.76 71.0224 581.52 70.7813C581.28 69.8168 581.76 69.0935 582 67.6467C580.56 68.8523 579.6 69.8168 578.64 70.7813C577.44 71.9869 578.16 73.9159 576.72 74.8804C577.68 75.3626 578.4 74.3981 578.88 75.1215C578.4 75.6037 577.68 76.086 576.96 76.086C575.76 76.086 575.04 74.6392 573.6 75.3626C576.24 72.4691 576.72 71.2635 575.52 69.5757C575.52 69.3346 575.76 69.0935 575.76 69.0935C577.2 69.3346 577.92 68.3701 578.64 67.6467C576.96 67.8878 575.04 67.4056 574.08 69.3346C573.36 70.5402 572.64 67.6467 571.68 69.3346C571.2 70.0579 570 70.0579 570.24 71.2635C570.24 72.7103 571.2 71.5047 571.68 71.7458C573.12 72.4691 571.2 73.1925 571.68 74.157C571.92 74.6392 571.2 75.1215 570.48 74.6392C568.8 73.6748 566.16 75.1215 565.44 72.4692C565.44 72.228 564.96 72.228 564.72 71.9869C563.52 75.1215 560.4 72.4691 558.48 74.157C559.2 73.4336 556.8 69.5757 560.64 72.4692C561.36 71.0224 563.28 72.7103 564.24 71.2635C564.48 71.0224 564.48 71.2635 565.92 71.2635C566.64 71.2635 568.08 71.0224 567.6 69.5757C566.88 68.8523 566.64 67.1645 565.2 69.0935C564.72 67.6467 563.52 68.6112 562.32 68.8523C561.84 68.8523 561.6 68.8523 561.12 68.6112C560.88 68.3701 560.64 67.8878 560.64 67.1645C560.64 66.6822 560.16 67.4056 559.92 67.4056C559.44 67.4056 559.2 67.6467 558.96 68.3701C557.04 65.7178 556.8 69.5757 555.12 69.3346C554.4 69.0935 553.68 69.5757 552.96 68.8523C552.72 68.6112 552.72 67.8878 552 68.6112C550.8 69.5757 548.4 69.5757 547.92 68.129C546.96 66.2 546.24 67.4056 545.28 67.8878C545.04 67.1645 545.04 66.6822 545.52 66.4411C545.76 65.9589 546 65.4766 545.28 65.2355C544.56 64.9944 544.56 65.7178 544.56 66.2C544.8 67.4056 543.84 67.8878 543.12 68.3701C543.6 68.8523 544.08 68.6112 544.8 68.6112C546.24 68.6112 545.04 69.5757 545.28 70.0579C545.04 70.0579 544.56 70.2991 544.56 70.2991C543.36 68.6112 541.44 72.4692 540.24 69.8168C539.76 68.6112 538.8 68.129 537.84 69.3346C536.88 70.5402 535.2 68.6112 534.48 69.8168C533.76 70.5402 534 67.6467 533.28 69.5757C533.04 70.7813 533.52 71.2635 534.48 71.2635C535.2 71.2635 535.92 71.0224 536.64 70.7813C537.6 70.5402 539.04 71.0224 539.04 71.5047C539.52 73.6748 540 73.1925 540.48 71.5047C540.72 71.5047 540.96 71.7458 541.2 71.7458H541.44V71.9869C541.44 71.9869 541.44 71.9869 541.2 71.9869C540 75.1215 537.6 73.4336 535.68 73.1925C536.16 77.0505 533.04 74.6392 531.6 75.3626C531.12 74.3981 533.28 73.9159 532.08 73.4336C530.4 72.7103 529.44 74.157 528.72 75.3626C528.96 74.6392 528.96 73.6748 529.2 73.1925C529.68 72.228 529.2 71.5047 528.48 71.5047C527.28 71.5047 528.24 72.228 528.24 72.9514C528.24 73.1925 528 73.1925 527.76 73.4336H527.52C526.08 69.8168 525.12 73.9159 524.88 74.157C523.44 74.8804 522 75.3626 520.56 74.157C519.84 73.6748 519.6 73.6748 519.36 74.3981C519.12 74.8804 519.12 75.1215 519.6 75.6037C520.8 76.5682 522 75.8449 523.2 76.3271C522.72 77.2916 522 78.0149 522.24 79.2206C522.24 79.4617 522.24 80.4262 522 80.4262C518.64 78.7383 516.24 84.7663 512.64 81.6318C511.68 80.9084 509.76 82.114 508.56 80.9084C509.04 81.8729 505.68 80.4262 507.6 82.3551C507.12 82.5963 506.88 82.8374 506.64 83.0785C505.44 82.8374 504 81.1495 504 79.9439C504 79.2206 503.52 78.4972 502.8 78.0149C501.12 80.4262 486.96 82.114 483.6 80.185C483.6 78.7383 485.04 80.6673 485.04 79.2206C484.32 79.2206 483.36 78.0149 482.88 79.4617C482.4 80.4262 481.68 80.4262 481.2 80.185C480 79.4617 481.92 79.7028 481.68 79.2206C481.2 78.2561 480.96 78.7383 480.48 78.9794C479.76 79.4617 478.56 81.1495 478.08 78.7383H477.84C476.4 81.1495 473.52 78.2561 473.28 79.2206C472.56 81.3906 471.12 81.1495 469.92 80.9084C468.48 80.6673 466.8 79.4617 465.36 80.9084C463.68 77.7738 459.84 82.114 458.4 78.7383C458.4 78.4972 457.2 78.4972 456.72 78.7383C455.04 79.7028 453.84 78.0149 453.6 77.5327C453.12 76.086 455.28 76.086 456 75.1215C458.64 76.8093 460.8 75.1215 463.44 74.157C461.76 73.6748 459.84 73.4336 458.16 72.9514C457.92 72.9514 457.92 73.1925 457.68 73.1925C456.96 73.4336 459.12 74.8804 457.2 74.6392C456 74.3981 456.72 73.1925 456.24 72.4692C452.88 75.6037 451.44 78.2561 453.36 78.9794C452.4 79.2206 451.68 79.4617 451.2 78.7383C450.48 77.5327 449.52 78.0149 448.8 78.2561C447.84 78.4972 446.88 80.9084 446.64 77.7738C445.2 79.7028 443.04 76.8093 441.6 78.2561C440.88 78.9794 440.16 78.9794 439.44 79.2206C438 79.9439 437.28 80.6673 436.8 78.4972C436.8 77.7738 436.08 78.2561 435.6 78.4972C434.64 78.7383 434.4 79.7028 434.16 80.6673C433.92 80.6673 433.92 80.6673 433.68 80.6673C433.2 79.9439 432.72 79.4617 431.52 80.185C430.08 80.9084 427.68 79.4617 426 80.4262C424.56 81.3906 424.8 79.2206 423.84 78.9794C421.68 78.4972 419.52 79.2206 417.6 78.0149C417.12 77.7738 416.64 77.0505 415.92 77.7738C414.96 78.7383 416.88 78.9794 416.16 79.7028C415.2 79.7028 414 80.185 413.28 79.2206C412.56 78.4972 411.12 78.2561 410.64 78.7383C408.24 80.4262 405.36 79.7028 402.96 79.4617C401.04 79.4617 399.12 79.4617 397.44 78.9794C395.28 78.4972 396.72 77.0505 396.96 75.3626C394.8 76.5682 393.6 78.7383 391.44 78.4972C391.44 78.2561 391.2 78.2561 391.2 78.0149C391.44 77.5327 391.68 77.5327 392.16 77.2916C393.12 76.8093 392.16 76.3271 391.92 76.086C391.68 75.3626 391.2 76.086 391.2 76.3271C389.52 78.7383 387.36 78.2561 384.72 78.2561C382.8 78.2561 380.88 78.9794 378.96 78.2561C378 77.7738 376.8 76.3271 375.6 78.2561C375.6 78.4972 375.12 78.4972 374.88 78.4972C374.64 78.4972 374.4 78.4972 374.4 78.2561C374.16 78.2561 374.16 78.0149 373.92 78.0149C372.72 76.5682 372 76.5682 370.32 77.2916C369.12 77.7738 367.2 79.2206 366.48 76.086C366.24 74.8804 364.08 73.8449 363.6 74.086C362.64 75.0505 361.44 75.0505 360.72 74.5682C359.28 73.6037 356.88 76.0149 355.92 73.1215C355.68 72.3981 354.96 73.1215 354.48 73.3626C353.28 74.3271 351.84 74.086 350.64 74.8093C350.4 73.6037 346.8 75.5327 348.72 72.3981C349.2 71.6748 348 71.1925 347.28 71.6748C345.84 72.8804 343.92 73.3626 342.24 74.3271C341.28 74.8093 340.56 75.7738 339.84 74.086C339.6 73.8449 339.12 73.6037 338.88 74.086C338.64 74.3271 339.6 74.8093 338.88 75.5327C337.44 73.3626 335.76 72.6392 333.12 74.3271C332.16 75.0505 330.72 73.8449 329.04 73.6037C326.64 73.6037 324 74.086 321.84 73.6037C319.68 73.1215 317.28 75.5327 315.36 72.6392C315.12 72.157 314.16 73.1215 313.2 73.1215C312.96 73.1215 312.72 72.8804 312.48 72.8804C312.48 72.8804 312.24 72.8804 312.24 72.6392C310.8 71.4336 309.36 71.6748 308.16 72.6392C307.44 73.3626 306.72 72.6392 306 72.6392C304.08 72.6392 301.92 71.6748 299.76 72.8804C299.28 73.1215 299.04 72.8804 298.56 72.3981C297.6 71.4336 296.88 71.6748 296.4 73.1215C295.92 74.086 292.8 73.8449 292.08 72.8804C290.88 71.4336 289.44 70.9514 287.76 71.9159C285.6 73.3626 283.2 72.3981 280.8 72.6392C278.64 72.6392 276.48 72.157 274.32 73.3626C273.84 69.157 276 72.6392 275.28 71.4336C274.56 70.4692 273.84 68.1925 273.12 68.4336C270.48 69.3981 268.08 69.8804 265.2 68.4336C264 67.7103 260.4 66.7458 258.72 69.8804C258 71.3271 257.04 70.1215 256.32 69.8804C253.68 69.157 253.68 69.157 254.4 67.228C253.44 67.4692 253.68 67.4692 252.48 68.9159C252 69.3981 251.04 70.1215 250.08 69.8804C247.92 69.3981 246 68.1925 243.36 69.6392C242.16 70.3626 239.28 69.3981 237.12 68.9159C236.16 68.6748 235.2 69.8804 234.24 68.9159C234 68.6748 232.56 69.6392 233.28 67.9514C234 66.5047 233.04 66.5047 232.08 66.7458C230.64 66.7458 228.96 68.6748 227.52 66.7458C226.56 67.7103 225.12 68.1925 223.92 68.9159C222.24 69.8804 221.52 68.4336 221.04 67.9514C220.08 66.7458 219.12 66.2635 217.68 67.228C215.52 68.9159 213.12 67.228 210.72 67.7103C210.24 67.9514 210.96 66.0224 210 65.5402C208.56 65.5402 209.76 67.228 208.8 67.7103C207.12 65.2991 205.44 64.8168 203.04 66.2635C202.56 66.5047 202.32 66.7458 201.84 66.7458C198.48 65.7813 195.12 67.9514 192 66.0224C190.8 65.2991 190.32 66.9869 189.12 66.5047C186.96 65.5402 185.28 65.7813 182.88 66.7458C182.64 66.7458 182.4 67.228 182.16 67.228C182.16 67.228 181.92 67.228 181.92 66.9869C180.72 64.0935 179.52 66.2635 177.84 66.5047C176.4 66.7458 174.72 66.2635 173.28 65.7813C171.36 65.2991 169.68 65.2991 168 66.7458C167.28 67.4691 167.04 66.5047 167.04 66.0224C167.28 63.3701 165.6 65.0579 165.12 65.2991C163.92 66.0224 163.2 67.228 162.48 65.0579C162.48 64.8168 161.52 63.8523 161.04 64.8168C160.08 66.5047 157.68 63.6112 157.2 66.2635C156.72 65.5402 155.52 65.5402 155.52 64.5757C155.52 63.3701 154.32 63.8523 154.08 63.8523C152.88 63.6112 154.08 64.3346 153.84 64.8168C153.6 65.5402 153.36 65.5402 152.88 65.0579C152.64 64.8168 152.4 64.0935 152.16 64.5757C151.2 66.7458 150.48 65.0579 149.28 64.8168C145.44 64.0935 141.6 65.0579 137.76 66.0224C137.28 66.2635 137.04 66.5047 136.56 66.0224C134.64 63.8523 132.72 63.3701 130.08 64.5757C129.6 64.8168 128.88 65.0579 128.88 64.8168C126.96 63.129 125.04 63.3701 122.88 64.0935C120.24 64.8168 118.8 62.8878 117.84 61.2C116.88 59.5121 115.68 59.271 114.24 59.0299C113.76 59.0299 113.28 58.7888 113.04 59.5121C112.8 59.9944 113.52 60.7178 113.76 60.7178C116.4 60.2355 115.2 63.8523 117.12 63.8523C117.36 63.8523 117.12 64.3346 116.88 64.5757C116.4 64.8168 115.92 65.0579 115.68 64.8168C113.76 62.8878 111.84 62.8878 109.44 63.8523C108.72 64.0935 107.76 63.6112 108 62.6467C108 59.0299 105.84 61.6822 105.12 61.6822C104.4 61.9234 105.36 62.1645 105.36 62.8878L105.12 63.129C104.16 62.1645 102.72 61.6822 103.68 59.9944C104.4 58.7888 102.72 58.0654 102.24 57.8243C101.28 57.3421 100.56 57.1009 99.84 56.3776C96.72 53.7252 95.52 57.1009 94.3199 58.5477C93.12 59.9944 91.9199 50.4766 90.24 50.4766C90.24 51.6822 91.4399 51.4411 91.9199 51.9234C91.9199 51.9234 91.9199 51.9234 91.9199 52.1645C90.48 53.129 89.04 53.129 87.3601 52.4056C85.6801 51.6822 84 53.8523 82.5601 54.5757C82.0801 54.0935 83.52 51.9234 81.3601 53.3701C80.88 53.6112 80.16 54.3346 79.6801 54.0935C79.4401 53.8523 79.2 53.6112 79.2 53.129C79.4399 52.6467 80.16 52.4056 80.4 51.9234C80.64 51.4411 81.12 51.2 81.3601 50.9589C80.4 50.2355 78.96 52.1645 78 50.2355C77.76 49.9944 77.04 51.2 76.8 51.9234C76.5599 52.6467 76.5599 53.129 75.6 53.129C74.4 53.129 75.12 52.1645 74.88 51.9234C74.4 51.4411 74.64 49.9944 73.6801 50.2355C72 50.9589 69.6 49.7533 68.6399 51.6822C67.6799 53.8523 65.2799 52.6467 64.3199 54.0935C63.84 52.4056 61.92 53.129 60.9601 52.4056C60.2401 50.7178 58.5599 52.6467 57.6 51.4411C57.6 49.9944 60.48 51.6822 60 49.5121C59.76 49.0299 60.2401 48.3065 59.76 47.8243C59.28 47.5832 58.8 47.8243 58.0801 48.0654C56.88 49.0299 55.92 49.9944 55.2 51.4411C55.2 51.4411 54.9601 51.4411 54.9601 51.6822C54.2401 51.4411 54.24 49.7533 53.0399 50.2355C51.84 50.7178 52.7999 51.6822 53.0399 52.4056C53.0399 52.6467 53.04 52.8878 52.8 52.8878H52.5601C52.3201 52.8878 52.08 52.8878 51.84 52.8878C51.12 52.8878 50.64 52.6467 49.9199 52.6467C49.2 52.6467 49.9199 54.8168 48.72 53.6112C48 53.129 48.9601 51.6822 49.6801 51.4411C51.6 50.2355 50.64 47.1009 53.28 46.3776C51.36 46.1364 50.64 47.1009 50.16 48.5477C49.92 49.5121 49.9199 50.2355 48.72 49.0299C47.52 47.8243 44.88 50.2355 44.88 52.8878C43.4401 50.2355 41.28 51.2 39.3601 51.9234C38.4 52.1645 38.64 52.8878 37.6801 51.6822C35.76 49.5121 38.88 48.5477 38.4 46.8598C38.16 45.8953 39.12 44.4486 37.6801 43.7252C36.24 44.6897 37.6801 46.3776 36.9601 47.8243C36 49.7533 33.84 49.7533 32.88 51.2C32.16 50.4766 31.4399 49.9944 31.9199 48.7888C32.1599 47.8243 33.6 47.342 33.12 45.6542C30.96 47.1009 30.72 49.5121 29.28 50.9589C28.5601 51.9234 27.84 52.4056 27.12 52.1645H26.88C26.4 51.9234 26.16 51.6822 25.6801 50.9589C24.48 48.7888 23.52 49.271 22.5601 50.9589C21.12 53.6112 18.7201 53.3701 16.5601 52.6467C15.3601 52.1645 12.96 53.8523 12.72 50.9589C11.52 50.9589 11.04 52.6467 9.59998 52.1645C8.88 51.9234 7.92004 54.3346 7.19995 51.9234C6.95996 50.7178 6.71997 50.9589 8.88 49.0299C6.95996 49.7533 6.4801 47.1009 4.56006 48.7888C4.56006 48.7888 0 48.7888 0 48.5477V-47ZM1436.4 20.9832C1436.4 20.9832 1436.4 20.7421 1436.64 20.7421C1436.16 21.2243 1435.92 21.7065 1435.44 22.1888C1435.44 22.671 1435.44 23.1533 1435.2 23.3944C1435.68 22.671 1436.16 21.7065 1436.4 20.9832ZM1434.96 21.7065C1434.24 20.9832 1434.48 20.2598 1434.72 19.7776C1434.24 20.2598 1434.24 21.2243 1434.96 21.7065ZM1434.72 8.9271C1436.4 9.89159 1434.72 11.5794 1435.68 12.5439C1438.32 9.89159 1438.32 9.65047 1437.6 9.40934C1436.4 8.68598 1435.2 7.96262 1434.24 6.99813C1433.52 8.20374 1433.52 8.20374 1434.72 8.9271ZM1427.52 0.246727C1427.28 1.21121 1424.88 1.93458 1427.04 3.38131C1427.04 2.1757 1428.24 1.45233 1427.52 0.246727ZM1427.04 11.3383C1428.48 9.65046 1430.4 10.1327 1430.88 8.20374C1428.96 8.68598 1427.28 7.96262 1425.6 7.72149C1425.84 9.40934 1430.16 7.72149 1427.04 11.3383ZM1424.88 4.58691C1424.4 6.03364 1422.96 6.99813 1422.72 9.40934C1424.64 8.20374 1424.88 6.51589 1424.88 4.58691ZM1417.44 7.96262C1415.76 8.68598 1413.6 6.51589 1412.4 9.89159C1414.32 8.68598 1416.24 10.1327 1417.44 7.96262ZM1378.32 7.96262C1378.8 8.20374 1379.04 7.48037 1378.8 6.99813C1378.56 6.03365 1378.08 5.31028 1376.88 5.31028C1376.64 5.31028 1376.16 5.79252 1375.92 6.27477C1376.88 6.75701 1377.6 7.72149 1378.32 7.96262ZM1357.2 13.7495C1357.68 13.9907 1358.64 13.2673 1359.12 12.785C1359.36 12.5439 1359.36 12.0617 1359.12 11.8206C1358.16 10.8561 1356.72 11.0972 1355.52 11.0972C1355.04 11.0972 1354.8 11.0972 1354.8 12.0617C1356 11.8206 1356.48 13.0262 1357.2 13.7495ZM1356.96 7.96262C1355.52 5.79252 1353.36 7.48037 1351.44 7.23925C1350.72 7.23925 1350.96 8.44486 1351.2 8.68598C1351.68 9.16822 1351.44 8.20374 1351.68 7.96262C1352.4 7.48037 1353.12 7.72149 1353.6 7.96262C1355.04 8.9271 1356 8.44486 1356.96 7.96262ZM1354.56 12.3028C1352.4 11.3383 1350.96 11.5794 1349.52 13.2673C1351.44 13.5084 1352.88 13.2673 1354.56 12.3028ZM1347.12 6.75701C1344.48 6.99813 1342.32 7.96262 1339.92 9.16822C1342.56 9.16822 1344.96 8.44486 1347.12 6.75701ZM1329.12 13.5084C1330.32 12.3028 1330.8 13.2673 1331.52 13.5084C1333.44 14.2318 1333.44 14.2318 1334.4 12.0617C1331.28 13.2673 1327.92 10.3738 1325.28 13.2673C1327.2 14.4729 1327.68 14.9551 1329.12 13.5084ZM1278.72 16.4019L1279.2 16.643C1280.16 15.9196 1280.64 14.9551 1280.4 13.5084C1280.16 13.5084 1280.16 13.5084 1280.16 13.5084C1279.44 14.2318 1278.48 14.9551 1278.72 16.4019ZM1270.32 35.4505C1268.88 35.9327 1269.6 37.6206 1268.88 38.3439C1270.56 37.3794 1270.56 37.3794 1270.32 35.4505ZM1238.4 30.628C1238.16 27.4935 1236.48 29.9047 1236 30.1458C1236.48 30.1458 1237.44 30.3869 1238.4 30.628ZM1205.76 34.7271C1205.52 34.7271 1205.28 34.0037 1205.04 34.7271C1204.8 34.9682 1205.04 35.4505 1205.04 35.9327C1205.04 36.8972 1203.6 36.4149 1203.6 37.6206C1206 39.3084 1207.2 38.8262 1207.44 36.6561C1207.44 35.2093 1206.96 34.7271 1205.76 34.7271ZM1187.52 13.9907C1186.56 15.1963 1185.84 16.1607 1185.12 16.8841C1187.76 17.6075 1187.76 17.6075 1187.52 13.9907ZM1209.12 11.3383C1208.64 10.3738 1207.68 10.615 1207.2 11.3383C1206.48 12.3028 1205.52 12.0617 1203.84 12.3028C1205.76 12.5439 1206.72 13.9907 1208.16 12.785C1208.64 12.3028 1209.84 12.5439 1209.12 11.3383ZM1222.08 9.89159C1221.84 8.9271 1220.16 9.40934 1220.64 10.1327C1221.12 11.0972 1220.16 11.8206 1220.88 12.5439C1221.6 12.0617 1222.32 11.0972 1222.08 9.89159ZM1232.64 38.1028C1233.36 38.3439 1234.32 38.3439 1234.56 37.6206C1235.04 36.8972 1235.04 35.9327 1235.52 34.9682C1235.52 34.9682 1235.28 34.7271 1235.04 34.7271C1234.56 34.7271 1234.56 34.9682 1234.32 35.4505C1233.6 36.8972 1233.6 36.8972 1232.4 36.1738C1232.16 36.1738 1231.92 35.9327 1231.92 36.1738C1231.68 36.4149 1231.68 36.6561 1231.44 36.6561C1231.68 37.3794 1231.92 37.8617 1232.64 38.1028ZM1229.52 19.2953C1230.72 20.5009 1229.76 22.671 1231.44 24.3589C1231.44 21.4654 1231.2 18.572 1235.76 18.572C1234.56 18.0897 1234.08 17.6075 1233.84 17.8486C1232.64 18.0897 1231.44 18.572 1231.2 17.1252C1230.96 16.4019 1232.4 16.1607 1233.12 15.9196C1233.84 15.4374 1233.12 13.7495 1234.56 13.5084C1233.84 12.3028 1232.64 13.0262 1231.92 13.2673C1231.44 13.2673 1231.2 13.9907 1230.72 13.5084C1230.24 13.0262 1230.96 12.785 1231.2 12.3028C1231.44 11.8206 1232.88 12.0617 1232.16 11.0972C1231.92 10.8561 1231.2 9.89159 1230.48 10.615C1230 11.0972 1228.8 11.0972 1229.28 12.5439C1229.52 13.5084 1230.48 14.4729 1230 15.4374C1230 15.6785 1229.52 15.9196 1229.28 16.4019C1228.32 15.6785 1229.76 13.5084 1227.6 13.7495C1227.12 13.7495 1226.4 13.2673 1226.16 14.2318C1228.08 14.2318 1225.44 16.643 1227.6 16.643C1228.32 16.643 1229.04 16.8841 1228.56 17.3663C1226.88 18.8131 1229.04 20.2598 1227.6 21.7065C1228.8 20.9832 1228.32 19.5364 1229.52 19.2953ZM1225.92 31.3514C1227.36 31.8336 1227.6 30.8692 1227.84 29.6635C1226.88 29.6635 1225.68 28.9402 1225.2 30.3869C1225.2 30.628 1225.44 31.1103 1225.92 31.3514ZM1225.68 18.572C1223.52 18.572 1221.6 18.572 1218.96 18.572C1220.64 19.2953 1221.6 19.0542 1222.8 19.0542C1223.28 19.0542 1224.24 19.0542 1224 19.7776C1223.76 20.5009 1223.76 21.2243 1224.48 21.2243C1225.44 21.2243 1224.24 20.2598 1224.96 19.7776C1225.2 19.5364 1225.2 19.0542 1225.68 18.572ZM1216.56 36.6561C1216.56 37.1383 1217.52 37.8617 1218.24 38.585C1218.48 38.8262 1219.2 38.585 1219.44 38.3439C1220.64 36.415 1222.32 35.9327 1224.24 37.1383C1224.48 37.3794 1224.72 37.1383 1224.72 36.8972C1224.72 36.6561 1224.96 35.9327 1224.96 35.9327C1224.48 35.6916 1223.76 35.4505 1223.28 35.2093C1222.08 35.9327 1221.12 36.6561 1220.4 34.7271C1220.16 34.0037 1219.68 34.486 1219.68 34.7271C1219.2 36.4149 1216.8 34.9682 1216.56 36.6561ZM1217.04 21.4654C1217.28 21.7065 1217.76 22.1888 1218.24 21.7065C1219.68 20.5009 1218.48 19.2953 1218 17.6075C1217.28 19.0542 1216.32 20.0187 1217.04 21.4654ZM1215.84 12.785C1216.32 13.0262 1217.52 12.0617 1217.28 13.5084C1217.28 13.7495 1218 14.2318 1218.48 14.2318C1219.2 14.2318 1218.96 13.5084 1218.96 13.0262C1219.2 9.89159 1218 9.40934 1213.92 10.3738C1213.68 12.0617 1217.76 9.40934 1215.84 12.785C1213.44 13.7495 1215.6 15.1963 1215.6 16.8841C1216.56 15.1963 1215.84 13.9907 1215.84 12.785ZM1214.4 26.529C1215.12 25.0822 1213.92 23.8766 1214.4 22.9121C1212.96 23.8766 1213.68 25.0822 1214.4 26.529ZM1209.12 26.2878C1209.12 26.529 1209.84 26.529 1209.84 26.529C1210.56 25.5645 1211.04 24.6 1210.56 23.1533C1210.56 23.1533 1210.32 23.1533 1210.32 23.3944C1210.08 24.3589 1208.64 24.8411 1209.12 26.2878ZM1206.96 21.4654C1207.68 21.9477 1208.88 21.7065 1209.36 21.2243C1210.32 20.2598 1211.52 20.5009 1213.68 20.5009C1212.24 19.2953 1211.28 18.8131 1212.48 17.3663C1212.72 16.8841 1212.72 14.4729 1211.28 13.7495C1210.32 13.0262 1209.36 14.4729 1207.92 14.2318C1206.72 13.9907 1205.28 14.9551 1204.08 13.9907C1203.6 13.7495 1203.36 13.7495 1203.36 14.2318C1203.36 14.714 1202.88 15.4374 1203.6 15.6785C1203.84 15.6785 1204.08 15.4374 1204.32 15.4374C1206.24 15.6785 1207.68 17.6075 1206.96 19.2953C1206.48 20.0187 1206.24 20.9832 1206.96 21.4654ZM1205.04 20.7421C1205.52 20.9832 1206 20.9832 1206.24 20.5009C1206.24 20.2598 1206.24 19.7776 1206 19.7776C1204.56 19.0542 1202.88 18.8131 1201.44 19.5364C1200.48 20.2598 1201.44 21.2243 1202.16 21.9477C1202.64 20.0187 1203.84 20.2598 1205.04 20.7421ZM1199.76 25.5645C1200.72 25.8056 1200.72 27.4935 1201.92 27.4935C1203.36 27.4935 1204.08 26.7701 1203.84 24.3589C1202.88 26.7701 1201.44 23.3944 1200.48 25.0822C1199.28 23.1533 1200 25.3234 1199.76 25.5645ZM1196.64 35.2093C1196.64 35.4505 1197.36 35.4505 1197.36 35.4505C1197.84 34.7271 1198.8 33.7626 1197.36 32.0748C1197.12 33.5215 1195.92 34.0037 1196.64 35.2093ZM1195.44 31.8336C1191.12 30.628 1190.64 30.8692 1190.64 33.7626C1191.84 32.0748 1193.52 32.0748 1195.44 31.8336ZM1192.32 16.1607C1194 16.1607 1193.04 18.572 1194.48 18.572C1194.24 19.2953 1193.52 19.2953 1193.04 19.5364C1191.6 19.7776 1191.84 20.9832 1192.32 21.9477C1193.28 23.8766 1194.24 22.9121 1195.2 22.1888C1195.68 22.1888 1196.16 22.4299 1196.64 22.4299C1197.12 22.1888 1198.08 23.6355 1198.32 22.1888C1198.32 21.9477 1198.8 21.7065 1198.32 21.2243C1197.36 20.2598 1197.36 21.4654 1196.88 21.7065C1196.16 22.1888 1195.92 21.4654 1195.44 21.2243C1195.92 19.7776 1197.12 20.2598 1198.08 20.0187C1198.8 20.0187 1199.76 20.5009 1200 19.5364C1200.24 19.2953 1200 18.3308 1199.76 18.0897C1199.04 17.6075 1198.56 18.8131 1197.84 18.3308C1198.32 16.8841 1197.6 13.9907 1200.48 16.643C1200.96 17.1252 1201.68 16.8841 1202.16 16.643C1202.4 16.4019 1202.88 16.1607 1202.4 15.6785C1201.92 14.714 1201.44 15.4374 1201.2 15.6785C1200.24 13.0262 1195.92 16.1607 1195.68 12.5439C1195.68 12.0617 1194.72 12.5439 1194.48 13.0262C1194.24 14.2318 1193.04 14.2318 1192.56 14.714C1191.84 15.4374 1190.4 14.4729 1190.4 15.6785C1190.4 16.643 1191.6 16.1607 1192.32 16.1607ZM1189.2 40.0318C1190.16 40.0318 1189.92 39.0673 1189.92 38.585C1189.92 38.1028 1189.92 37.6206 1188.96 37.8617C1188.48 38.1028 1188 38.585 1188.24 39.3084C1188.24 39.7906 1188.72 40.0318 1189.2 40.0318ZM1187.52 23.6355C1187.76 21.7065 1188 20.2598 1190.64 20.5009C1186.56 19.0542 1186.08 19.0542 1184.64 21.4654C1186.08 21.2243 1187.52 21.2243 1187.52 23.6355ZM1186.56 27.0112C1185.84 26.529 1185.84 25.0822 1184.88 25.0822C1184.64 25.0822 1184.4 25.8056 1184.4 26.0467C1184.64 27.0112 1185.12 27.4935 1186.56 27.0112ZM1177.44 21.9477C1177.92 20.9832 1179.6 21.7065 1180.56 21.7065C1180.8 21.7065 1180.56 23.6355 1181.28 21.9477C1181.52 21.2243 1181.76 20.7421 1180.8 20.5009C1180.56 20.5009 1180.08 20.5009 1179.6 20.7421C1178.64 20.9832 1178.16 20.5009 1177.44 20.2598C1178.4 19.7776 1177.92 18.572 1178.4 18.3308C1180.08 17.8486 1179.84 17.1252 1178.88 16.4019C1178.16 15.6785 1176.96 14.2318 1176 15.9196C1175.52 16.643 1174.8 17.1252 1174.08 17.3663C1175.04 17.8486 1176.48 17.1252 1176.72 18.3308C1176.96 19.0542 1176 19.7776 1175.52 20.2598C1175.04 20.9832 1173.12 21.7065 1174.32 22.9121C1175.52 23.6355 1176.72 23.6355 1177.44 21.9477ZM1174.08 33.0392C1175.28 33.0392 1175.76 34.7271 1176.96 34.0037C1177.2 34.0037 1177.2 33.2804 1177.2 33.2804C1176 32.557 1174.8 32.0748 1173.36 32.557C1173.84 32.7981 1173.84 33.0392 1174.08 33.0392ZM1170.72 25.3234C1169.28 24.8411 1167.84 24.8411 1166.88 26.2878C1168.8 27.4935 1169.28 24.3589 1170.72 25.3234ZM1148.88 35.6916C1149.36 32.7981 1149.6 33.0392 1146.72 33.5215C1145.76 33.7626 1144.56 33.7626 1143.84 34.2449C1145.04 36.6561 1147.44 33.2804 1148.88 35.6916ZM1137.12 29.6635C1136.64 26.2878 1134.96 27.7346 1133.28 28.2168C1134.48 29.4224 1135.92 28.4579 1137.12 29.6635ZM1133.52 43.8897C1133.52 44.1308 1134.48 44.1308 1134.72 43.6486C1135.2 42.6841 1135.2 41.2374 1134.24 40.7551C1133.04 40.2729 1132.56 40.2729 1133.52 38.585C1132.32 40.0318 1132.08 42.2019 1129.44 40.9963C1130.64 42.9252 1133.04 41.7196 1133.52 43.8897ZM1128.72 36.1738C1128.96 36.1738 1129.68 35.6916 1129.44 35.2093C1129.44 34.486 1129.44 33.5215 1128.24 33.5215C1126.8 33.5215 1128.72 34.7271 1127.76 34.7271C1127.52 35.6916 1128.24 36.1738 1128.72 36.1738ZM1121.52 23.1533C1121.04 23.8766 1120.56 24.3589 1121.76 24.3589C1122.48 24.3589 1122.72 23.8766 1122.72 23.1533C1122.96 22.1888 1122 21.9477 1121.52 21.9477C1119.84 22.1888 1122.24 22.9121 1121.52 23.1533ZM1105.92 22.1888C1105.92 22.4299 1106.16 23.1533 1106.16 23.1533C1107.6 22.9121 1108.08 21.4654 1109.52 20.5009C1108.08 20.7421 1106.4 20.2598 1105.92 22.1888ZM1115.04 36.1738C1115.28 35.9327 1115.04 35.4505 1114.8 35.4505C1113.6 35.2093 1112.88 36.1738 1111.92 36.6561C1113.12 37.6206 1114.08 36.6561 1115.04 36.1738ZM1110.48 25.0822C1110.96 24.3589 1113.12 25.0822 1111.68 22.9121C1111.44 22.671 1113.12 21.9477 1114.08 21.4654C1112.64 21.7065 1110.96 19.7776 1110.24 22.671C1109.76 24.3589 1107.6 24.8411 1106.16 25.8056C1105.2 26.2878 1104.24 26.7701 1104.24 28.2168C1105.92 26.0467 1109.04 27.4935 1110.48 25.0822ZM1089.84 25.8056C1089.84 26.529 1090.32 27.0112 1090.8 26.529C1091.28 25.8056 1092.72 26.529 1092.72 25.3234C1092.72 24.8411 1092.24 24.1177 1091.76 24.6C1091.04 25.0822 1089.6 24.3589 1089.84 25.8056ZM1073.76 39.7906C1075.44 38.8262 1077.6 40.0318 1079.04 38.8262C1079.76 39.7906 1078.32 40.7551 1079.52 41.4785C1080.24 41.7196 1080.24 40.7551 1080.72 40.2729C1081.68 39.3084 1080.96 39.0673 1080.24 38.3439C1078.08 36.6561 1075.68 36.8972 1073.52 37.1383C1073.04 37.1383 1071.84 37.3794 1072.08 38.1028C1072.08 39.0673 1073.04 40.2729 1073.76 39.7906ZM1058.16 41.9607C1057.68 40.514 1057.44 39.5495 1056.96 38.8262C1054.8 40.514 1052.4 36.6561 1050.24 39.3084C1052.4 41.4785 1055.52 40.2729 1058.16 41.9607ZM1045.44 24.6C1048.32 25.3234 1050.96 27.0112 1052.88 28.4579C1055.04 28.4579 1056.96 26.529 1058.16 29.1813C1058.4 29.4224 1059.6 28.9402 1060.08 28.2168C1060.56 27.2523 1059.6 27.4935 1059.12 27.2523C1057.44 25.5645 1055.52 26.7701 1053.84 26.529C1050.96 26.2879 1048.8 24.3589 1045.92 23.8766C1045.68 23.8766 1045.44 23.1533 1045.2 23.6355C1045.44 23.8766 1045.44 24.6 1045.44 24.6ZM1036.56 39.7906C1037.28 40.2729 1037.28 38.8262 1038 38.3439C1037.76 41.9607 1040.88 40.7551 1043.04 41.4785C1042.08 38.585 1039.2 39.7906 1038 38.3439C1038 38.3439 1038 38.3439 1038 38.1028C1038 36.8972 1036.8 37.1383 1035.84 36.4149C1036.32 38.1028 1035.6 39.3084 1036.56 39.7906ZM1015.44 48.2299C1013.76 47.0243 1012.8 47.5065 1011.6 47.9888C1012.56 48.7121 1013.76 48.7122 1015.44 48.2299ZM979.44 25.8056C978.72 26.0467 978.96 26.529 980.4 26.7701C980.88 26.7701 981.12 27.7346 982.08 27.0112C981.36 25.8056 980.64 25.3234 979.44 25.8056ZM985.2 33.0392C989.52 34.2449 993.84 33.2804 997.92 33.5215C993.6 33.2804 989.52 31.5925 985.2 33.0392ZM995.28 40.9963C994.56 40.514 994.08 41.2374 994.08 41.7196C994.08 43.1664 995.28 42.9252 996.24 42.6841C996.96 43.1664 997.92 43.1664 997.92 42.443C997.92 40.514 996.24 41.4785 995.28 40.9963ZM1003.92 48.471C999.6 47.2654 995.28 47.7477 990.96 47.5065C995.04 47.7477 999.36 49.4355 1003.92 48.471ZM994.32 50.1589C992.4 48.471 990.96 49.4355 989.52 50.1589C991.2 50.1589 992.64 50.1589 994.32 50.1589ZM993.6 41.4785C991.92 40.7551 990.72 41.2374 989.28 41.2374C990.48 41.7196 991.68 42.9252 993.6 41.4785ZM985.2 37.6206C988.56 37.6206 991.92 37.6206 995.52 37.6206C996 37.6206 996.48 37.6206 996.96 37.6206C992.88 37.6206 989.28 36.415 985.44 35.9327C984.96 35.9327 984 35.4505 984 36.6561C984 37.1383 984.48 37.6206 985.2 37.6206ZM983.04 50.4C983.28 46.542 982.8 46.0598 978.72 45.3364C981.12 46.3009 980.16 49.9177 983.04 50.4ZM983.28 42.6841C982.32 40.9963 980.88 42.2019 979.2 40.9963C980.16 44.1308 981.6 42.9252 983.28 42.6841ZM983.76 29.9047C981.84 28.6991 980.4 30.1458 978.48 30.1458C980.4 31.5925 981.84 31.3514 983.76 29.9047ZM969.6 30.8692C970.56 31.1103 971.76 32.557 973.2 31.3514C972.24 29.6636 970.56 30.8692 969.6 30.8692ZM970.32 33.7626C969.84 34.0037 970.08 34.486 970.32 34.7271C971.28 35.9327 972.24 33.7626 973.2 34.7271C972.24 33.5215 971.28 33.2804 970.32 33.7626ZM969.36 37.8617C971.28 39.5495 973.44 40.2729 975.84 41.2374C975.6 39.5495 972.24 39.5495 974.64 37.6206C974.64 37.6206 974.64 37.1383 974.4 37.1383C973.2 36.415 972.48 37.3794 971.76 37.8617C970.08 38.3439 973.2 34.9682 970.56 36.4149C970.08 36.6561 969.36 35.4505 969.12 36.6561C968.64 37.1383 968.88 37.6206 969.36 37.8617ZM962.88 27.0112C962.88 26.7701 962.16 26.529 961.92 26.7701C960.72 27.2523 961.68 28.2168 961.44 28.9402C962.16 28.2168 963.36 28.2168 962.88 27.0112ZM964.08 34.7271C963.12 32.3159 961.92 30.8692 960.48 29.9047C960.48 31.8336 962.16 32.7981 964.08 34.7271ZM953.52 28.4579C953.76 28.9402 953.52 29.9047 954.48 29.6635C954.96 29.6635 955.2 28.9402 955.68 28.4579C955.2 27.9757 954.72 27.4935 954.24 27.0112C953.76 27.7346 953.04 27.7346 953.52 28.4579ZM936.96 47.2654C937.44 47.7477 937.92 47.5065 938.4 47.0243C939.12 46.3009 940.08 45.5776 941.04 44.8542C939.12 44.1308 938.64 45.5776 937.44 45.8187C936.96 46.0598 936.48 46.5421 936.96 47.2654ZM929.28 46.7832C930.24 46.0598 931.2 45.5776 931.44 44.1308C930.96 44.1308 930.96 43.8897 930.96 43.8897C930 44.372 929.04 45.0953 928.8 46.0598C928.56 46.3009 929.28 46.7832 929.28 46.7832ZM923.52 53.0523C923.52 53.2935 924 53.0523 924.24 53.2934C924.24 52.0878 926.64 52.329 925.92 50.6411C925.92 50.4 926.16 50.1589 926.4 49.6766C926.4 49.4355 926.16 49.4355 926.16 49.1944C925.68 49.4355 924.96 49.9177 924.72 50.4C924.24 51.1234 922.8 51.6056 923.52 53.0523ZM924 40.9963C925.2 40.9963 925.92 40.0318 926.64 39.3084C926.88 39.0673 925.68 38.585 924.96 38.1028C924.24 38.8262 922.8 38.585 922.56 40.0318C923.04 40.514 923.28 41.2374 924 40.9963ZM913.44 34.7271C913.92 35.2093 914.88 35.6916 915.36 35.4505C917.04 34.0037 918.72 35.2093 920.4 34.9682C922.8 36.1738 922.56 33.7626 924 32.7981C921.84 32.557 921.84 34.7271 920.4 34.9682C920.16 34.486 920.88 33.2804 919.2 34.0037C917.76 34.7271 918.48 33.0392 918.24 32.557C918 31.8336 918.72 30.628 917.28 30.628C916.32 30.628 915.36 30.8692 915.12 32.0748C915.12 32.557 913.92 33.2804 914.16 33.7626C914.4 34.486 912.48 33.7626 913.44 34.7271ZM908.16 29.1813C906.96 28.4579 905.76 28.9402 904.32 28.9402C904.8 29.1813 904.8 29.4224 904.8 29.4224C906 28.9402 906.96 30.628 908.16 29.9047C908.4 29.6635 908.4 29.4224 908.16 29.1813ZM909.84 51.1234C910.32 52.0879 909.6 53.2935 911.04 53.0523C912.24 53.0523 912.24 52.0879 912 51.1234C911.76 50.4 912.24 49.1944 910.8 49.4355C909.84 49.9178 909.36 50.6411 909.84 51.1234ZM907.44 47.9888C907.92 46.7832 909.12 48.471 909.6 47.5065C909.84 46.7832 911.52 47.5065 911.28 46.0598C911.28 45.0953 910.56 45.3364 910.56 45.5776C910.32 46.5421 909.36 45.5776 909.12 46.0598C908.64 46.5421 907.44 45.8187 907.44 47.0243C907.2 47.2654 907.2 47.5065 907.44 47.9888ZM908.16 37.1383C906.24 37.1383 904.32 36.8972 902.88 35.4505C903.6 38.3439 905.28 38.8262 908.16 37.1383ZM904.56 42.9252C904.08 43.4075 903.84 42.9252 903.36 42.9252C903.6 43.8897 903.84 44.8542 904.08 45.5776C904.8 44.8542 905.28 43.8897 904.56 42.9252ZM901.92 54.4991C903.36 54.9813 903.12 53.2935 904.32 53.0523C903.12 52.5701 902.4 52.5701 901.68 53.5346C901.44 53.7757 901.44 54.2579 901.92 54.4991ZM903.84 47.5065C903.84 47.5065 904.08 46.7832 903.84 46.7832C902.64 46.0598 901.68 47.0243 900.24 46.7832C901.44 48.471 902.64 47.7477 903.84 47.5065ZM899.04 41.9607C896.88 43.4075 897.12 46.3009 895.92 48.471C898.08 46.7832 898.08 44.1308 899.04 41.9607ZM892.08 32.557C891.36 33.7626 890.64 34.7271 890.4 36.1738C891.6 35.2093 892.8 34.2449 892.08 32.557ZM885.36 44.8542C885.6 45.5776 886.08 46.3009 885.6 47.0243C884.16 49.6766 886.32 47.7477 886.8 47.9888C887.04 48.2299 886.32 49.4355 887.52 48.7121C888.24 48.2299 889.2 46.7832 888.72 49.1944C888.48 49.9178 889.2 49.4355 889.44 49.1944C890.16 48.471 890.88 47.5065 890.88 46.5421C890.88 46.0598 890.16 46.0598 889.68 46.0598C888.48 46.0598 887.28 45.8187 887.28 47.5065C887.28 47.5065 887.04 47.7477 886.8 47.7477C886.56 46.0598 886.32 44.372 886.08 42.6841C884.88 43.1664 885.12 44.1308 885.36 44.8542ZM867.84 28.6991C866.88 29.9047 865.92 30.8692 865.92 32.557C866.4 31.1103 868.32 30.628 867.84 28.6991ZM868.08 33.2804C867.36 34.0037 865.68 32.557 865.44 34.0037C865.44 34.486 865.44 35.6916 866.16 36.8972C866.64 35.2093 868.32 34.9682 868.08 33.2804ZM882.24 39.7906C882.24 38.8262 883.68 39.0673 883.68 37.8617C883.68 37.6206 883.44 36.8972 883.2 37.1383C882.48 37.6206 882 38.3439 881.52 39.0673C881.52 39.3084 882 39.5495 882.24 39.7906ZM878.88 40.7551C879.84 41.4785 879.6 40.2729 879.84 40.0318C881.28 38.585 880.8 35.6916 883.44 34.9682C882 34.486 880.56 33.5215 880.56 36.4149C880.56 37.6206 879.84 38.8262 878.88 39.5495C878.16 39.7906 878.4 40.2729 878.88 40.7551ZM876.24 36.1738C876.72 35.6916 877.44 35.2093 877.44 34.2449C877.44 32.7981 876.72 31.1103 879.36 30.628C880.08 30.3869 878.88 27.9757 879.84 26.529C876.96 28.9402 877.44 33.0392 874.8 35.2093C874.56 35.4505 874.8 35.9327 874.8 36.1738C874.8 35.2093 875.76 36.4149 876.24 36.1738ZM872.16 44.1308C874.08 42.2019 875.28 40.2729 873.6 37.3794C872.88 39.3084 870.48 40.514 871.2 42.9252C869.52 42.6841 869.28 44.372 869.04 45.0953C868.8 46.3009 868.32 47.2654 867.36 47.9888C870.48 48.9533 870.48 48.9533 872.16 44.1308ZM865.2 53.7757C865.68 53.7757 868.08 50.4 867.84 49.9178C867.84 49.6766 867.36 49.6766 866.88 49.6766C866.16 50.6411 865.44 51.8467 864.72 53.0523C864.48 53.2935 864.72 53.7757 865.2 53.7757ZM865.68 50.4C865.92 42.443 870.96 37.1383 873.84 30.8692C874.56 29.4224 875.04 27.9757 875.28 26.2878C870.72 34.2449 866.16 42.443 861.6 50.4C864 47.9888 864.24 47.9888 865.68 50.4ZM855.84 46.7832C856.32 44.8542 857.52 44.8542 858.96 45.0953C861.36 45.5776 861.6 45.0953 862.08 42.443C861.12 43.4075 859.92 45.3364 859.44 42.443C859.2 41.7196 858.72 41.4785 858.24 42.443C858.24 42.6841 858 42.9252 857.76 42.9252C855.12 43.8897 855.12 43.8897 855.84 46.7832ZM855.6 37.3794C855.36 38.8262 855.12 40.2729 854.88 41.7196C856.56 40.2729 856.08 38.8262 855.6 37.3794ZM854.4 34.0037C855.12 35.9327 857.76 37.1383 859.44 36.4149C859.92 36.1738 859.92 35.6916 859.92 35.4505C856.56 34.0037 858.24 31.8336 858.72 29.6635C858.72 29.4224 858.72 29.4224 858.48 28.9402C857.04 29.6636 856.8 31.1103 856.32 31.8336C856.08 32.3159 856.08 34.0037 854.64 33.0392C854.4 33.0392 854.16 33.5215 854.4 34.0037ZM852.24 32.3159C853.68 32.0748 852.96 31.1103 853.2 29.9047C852.24 30.3869 851.28 30.628 851.52 31.8336C851.52 32.3159 851.76 32.557 852.24 32.3159ZM850.32 42.443C850.32 42.6841 850.8 42.6841 851.04 42.9252C851.52 41.7196 852.48 40.7551 851.76 39.3084C850.32 39.7906 850.08 40.9963 850.32 42.443ZM846.24 49.9178C846.96 50.6411 847.44 49.9178 847.92 49.4355C848.64 48.7122 848.16 48.471 847.68 47.9888C846 46.3009 847.68 44.6131 847.68 42.6841C847.68 41.4785 848.16 40.0318 848.4 38.585C849.12 36.6561 849.6 34.486 849.6 32.3159C848.64 34.2449 847.44 36.1738 848.4 38.585C846.48 39.3084 847.2 41.4785 847.2 42.443C847.44 44.6131 845.04 46.0598 846.24 48.2299C843.84 49.4355 846 49.9178 846.24 49.9178ZM841.44 29.1813C840.96 31.1103 839.76 32.0748 840.72 33.5215C842.16 32.3159 841.44 31.1103 841.44 29.1813ZM841.2 50.6411C842.16 50.6411 841.44 49.6766 841.68 48.9533C841.2 48.471 842.4 47.2654 840.96 47.0243C839.52 47.0243 840.72 48.471 840 48.7121C840.24 49.6766 840 50.8822 841.2 50.6411ZM836.16 35.4505C836.16 34.2449 835.92 34.2449 835.2 34.9682C835.68 33.2804 835.44 31.8336 834.96 30.1458C835.2 31.8336 833.28 33.5215 835.2 34.9682C835.2 34.9682 835.2 34.9682 835.2 35.2093C834.96 36.8972 834 36.1738 833.28 35.6916C832.8 37.8617 835.44 36.6561 835.68 38.8262C835.68 37.1383 835.92 36.1738 836.16 35.4505ZM834 47.5065C834 47.5065 834.24 47.9888 834.48 47.9888C834.72 47.9888 835.2 47.7477 835.2 47.7477C834.96 46.7832 835.92 46.0598 835.2 45.0953C834.48 43.8897 833.76 44.372 832.56 44.372C833.52 45.3364 835.44 45.8187 834 47.5065ZM829.2 44.8542C829.44 43.8897 828.72 42.9252 829.92 41.9607C830.88 41.2374 829.44 40.9963 828.96 40.7551C827.76 40.0318 828.48 41.2374 828.48 41.4785C827.52 42.9252 827.76 45.0953 826.08 46.5421C828 47.2654 828.48 46.5421 829.2 44.8542ZM821.04 49.9178C821.28 49.9178 821.76 49.6766 822 49.4355C822.24 48.471 821.28 48.2299 820.56 47.7477C820.08 48.7121 819.84 49.6766 821.04 49.9178ZM809.04 47.0243C810 47.2654 810.96 47.5065 811.44 46.5421C811.68 46.3009 811.68 45.5776 811.2 45.3364C810.48 45.0953 810.48 46.0598 810 46.0598C809.52 44.6131 810.24 43.6486 809.52 42.443C808.56 43.6486 810.24 45.5776 808.32 46.5421C808.08 46.5421 808.8 46.7832 809.04 47.0243ZM804.48 55.9458C805.68 54.2579 804.48 52.329 805.68 50.8822C805.92 50.6411 805.44 50.1589 804.96 50.1589C804.24 50.1589 803.76 50.4 804 51.1234C804.24 52.8112 803.76 54.2579 804.48 55.9458ZM802.56 35.2093C801.6 34.486 800.88 35.6916 801.36 36.1738C801.84 36.6561 801.36 37.6206 802.08 37.8617C802.32 37.1383 803.76 36.1738 802.56 35.2093ZM801.84 55.2224C802.08 55.4635 802.32 55.4635 802.56 55.2224C803.28 54.4991 803.04 53.7757 802.8 52.8112C802.56 52.0878 802.32 51.6056 801.84 50.6411C800.64 51.6056 801.6 52.329 801.36 53.0523C801.12 54.0168 801.12 54.7402 801.84 55.2224ZM799.68 50.1589C801.12 48.9533 802.08 47.7477 800.4 46.0598C800.4 47.5065 798.72 48.7121 799.68 50.1589ZM792.72 47.7477C793.44 47.2654 794.4 47.2654 795.36 47.2654C796.08 48.471 793.92 49.9178 795.84 51.3645C796.32 48.9533 796.32 47.0243 795.12 45.0953C793.92 45.3364 794.88 48.2299 792.72 46.5421C792.24 46.3009 791.52 46.7832 791.76 47.2654C791.76 47.7477 792 47.9888 792.72 47.7477ZM792.24 45.0953C792.96 44.8542 792.72 44.6131 792.72 44.372C792.48 43.4075 793.2 42.2019 792.24 40.9963C792.24 40.9963 791.52 40.9963 791.52 41.2374C791.28 42.6841 791.28 44.1308 792.24 45.0953ZM790.8 38.1028C791.28 38.1028 791.52 37.8617 791.52 37.3794C791.52 36.6561 791.28 35.9327 790.56 35.6916C790.32 35.6916 789.12 35.6916 789.36 36.4149C789.36 37.1383 790.32 37.6206 790.8 38.1028ZM788.16 47.7477C788.4 48.2299 788.64 48.2299 789.36 48.2299C791.28 47.7477 789.6 46.3009 790.08 45.5776C789.36 46.3009 787.44 46.0598 788.16 47.7477ZM787.44 38.8262C788.16 37.3794 787.92 35.6916 788.4 34.0037C786.96 35.2093 786.48 36.8972 787.44 38.8262ZM781.2 56.6692C781.44 56.428 781.68 56.428 781.92 56.1869C782.4 54.9813 781.68 54.0168 780.72 53.5346C780 54.7402 780.96 55.7047 781.2 56.6692ZM777.36 48.9533C778.32 48.471 776.88 46.3009 779.04 47.2654C779.76 47.5065 780.24 46.3009 780 45.5776C779.76 44.8542 779.04 44.372 778.32 44.6131C777.36 44.8542 776.64 45.3364 776.16 46.5421C775.68 48.2299 776.88 48.2299 777.36 48.9533ZM772.32 45.0953C773.76 46.3009 772.56 47.7477 773.04 48.9533C773.76 47.5065 773.76 46.0598 773.52 44.6131C773.52 43.8897 773.04 43.8897 772.56 43.8897C772.32 43.8897 771.84 44.1308 771.84 44.1308C771.84 44.6131 772.08 44.8542 772.32 45.0953ZM762.24 32.3159C762.24 32.557 762.72 33.2804 762.72 33.2804C763.44 32.7981 764.4 32.557 765.12 32.0748C764.16 32.557 762.72 31.1103 762.24 32.3159ZM767.76 35.6916C768.48 37.6206 768.48 39.3084 767.28 40.7551C767.04 40.9963 767.28 41.4785 767.52 41.4785C767.76 41.4785 768.24 41.4785 768.48 41.2374C769.44 40.7551 768.96 36.6561 767.76 35.6916ZM768 54.9813C768.48 54.9813 768.96 54.4991 768.96 54.0168C768.96 53.2934 768.24 53.0523 767.52 53.0523C766.8 53.0523 766.56 53.5346 766.56 54.2579C766.56 54.9813 767.52 54.7402 768 54.9813ZM766.08 55.2224C765.84 53.5346 765.36 52.329 764.16 51.8467C763.92 51.6056 763.2 52.329 763.2 52.5701C763.68 53.7757 764.64 54.4991 766.08 55.2224ZM764.16 48.2299C764.88 48.471 764.16 49.9178 764.64 50.6411C765.6 50.1589 766.8 50.1589 767.28 49.1944C767.52 48.7121 768 48.471 768.24 48.7121C769.68 50.4 769.68 48.9533 769.68 47.9888C769.92 47.2654 769.92 46.5421 770.16 45.8187C768 47.7477 765.36 47.0243 763.92 44.372C763.68 43.8897 762.96 43.4075 762.48 43.4075C762 43.4075 762.24 44.1308 762 44.6131C761.04 45.8187 761.76 47.2654 761.76 48.2299C761.52 49.4355 761.76 50.8822 761.52 52.329C763.2 51.6056 761.76 49.1944 764.16 48.2299ZM755.52 48.9533C755.76 49.4355 756.24 50.1589 756.48 49.6766C757.44 48.471 760.8 48.9533 759.36 46.0598C758.64 46.3009 758.4 46.7832 758.16 47.5065C757.44 46.7832 758.16 45.8187 757.2 45.3364C756.96 45.3364 756.72 45.3364 756.72 45.3364C757.2 46.7832 754.32 46.7832 755.52 48.9533ZM750.96 27.7346C749.76 28.2168 748.8 28.9402 747.84 30.1458C749.04 29.9047 750.48 30.1458 751.2 28.6991C751.44 28.4579 750.96 27.4935 750.96 27.7346ZM751.2 40.9963C750.96 40.7551 750.72 40.514 750.48 40.7551C749.52 41.4785 750 42.443 750.24 42.9252C750.48 42.2019 751.92 41.9607 751.2 40.9963ZM749.76 55.9458C750.48 56.9103 750.96 55.7047 751.44 55.7047C752.88 55.2224 752.16 54.9813 751.44 54.2579C750.96 53.7757 751.92 52.5701 751.44 51.6056C750.24 51.8467 750 53.0523 749.52 53.7757C748.8 54.7402 749.28 55.2224 749.76 55.9458ZM744 50.8822C745.68 51.6056 744.96 50.1589 744.96 49.4355C744.96 49.1944 745.44 48.7121 745.68 48.7121C746.88 48.9533 745.68 50.1589 746.64 50.6411C747.36 50.1589 748.56 49.4355 747.84 47.9888C747.36 47.2654 748.08 47.5065 748.56 47.5065C749.04 47.5065 748.56 48.7122 749.28 48.2299C749.52 47.9888 749.76 46.7832 749.04 46.3009C748.56 46.0598 748.08 45.3364 747.84 46.3009C747.6 46.7832 747.36 47.2654 746.88 47.5065C745.68 46.5421 747.6 45.8187 746.88 44.8542C745.68 45.8187 745.44 47.5065 744 48.471C743.28 48.471 743.04 50.4 744 50.8822ZM742.56 40.0318C743.04 39.3084 744.24 38.8262 744 37.8617C744 37.6206 743.28 37.6206 743.04 37.6206C741.84 38.1028 742.8 39.3084 742.56 40.0318ZM723.36 35.9327C722.64 34.9682 721.68 35.4505 720.48 35.4505C721.44 36.4149 721.44 37.6206 722.88 36.6561C723.12 36.4149 723.6 36.1738 723.36 35.9327ZM740.16 50.8822C738.96 52.0878 738.48 53.0523 740.16 54.4991C740.16 53.0523 740.16 52.0878 740.16 50.8822ZM740.4 58.8392C739.92 59.3215 739.2 60.286 738.24 60.0449C737.04 59.8037 737.04 60.7682 737.04 61.2505C736.8 62.6972 735.84 63.4206 734.64 64.1439C737.52 63.1794 739.44 61.4916 740.4 58.8392ZM735.12 55.9458C735.84 55.4636 736.56 54.7402 737.28 54.0168C737.28 54.0168 737.04 53.2934 736.8 53.2934C735.36 53.0523 735.6 54.9813 733.68 55.2224C734.64 55.7047 735.12 55.9458 735.12 55.9458ZM733.2 48.471V47.7477C732 47.0243 731.04 47.7477 730.08 48.471C731.04 49.4355 732.24 48.9533 733.2 48.471ZM729.36 30.8692C727.68 31.5925 726.24 31.5925 725.52 33.5215C727.2 33.0392 728.4 32.7981 729.36 30.8692ZM728.4 47.7477C725.28 50.4 722.64 53.7757 719.76 56.6692C723.12 54.2579 726 51.3645 728.4 47.7477ZM717.12 48.7121C717.36 48.9533 718.32 49.1944 718.56 48.9533C719.28 47.9888 720.96 48.2299 720.96 46.5421C719.52 46.3009 718.56 46.5421 717.36 47.5065C716.88 47.9888 716.88 48.471 717.12 48.7121ZM714.48 27.7346C714.48 28.6991 712.56 28.2168 713.04 29.6635C713.04 29.9047 713.52 30.1458 713.76 30.1458C714.96 29.9047 714.72 28.9402 714.48 27.7346ZM714 45.8187C714.48 47.7477 712.56 48.9533 712.56 51.1234C714.48 49.4355 714.24 47.7477 714 45.8187ZM709.92 40.9963C711.6 39.0673 710.16 38.585 709.2 37.6206C708.72 39.0673 709.92 39.7906 709.92 40.9963ZM565.44 69.8168C565.2 70.0579 564.96 70.0579 564.72 70.2991C564.96 70.2991 565.2 70.2991 565.44 69.8168Z" fill="#060403"/>
<path d="M1439.52 40.9963C1439.52 41.9608 1439.52 42.9252 1439.52 43.8897C1437.6 43.8897 1435.68 42.9252 1433.76 44.372C1432.8 45.0953 1432.8 44.6131 1432.08 43.8897C1430.64 42.6841 1428.96 41.7196 1426.8 41.9608C1430.88 41.4785 1435.2 40.2729 1439.52 40.9963Z" fill="#060403"/>
<path d="M1179.12 52.329C1181.28 51.8467 1183.44 53.7757 1185.36 52.8112C1187.28 51.8467 1189.68 53.5346 1191.36 51.8467C1191.36 52.329 1193.52 51.6056 1191.84 53.0523C1191.12 54.0168 1193.04 53.7757 1193.52 54.258C1194 54.7402 1194.48 54.258 1194.48 53.5346C1194.48 53.0523 1194.24 52.329 1195.44 52.329C1195.44 53.7757 1195.92 55.2224 1195.2 56.1869C1194.96 56.6692 1192.8 57.1514 1192.32 55.2224C1192.08 55.4636 1191.6 55.7047 1191.6 55.4636C1189.44 54.258 1187.52 57.8748 1185.12 55.9458L1184.88 56.1869C1183.68 54.7402 1182.96 56.6692 1181.52 56.428C1179.6 56.1869 1177.44 54.7402 1175.52 56.6692C1175.04 57.1514 1174.8 56.428 1174.32 56.1869C1173.84 56.1869 1173.12 55.9458 1173.12 56.6692C1172.88 58.357 1172.4 57.8748 1171.68 57.1514C1170.96 56.428 1170.24 56.9103 1169.52 56.6692C1167.6 55.7047 1165.44 57.1514 1163.76 56.1869C1165.44 55.9458 1166.4 54.0168 1168.08 53.7757C1171.68 53.2935 1175.52 53.0524 1179.12 52.329Z" fill="#060403"/>
<path d="M1132.56 55.4636C1135.2 54.258 1137.12 55.7047 1139.52 55.7047C1140.96 55.7047 1142.64 56.1869 1141.92 53.5346C1141.68 52.5701 1142.64 52.329 1143.6 52.329C1144.8 52.329 1144.56 52.8112 1144.32 53.5346C1143.84 54.7402 1144.8 54.9813 1145.52 54.4991C1146.48 53.7757 1147.2 54.4991 1148.16 54.0168C1148.16 54.9813 1146.72 55.2224 1147.2 55.9458C1147.92 56.9103 1148.64 55.9458 1149.36 55.7047C1150.08 55.4636 1150.8 55.4635 1151.52 55.2224C1152.48 54.9813 1152.24 54.0168 1153.2 54.0168C1154.64 54.0168 1152.96 55.4636 1153.92 55.4636C1154.16 55.4636 1154.4 55.4635 1154.4 55.2224C1155.36 54.0168 1155.36 54.0168 1157.28 54.4991C1157.28 55.2224 1155.6 55.2224 1156.08 56.428C1151.52 58.8393 1146.48 56.428 1141.92 58.5981C1141.68 58.5981 1141.44 58.5981 1141.44 58.5981C1139.52 56.1869 1137.84 58.357 1136.16 58.8393C1135.92 58.8393 1135.44 59.3215 1135.2 59.0804C1133.28 57.8748 1132.32 58.8393 1131.36 60.5271C1130.64 59.5626 1131.6 59.0804 1131.12 58.1159C1130.16 56.6692 1130.88 56.1869 1132.56 55.4636Z" fill="#060403"/>
<path d="M1024.08 61.9739C1025.04 61.9739 1024.08 63.1795 1024.56 63.6617C1023.36 63.1795 1022.88 65.1084 1022.64 64.6262C1021.44 62.9383 1020.96 64.1439 1020 64.8673C1019.76 65.1084 1019.76 66.0729 1018.8 65.5907C1017.12 64.6262 1015.2 65.3495 1013.76 65.1084C1013.28 65.8318 1014.48 66.5551 1013.52 67.2785C1013.76 64.3851 1011.12 66.314 1010.16 65.3495C1009.2 64.3851 1010.16 62.9383 1007.76 62.4561C1011.36 62.215 1014.24 61.9739 1016.64 61.2505C1019.52 59.8038 1021.44 61.7327 1024.08 61.9739Z" fill="#060403"/>
<path d="M1072.8 59.3215C1074 60.0449 1074.96 60.0449 1075.44 58.5982C1075.44 58.5982 1076.16 57.8748 1076.64 58.357C1078.8 60.0449 1080.72 58.8393 1082.64 57.8748C1084.08 57.1514 1084.56 57.3925 1084.8 58.8393C1084.8 59.5626 1084.8 60.286 1085.76 60.7683C1086 57.6337 1089.6 60.7683 1090.08 57.1514C1090.56 59.0804 1090.8 59.8038 1091.04 60.7683C1089.36 60.7683 1088.88 62.6972 1087.44 63.1795C1086.24 63.4206 1086.24 62.215 1085.76 61.7327C1084.32 64.8673 1082.64 61.4916 1082.64 61.2505C1081.2 59.8038 1081.44 61.4916 1081.2 61.9739C1081.68 62.4561 1081.92 62.9384 1081.2 63.1795C1080.72 63.4206 1080.24 63.1795 1080 62.4561C1079.28 61.0094 1077.84 60.5271 1076.4 61.4916C1074.96 62.4561 1074 60.5271 1072.8 61.2505C1072.56 60.7682 1072.32 60.286 1072.32 60.0449C1071.84 59.5626 1072.56 59.0804 1072.8 59.3215Z" fill="#060403"/>
<path d="M818.64 67.2785C820.32 66.7963 822 66.5552 822.48 68.7253C823.44 68.4841 822.24 67.0374 824.16 67.2785C826.08 67.5196 828.48 68.4841 830.64 67.0374C832.08 66.0729 834 66.7963 835.2 68.7253C835.68 69.4486 834.96 70.4131 834.72 70.172C832.56 68.4841 830.16 71.3776 828.24 69.6897C827.76 69.2075 826.56 69.2075 825.84 69.9309C824.64 71.6187 822.24 70.6542 820.8 71.8598C820.08 70.4131 817.68 72.101 817.44 69.9309C817.92 68.9664 817.44 67.7608 818.64 67.2785Z" fill="#060403"/>
<path d="M800.88 68.0018C802.08 67.2785 803.04 69.2074 803.76 68.4841C805.44 66.7962 807.36 67.7607 809.28 67.5196C814.08 67.0374 814.56 67.5196 812.88 72.342C812.88 72.342 812.64 72.342 812.4 72.5832C811.92 71.3775 810.48 69.6897 809.76 70.6542C808.56 72.5832 807.36 71.1364 806.16 71.3775C803.04 72.342 800.16 69.9308 796.56 71.6187C798.24 69.4486 799.68 68.9663 800.88 68.0018Z" fill="#060403"/>
<path d="M772.801 68.9663C774.001 69.6897 774.721 69.2075 775.921 68.4841C776.881 68.0019 778.081 68.4841 779.041 69.2075C779.521 69.4486 778.321 70.8953 779.761 70.4131C780.961 70.1719 779.761 69.2075 780.001 68.7252C781.681 68.9663 783.121 70.1719 785.041 69.2075C786.001 68.7252 786.721 68.243 786.961 69.6897C787.201 70.1719 787.44 70.4131 787.92 70.4131C789.84 70.6542 789.361 68.4841 790.32 68.0019C791.28 67.7607 791.04 70.8953 792.72 68.9663C794.16 67.2785 795.601 67.5196 797.281 68.243C796.321 68.7252 795.12 68.4841 794.16 69.2075C791.76 70.8953 789.121 71.6187 786.481 70.6542C784.801 70.1719 784.08 72.1009 783.12 71.6187C779.761 69.9308 776.161 71.8598 772.801 71.1364C772.561 71.1364 772.081 72.1009 771.841 71.3775C771.601 70.6542 771.601 69.6897 771.841 68.7252C772.081 68.7252 772.561 68.7252 772.801 68.9663Z" fill="#060403"/>
<path d="M1416 41.7196C1416.96 41.7196 1417.92 40.7551 1418.88 42.2018C1419.84 43.6486 1419.12 44.3719 1418.16 45.5776C1418.16 44.8542 1417.92 44.3719 1417.92 42.9252C1417.2 45.8187 1416 45.8187 1414.08 45.0953C1411.68 44.1308 1409.28 42.6841 1406.4 43.1663C1404.48 43.6486 1404.48 43.8897 1404 41.7196C1408.08 42.443 1412.16 41.4785 1416 41.7196Z" fill="#060403"/>
<path d="M591.121 82.5962C592.561 83.0784 594.241 83.3195 595.681 83.8018C597.121 84.284 594.961 85.7308 596.641 86.4541C596.641 85.2485 597.121 84.284 598.561 84.284C599.281 84.284 600.001 83.5607 599.761 85.0074C598.801 85.7308 597.841 85.9719 597.601 87.4186C597.601 88.142 596.401 88.6242 595.681 88.142C594.001 86.9364 592.321 85.7308 590.641 84.284C590.161 84.0429 589.921 83.5607 590.401 83.0784C590.401 82.8373 590.641 82.5962 591.121 82.5962Z" fill="#060403"/>
<path d="M1116.96 56.6692C1117.2 56.6692 1117.68 56.9103 1117.92 56.9103C1117.68 57.1514 1117.68 57.6337 1117.44 57.8748C1115.52 59.0804 1113.12 60.0449 1111.68 59.8038C1109.28 59.3215 1106.88 57.8748 1104.24 56.9103C1104.48 56.6692 1104.72 56.6692 1104.72 56.6692C1108.8 57.1514 1112.88 58.1159 1116.96 56.6692Z" fill="#060403"/>
<path d="M1001.76 61.7327C1003.92 60.7682 1005.36 62.456 1007.52 61.2504C1007.04 61.9738 1006.32 62.456 1006.56 62.456C1007.76 65.1084 1005.12 64.385 1004.64 64.1439C1001.76 62.6972 1000.32 64.6261 998.4 66.0729C997.92 66.314 997.44 66.7962 997.2 66.314C996.96 65.8317 996.72 64.385 996.96 64.6261C999.36 64.8673 1000.08 62.456 1001.76 61.7327Z" fill="#060403"/>
<path d="M1208.4 53.2935C1210.56 51.3645 1213.2 52.0879 1215.6 51.1234C1215.84 51.1234 1216.56 51.8468 1216.56 52.0879C1216.32 53.2935 1215.6 54.258 1214.64 54.9814C1214.16 55.2225 1213.68 55.4636 1213.68 54.7402C1213.2 52.329 1211.76 54.258 1211.52 54.4991C1210.56 54.9814 1210.08 55.7047 1208.88 54.7402C1208.64 54.7402 1207.92 55.7047 1207.68 54.7402C1207.2 54.0169 1207.92 53.5346 1208.4 53.2935Z" fill="#060403"/>
<path d="M918.959 65.8318C920.639 66.5552 921.839 67.5197 923.279 65.8318C923.759 66.3141 924.96 65.8318 925.2 66.7963C925.2 67.0374 925.439 67.5197 924.959 67.7608C921.839 67.7608 918.72 69.9309 915.12 67.7608C916.56 67.0374 917.519 65.1085 918.959 65.8318Z" fill="#060403"/>
<path d="M599.76 85.0074C599.519 85.0074 599.519 85.0074 599.76 85.0074Z" fill="#060403"/>
<path d="M608.16 85.7309C608.4 86.9365 606.96 86.2131 606.24 86.4543C604.56 86.9365 603.12 85.0075 601.44 86.4543C600.96 86.6954 599.52 86.2131 599.76 84.7664C601.68 83.5608 603.6 83.8019 605.52 83.8019C607.2 83.8019 607.92 84.7664 608.16 85.7309Z" fill="#060403"/>
<path d="M1065.12 59.0804C1065.36 59.3215 1065.36 59.0804 1065.12 59.0804C1065.6 60.7682 1067.04 59.5626 1067.76 60.286C1067.52 63.6617 1064.4 62.215 1062.72 63.1794C1059.84 64.8673 1061.04 62.215 1061.04 61.7327C1061.76 59.8037 1064.88 61.7327 1065.12 59.0804Z" fill="#060403"/>
<path d="M1163.76 56.428C1163.76 56.1869 1163.76 56.1869 1163.76 56.428Z" fill="#060403"/>
<path d="M1165.68 54.0169C1164.72 54.4991 1164.24 55.4636 1163.76 56.1869C1163.52 55.9458 1163.52 55.7047 1163.28 55.7047C1161.6 58.116 1158.24 55.2225 1156.56 57.6337C1156.32 57.8748 1156.32 57.6337 1156.08 56.187C1159.2 55.2225 1162.08 53.0524 1165.68 54.0169Z" fill="#060403"/>
<path d="M847.201 66.5551C847.681 68.4841 848.881 67.2785 850.081 67.2785C851.521 67.2785 852.241 65.8318 853.681 66.314C852.961 67.5196 852.481 68.9664 851.521 69.4486C850.561 69.9308 850.321 71.1365 849.121 71.1365C849.601 68.4841 847.441 70.6542 846.961 69.9308C847.441 68.9664 847.681 68.0019 846.481 67.2785C846.001 67.0374 846.241 66.5551 846.481 66.314C846.721 66.314 847.201 65.8318 847.201 66.5551Z" fill="#060403"/>
<path d="M1047.36 59.8037C1049.28 58.8392 1047.84 57.8748 1047.6 56.9103C1049.52 57.1514 1049.04 58.5981 1049.04 59.5626C1048.8 61.0093 1049.28 61.2504 1050.24 60.286C1050.96 59.5626 1050.96 60.286 1051.2 60.5271C1051.44 60.7682 1051.92 61.0093 1051.44 61.4916C1050.72 62.4561 1046.64 63.4205 1045.92 62.6972C1045.68 62.4561 1045.68 62.2149 1045.68 61.9738C1047.12 61.9738 1046.64 60.0448 1047.36 59.8037Z" fill="#060403"/>
<path d="M694.081 81.7458C694.321 80.5402 694.801 81.2635 695.041 81.5047C695.761 81.9869 696.241 82.4692 696.241 81.2635C696.481 79.3346 697.681 79.5757 698.881 79.8168C697.921 82.9514 697.201 83.4336 694.32 83.1925C693.6 83.1925 693.121 82.9514 692.881 82.4691C692.881 81.9869 693.841 82.228 694.081 81.7458Z" fill="#060403"/>
<path d="M657.36 80.4261C659.52 81.6317 661.68 79.4616 663.84 79.9439C663.84 82.3551 661.68 81.6317 660.72 82.114C659.52 82.5962 658.08 82.114 656.88 82.114C656.4 82.114 656.64 81.3906 656.64 81.1495C656.64 80.4261 657.12 80.185 657.36 80.4261Z" fill="#060403"/>
<path d="M1249.68 49.9178C1249.92 49.4355 1250.4 49.1944 1251.6 48.2299C1250.88 50.1589 1250.4 51.3645 1252.08 51.8467C1252.8 52.0879 1251.36 53.2935 1251.36 53.0523C1250.16 52.0879 1248.24 53.5346 1247.76 52.5701C1247.04 51.3645 1248.96 50.6411 1249.68 49.9178Z" fill="#060403"/>
<path d="M546.48 81.1495C546.239 80.9084 546.48 80.9084 546.48 81.1495C546.48 80.9084 546.48 80.9084 546.48 81.1495Z" fill="#060403"/>
<path d="M540 80.4262C540.48 79.944 540.961 80.4262 541.201 80.9084C541.68 82.114 542.161 81.8729 542.88 81.1496C544.08 79.9439 545.28 79.9439 546.48 81.1495C545.52 81.3907 543.6 80.4262 544.08 82.114C544.32 83.8019 543.6 83.5608 542.88 83.5608C541.921 83.5608 540.96 83.3196 540.24 83.3196C539.76 82.5963 541.2 82.3552 540.72 81.8729C540 81.1495 539.28 80.9084 540 80.4262Z" fill="#060403"/>
<path d="M702.24 79.3346C702.72 79.0935 703.44 79.5757 703.2 80.2991C702.96 81.7458 701.76 82.9514 700.32 83.4336C699.6 83.6747 698.88 83.4336 699.36 82.228C699.12 80.0579 701.28 80.0579 702.24 79.3346Z" fill="#060403"/>
<path d="M1347.36 44.8542C1348.32 43.6486 1349.28 43.6486 1350.24 44.8542C1351.2 46.3009 1351.68 45.0953 1352.64 45.0953C1351.68 45.5776 1351.44 48.7121 1349.76 45.5776C1349.28 44.6131 1348.56 45.3365 1348.32 45.8187C1348.08 46.7832 1347.6 47.5065 1346.64 46.7832C1345.44 45.8187 1346.88 45.3365 1347.36 44.8542Z" fill="#060403"/>
<path d="M647.04 79.4616C645.84 80.185 645.12 81.3906 643.2 80.6673C641.76 80.185 641.52 79.4616 641.52 78.256C642.72 80.6673 645.36 77.2916 647.04 79.4616Z" fill="#060403"/>
<path d="M574.56 82.8374C575.04 83.0785 575.52 83.5607 575.04 84.2841C574.56 84.7663 573.84 85.7308 573.6 85.0075C572.4 83.0785 571.44 85.0075 570.24 85.0075C571.2 82.5963 573.12 81.6318 574.56 82.8374Z" fill="#060403"/>
<path d="M1267.44 50.1589C1269.36 50.6412 1270.56 50.1589 1271.52 49.4356C1272.48 48.9533 1272.72 49.4356 1272.96 50.1589C1273.2 50.6412 1272.72 51.3645 1272.72 51.3645C1271.28 49.6767 1269.6 52.329 1267.44 50.6412C1267.2 51.3646 1266.24 51.8468 1265.28 51.3645C1263.36 50.6412 1264.8 48.9533 1264.32 47.5066C1266 48.23 1267.44 48.7122 1267.44 50.1589Z" fill="#060403"/>
<path d="M1320.48 46.542C1320.72 46.0598 1322.16 46.0598 1322.88 46.542C1323.12 46.7832 1323.36 47.0243 1323.12 47.5065C1322.64 48.2299 1321.92 48.471 1321.2 48.7121C1319.76 48.9532 1318.8 48.471 1317.36 47.7476C1318.56 47.2654 1319.76 47.7476 1320.48 46.542Z" fill="#060403"/>
<path d="M995.759 61.7327C994.319 63.1794 993.119 64.8673 990.479 64.8673C991.679 62.2149 993.599 61.2504 995.759 61.7327Z" fill="#060403"/>
<path d="M1383.84 42.443C1384.08 42.2019 1384.32 42.443 1384.56 42.443C1386.48 41.9607 1386.48 43.4075 1386.72 44.6131C1386.96 45.5776 1385.76 45.8187 1385.76 45.5776C1385.52 44.6131 1382.4 45.8187 1384.08 43.6486C1383.84 43.1664 1383.12 42.9252 1383.84 42.443Z" fill="#060403"/>
<path d="M1263.36 48.9532C1264.08 49.4355 1263.84 50.1589 1263.84 50.6411C1263.84 53.7757 1261.44 50.8822 1260.48 51.8467C1260.72 51.1234 1260.96 50.4 1261.2 49.6766C1261.2 47.7476 1263.12 50.6411 1263.36 48.9532Z" fill="#060403"/>
<path d="M1030.8 61.2505C1032.48 61.4916 1033.68 60.0449 1035.6 60.5271C1035.84 61.7327 1034.4 61.0094 1034.4 61.9738C1034.4 62.4561 1034.4 63.1794 1033.44 62.9383C1033.44 62.9383 1033.44 61.9738 1033.68 61.4916C1032.72 61.9738 1032.24 62.9383 1031.04 62.9383C1030.56 62.9383 1029.84 63.4206 1029.6 62.4561C1029.6 61.7327 1030.08 61.2505 1030.8 61.2505Z" fill="#060403"/>
<path d="M744.96 70.1719C744.24 72.5832 741.84 71.8598 740.159 73.5476C740.879 70.1719 742.32 69.6897 744.96 70.1719Z" fill="#060403"/>
<path d="M952.8 63.6616C953.04 63.6616 953.52 64.1439 954 64.6261C952.8 65.1083 953.76 67.2784 951.84 67.0373C951.36 67.0373 950.16 67.2784 950.4 65.5906C950.64 64.8672 951.6 63.9027 952.8 63.6616Z" fill="#060403"/>
<path d="M1360.08 43.4074C1361.04 43.1663 1361.28 43.8897 1361.04 44.8542C1361.04 45.5775 1361.28 46.7831 1360.08 46.7831C1359.36 46.7831 1358.16 46.3009 1358.16 45.0953C1358.16 43.8897 1358.88 43.4074 1360.08 43.4074Z" fill="#060403"/>
<path d="M1339.44 45.3365C1340.88 45.8187 1338 47.2655 1339.68 48.4711C1340.4 48.9533 1338.72 48.9533 1338.48 49.6767C1337.28 49.4356 1337.52 48.2299 1336.8 47.5066C1338.24 47.2655 1338.24 44.8542 1339.44 45.3365Z" fill="#060403"/>
<path d="M577.201 84.5253C576.481 85.4898 578.401 86.4542 577.201 87.1776C576.241 87.6598 575.041 87.1776 573.841 87.6599C573.361 87.901 572.881 87.1776 573.121 86.4542C575.041 86.9365 575.521 84.043 577.201 84.5253Z" fill="#060403"/>
<path d="M577.44 84.5252C576.72 83.5608 577.2 83.3196 578.16 83.0785C579.6 82.8374 581.04 82.3551 581.76 81.1495C582.72 79.7028 583.68 79.9439 584.64 80.9084C585.6 81.8729 586.56 83.3196 587.04 84.5252C588 86.9365 584.16 84.7663 584.64 86.9364C584.64 87.1776 583.92 87.4187 583.68 86.9364C582.96 85.0075 581.52 85.7308 580.32 85.972C578.88 86.4542 577.92 85.4897 577.44 84.5252Z" fill="#060403"/>
<path d="M816.481 72.101C815.521 70.4131 815.521 70.4131 815.761 66.7963C817.681 67.7608 817.921 68.243 816.481 72.101Z" fill="#060403"/>
<path d="M1318.08 45.5776C1316.16 45.3365 1316.88 46.7832 1316.4 47.5066C1315.68 48.471 1314.72 47.9888 1313.52 47.9888C1315.44 45.0953 1315.44 45.0953 1318.08 45.5776Z" fill="#060403"/>
<path d="M568.56 83.0785C568.8 83.3196 570 83.0785 569.52 83.8019C569.28 84.2841 568.56 84.2841 568.08 84.043C566.88 83.5608 565.92 82.114 564.24 82.114C566.16 80.6673 567.36 81.6318 568.56 83.0785Z" fill="#060403"/>
<path d="M1333.2 44.8542C1334.64 44.6131 1335.6 45.8187 1336.56 47.2654C1335.12 46.0598 1334.64 47.9888 1333.92 47.9888C1332.96 48.2299 1332.48 44.8542 1333.2 44.8542Z" fill="#060403"/>
<path d="M712.08 81.5046C713.76 81.5046 713.28 84.157 714.959 84.157C714.479 84.3981 713.999 84.8803 713.759 85.1215C712.319 84.8803 711.839 83.6747 711.12 82.7102C710.88 81.9869 711.36 81.5046 712.08 81.5046Z" fill="#060403"/>
<path d="M1219.92 51.3645C1219.92 53.2935 1216.08 53.5346 1218.96 55.9458C1217.52 55.4636 1216.32 55.2224 1216.32 54.0168C1216.8 52.329 1218.24 51.8467 1219.92 51.3645Z" fill="#060403"/>
<path d="M1205.28 52.0878C1205.76 52.0878 1206.96 51.8467 1206.48 53.0523C1206.24 54.2579 1205.04 54.499 1204.08 54.7402C1203.6 54.9813 1202.16 54.7401 1202.4 53.2934C1203.84 53.5345 1204.32 51.8467 1205.28 52.0878Z" fill="#060403"/>
<path d="M673.68 82.5962C675.36 82.5962 676.8 82.8373 678 83.8018C676.8 84.284 675.6 84.7663 674.64 83.5607C674.16 83.0784 673.68 83.0784 673.2 83.5607C672.96 83.8018 673.2 84.5252 672.96 84.5252C672.24 85.0074 671.76 84.5252 672 84.0429C672.48 83.5607 672.72 82.5962 673.68 82.5962Z" fill="#060403"/>
<path d="M1099.2 57.3926C1100.16 57.8748 1100.88 58.5982 1100.88 59.8038C1100.88 60.286 1100.88 60.7683 1099.92 60.7683C1099.2 60.0449 1098 59.5627 1098 58.357C1098 57.8748 1098.48 57.1514 1099.2 57.3926Z" fill="#060403"/>
<path d="M1247.04 49.1944C1247.52 48.9533 1247.76 49.6766 1247.52 50.1589C1247.04 51.1233 1246.8 52.329 1246.08 53.0523C1245.6 53.5346 1244.88 52.5701 1244.64 51.6056C1245.36 50.8822 1246.08 49.9177 1247.04 49.1944Z" fill="#060403"/>
<path d="M550.32 83.5607C548.64 83.3196 546.72 83.3196 546.48 80.9084C548.88 80.185 549.36 82.114 550.32 83.5607Z" fill="#060403"/>
<path d="M1282.8 47.0243C1283.52 47.7477 1283.28 48.2299 1282.8 48.7122C1282.32 49.1944 1282.32 50.4 1281.12 50.1589C1280.4 49.9178 1280.16 48.9533 1279.44 47.7477C1281.6 49.6767 1281.36 46.5421 1282.8 47.0243Z" fill="#060403"/>
<path d="M714.72 81.5047C714.48 80.5402 715.2 80.058 715.68 79.5757C716.4 79.0935 717.12 79.0935 717.84 79.3346C718.32 79.5757 718.08 80.0579 718.08 80.5402C716.64 80.0579 716.4 81.5047 715.92 81.9869C715.2 82.228 714.96 81.9869 714.72 81.5047Z" fill="#060403"/>
<path d="M940.32 64.1439C939.36 66.7963 939.36 66.7963 936.24 66.7963C936.72 64.6262 939.12 65.3495 940.32 64.1439Z" fill="#060403"/>
<path d="M948 65.5907C948.72 66.7963 946.56 66.7963 946.08 67.7607C945.84 68.243 945.6 68.0019 944.16 65.3495C945.84 66.0729 947.28 63.9028 948 65.5907Z" fill="#060403"/>
<path d="M1126.32 56.9103C1126.56 56.9103 1127.28 57.1514 1126.8 57.8748C1126.08 59.5626 1124.64 58.8392 1123.2 59.0804C1123.92 57.3925 1125.12 56.9103 1126.32 56.9103Z" fill="#060403"/>
<path d="M668.64 81.3906C669.12 81.3906 669.84 81.8729 669.6 82.3551C669.36 83.0785 668.64 84.043 667.2 82.8374C666.96 82.3551 665.76 84.5252 665.76 82.8374C665.76 82.114 667.44 81.6317 668.64 81.3906Z" fill="#060403"/>
<path d="M558 82.114C557.52 83.0785 556.08 82.8374 555.6 84.043C555.6 84.2841 554.88 84.5252 554.64 84.043C554.4 83.5607 554.4 83.0785 554.4 82.5962C555.6 82.5962 556.32 80.185 558 82.114Z" fill="#060403"/>
<path d="M1258.8 48.7122C1259.28 49.6767 1257.84 49.9178 1258.32 50.8823C1258.56 51.1234 1259.28 50.6412 1259.04 51.3645C1259.04 51.6056 1258.56 51.6056 1258.08 51.8468C1257.84 51.1234 1256.64 52.0879 1256.64 50.8823C1256.88 49.6767 1257.12 48.2299 1258.8 48.7122Z" fill="#060403"/>
<path d="M1240.08 49.9178C1240.32 49.9178 1240.8 49.9178 1240.56 50.4C1240.08 51.6057 1239.6 52.5701 1238.16 52.8113C1237.92 52.8113 1237.92 52.8113 1237.44 52.5701C1237.68 52.0879 1237.92 51.8468 1238.16 51.8468C1238.64 50.8823 1238.64 49.4356 1240.08 49.9178Z" fill="#060403"/>
<path d="M615.12 85.4897C616.56 86.4542 618.481 85.2485 619.681 86.6953C618.241 86.4542 616.801 86.213 615.601 86.9364C615.121 87.1775 614.641 87.1775 614.641 86.4542C614.641 86.213 614.64 85.2485 615.12 85.4897Z" fill="#060403"/>
<path d="M589.681 86.4542C587.761 85.0074 587.281 83.8018 587.521 81.8729C588.96 83.0785 589.201 84.5252 589.681 86.4542Z" fill="#060403"/>
<path d="M1202.16 51.8467C1202.64 51.8467 1202.88 52.5701 1202.64 53.2934C1201.68 53.7757 1200.96 54.499 1199.04 54.2579C1200.72 53.5345 1200.72 51.6056 1202.16 51.8467Z" fill="#060403"/>
<path d="M869.281 65.8318C869.041 67.5196 869.041 68.7252 867.601 69.6897C867.121 68.0019 867.601 66.7963 869.281 65.8318Z" fill="#060403"/>
<path d="M1330.32 44.6131C1331.04 44.1309 1331.76 44.6131 1332.24 45.3365C1331.76 45.8187 1331.76 47.0243 1331.04 47.0243C1330.08 47.2655 1330.8 45.3365 1329.6 45.5776C1329.6 45.0954 1329.84 44.8542 1330.32 44.6131Z" fill="#060403"/>
<path d="M1402.8 43.4075C1403.28 43.4075 1403.28 43.8897 1403.28 44.372C1403.28 45.8187 1402.32 45.8187 1401.12 45.5776C1401.36 44.8542 1401.36 43.4075 1402.8 43.4075Z" fill="#060403"/>
<path d="M1377.12 42.6841C1377.36 47.0243 1375.44 45.3365 1374 44.8542C1375.2 44.8542 1376.16 44.372 1377.12 42.6841Z" fill="#060403"/>
<path d="M1422.48 41.7196C1423.44 41.7196 1423.68 42.443 1423.92 43.1663C1423.92 43.8897 1423.68 44.1308 1423.2 43.8897C1422.48 43.6486 1422 42.9252 1421.76 42.443C1421.52 41.7196 1422 41.7196 1422.48 41.7196Z" fill="#060403"/>
<path d="M870.96 67.0374C871.2 67.0374 871.92 67.0374 871.92 67.2785C872.4 68.7252 870.24 68.4841 870 69.6897C869.52 68.7252 869.52 67.5196 870.96 67.0374Z" fill="#060403"/>
<path d="M1124.88 55.9458C1123.68 56.9103 1122.48 57.6337 1121.52 58.5982C1121.76 56.6692 1122.72 55.4636 1124.88 55.9458Z" fill="#060403"/>
<path d="M1231.44 50.8822C1232.16 50.8822 1232.88 51.3645 1232.88 51.8467C1232.88 52.5701 1232.16 52.8112 1231.44 53.0523C1231.2 52.8112 1230.48 53.2934 1230.72 52.3289C1230.72 52.0878 1230.48 51.1233 1231.44 50.8822Z" fill="#060403"/>
<path d="M1139.76 57.8748C1139.76 57.8748 1140.48 58.357 1140.48 58.5981C1140.72 60.0449 1139.28 59.8037 1138.32 60.286C1138.56 59.5626 1138.8 58.5981 1139.76 57.8748Z" fill="#060403"/>
<path d="M1229.04 52.0879C1229.04 52.0879 1229.04 52.5701 1229.04 52.8112C1228.56 54.0168 1227.6 53.5346 1226.64 53.5346C1227.12 52.5701 1227.84 51.8467 1229.04 52.0879Z" fill="#060403"/>
<path d="M858.96 66.314C858.72 66.7963 858.48 67.5196 858.24 68.0019C857.999 68.7252 856.319 68.4841 856.559 67.7607C856.799 66.7963 858.24 67.0374 858.96 66.314Z" fill="#060403"/>
<path d="M838.081 67.5196C838.561 68.0018 838.801 68.7252 838.561 68.9663C837.361 70.1719 837.361 67.7607 836.641 67.7607C837.121 67.5196 837.361 66.7962 838.081 67.5196Z" fill="#060403"/>
<path d="M836.641 67.7607C836.401 68.0018 836.4 68.0019 836.16 68.0019C836.4 67.7607 836.641 67.7607 836.641 67.7607Z" fill="#060403"/>
<path d="M1099.68 55.4636C1099.68 55.2225 1100.4 54.7402 1100.64 54.7402C1101.36 54.9814 1101.6 55.7047 1101.84 56.9103C1100.88 56.4281 1099.92 56.6692 1099.68 55.4636Z" fill="#060403"/>
<path d="M1058.4 60.286C1057.2 63.4206 1057.2 63.4206 1055.28 61.2505C1056.48 61.9739 1057.2 61.2505 1058.4 60.286Z" fill="#060403"/>
<path d="M931.2 65.3495C930.96 67.5196 930.96 67.5197 929.04 67.0374C930 67.0374 930 65.5907 931.2 65.3495Z" fill="#060403"/>
<path d="M1297.68 46.0598C1298.4 46.0598 1298.16 46.7832 1298.16 47.5066C1298.16 47.9888 1298.4 48.2299 1298.16 48.7122C1298.64 48.2299 1299.36 47.7477 1299.84 47.2654C1300.56 46.7832 1301.52 47.0243 1302.48 47.2654C1302.96 47.2654 1302.96 48.2299 1302.72 48.471C1302.24 49.1944 1301.28 49.9178 1300.56 49.1944C1299.6 48.2299 1298.64 50.1589 1297.92 49.1944C1297.68 48.9533 1297.44 48.471 1296.96 48.2299C1296.72 47.7477 1296 47.5066 1296.48 46.7832C1296.96 46.3009 1297.44 46.0598 1297.68 46.0598Z" fill="#060403"/>
</g>
<defs>
<clipPath id="clip0_272_166">
<rect width="1440" height="88" fill="white"/>
</clipPath>
</defs>
</svg>
