<svg width="44" height="45" viewBox="0 0 44 45" fill="none" xmlns="http://www.w3.org/2000/svg">
<g filter="url(#filter0_d_323_173)">
<path d="M38.234 35.6482C37.8435 36.0388 37.2103 36.0388 36.8198 35.6482L4.29289 3.12134C3.90237 2.73081 3.90237 2.09765 4.29289 1.70712L5.70711 0.292911C6.09763 -0.0976128 6.73079 -0.0976129 7.12132 0.292911L39.6482 32.8198C40.0388 33.2103 40.0388 33.8435 39.6482 34.234L38.234 35.6482Z" fill="url(#paint0_linear_323_173)"/>
<path d="M38.234 0.292929C37.8435 -0.0975951 37.2103 -0.0975951 36.8198 0.292929L4.29289 32.8198C3.90237 33.2104 3.90237 33.8435 4.29289 34.2341L5.70711 35.6483C6.09763 36.0388 6.7308 36.0388 7.12132 35.6483L39.6482 3.12136C40.0388 2.73083 40.0388 2.09767 39.6482 1.70714L38.234 0.292929Z" fill="url(#paint1_linear_323_173)"/>
</g>
<defs>
<filter id="filter0_d_323_173" x="0" y="0" width="43.9412" height="44.9412" filterUnits="userSpaceOnUse" color-interpolation-filters="sRGB">
<feFlood flood-opacity="0" result="BackgroundImageFix"/>
<feColorMatrix in="SourceAlpha" type="matrix" values="0 0 0 0 0 0 0 0 0 0 0 0 0 0 0 0 0 0 127 0" result="hardAlpha"/>
<feOffset dy="5"/>
<feGaussianBlur stdDeviation="2"/>
<feComposite in2="hardAlpha" operator="out"/>
<feColorMatrix type="matrix" values="0 0 0 0 0 0 0 0 0 0 0 0 0 0 0 0 0 0 0.15 0"/>
<feBlend mode="normal" in2="BackgroundImageFix" result="effect1_dropShadow_323_173"/>
<feBlend mode="normal" in="SourceGraphic" in2="effect1_dropShadow_323_173" result="shape"/>
</filter>
<linearGradient id="paint0_linear_323_173" x1="1.47046" y1="-40.0295" x2="48.9057" y2="-30.9735" gradientUnits="userSpaceOnUse">
<stop stop-color="#FFF8EC"/>
<stop offset="0.205627" stop-color="#FDE696"/>
<stop offset="1" stop-color="#C07721"/>
</linearGradient>
<linearGradient id="paint1_linear_323_173" x1="1.47046" y1="-40.0295" x2="48.9057" y2="-30.9735" gradientUnits="userSpaceOnUse">
<stop stop-color="#FFF8EC"/>
<stop offset="0.205627" stop-color="#FDE696"/>
<stop offset="1" stop-color="#C07721"/>
</linearGradient>
</defs>
</svg>
