<svg width="49" height="39" viewBox="0 0 49 39" fill="none" xmlns="http://www.w3.org/2000/svg">
<g filter="url(#filter0_d_322_163)">
<path fill-rule="evenodd" clip-rule="evenodd" d="M4 1C4 0.447715 4.44771 0 5 0H44C44.5523 0 45 0.447715 45 1V3C45 3.55228 44.5523 4 44 4H5C4.44772 4 4 3.55228 4 3V1ZM13 14C13 13.4477 13.4477 13 14 13H44C44.5523 13 45 13.4477 45 14V16C45 16.5523 44.5523 17 44 17H14C13.4477 17 13 16.5523 13 16V14ZM45 27C45 26.4477 44.5523 26 44 26H22C21.4477 26 21 26.4477 21 27V29C21 29.5523 21.4477 30 22 30H44C44.5523 30 45 29.5523 45 29V27Z" fill="url(#paint0_linear_322_163)"/>
</g>
<defs>
<filter id="filter0_d_322_163" x="0" y="0" width="49" height="39" filterUnits="userSpaceOnUse" color-interpolation-filters="sRGB">
<feFlood flood-opacity="0" result="BackgroundImageFix"/>
<feColorMatrix in="SourceAlpha" type="matrix" values="0 0 0 0 0 0 0 0 0 0 0 0 0 0 0 0 0 0 127 0" result="hardAlpha"/>
<feOffset dy="5"/>
<feGaussianBlur stdDeviation="2"/>
<feComposite in2="hardAlpha" operator="out"/>
<feColorMatrix type="matrix" values="0 0 0 0 0 0 0 0 0 0 0 0 0 0 0 0 0 0 0.15 0"/>
<feBlend mode="normal" in2="BackgroundImageFix" result="effect1_dropShadow_322_163"/>
<feBlend mode="normal" in="SourceGraphic" in2="effect1_dropShadow_322_163" result="shape"/>
</filter>
<linearGradient id="paint0_linear_322_163" x1="10.5423" y1="-19.125" x2="59.7352" y2="15.4984" gradientUnits="userSpaceOnUse">
<stop stop-color="#FFF8EC"/>
<stop offset="0.205627" stop-color="#FDE696"/>
<stop offset="1" stop-color="#C07721"/>
</linearGradient>
</defs>
</svg>
