<svg width="102" height="38" viewBox="0 0 102 38" fill="none" xmlns="http://www.w3.org/2000/svg">
<path fill-rule="evenodd" clip-rule="evenodd" d="M0.619141 18.9524L12.5239 0H89.0953L101.381 18.7619L89.381 38H12.8096L0.619141 18.9524ZM88.4561 1.88929H13.2011L6.87186 11.9655L13.8441 18.8929L6.4695 25.1905L13.4584 36.1107H88.7134L95.4666 25.2841L89.1007 18.8929L95.4666 12.5952L88.4561 1.88929ZM3.13819 18.9086L6.93252 15.1143L10.7268 18.9086L6.93252 22.7029L3.13819 18.9086ZM91.2575 18.9086L95.0518 15.1143L98.8461 18.9086L95.0518 22.7029L91.2575 18.9086ZM19.512 3.35645H26.767L25.751 4.5777V19.127L26.767 20.3483H19.512L20.5877 19.0683V4.63641L19.512 3.35645ZM28.4881 20.3365L29.5638 19.0683V4.63641L28.4881 3.35645H37.7391C44.1455 3.35645 47.3487 6.20995 47.3487 11.9169C47.3487 17.53 44.1853 20.3365 37.8586 20.3365H28.4881ZM34.7272 16.8254H37.1893C40.3845 16.8254 41.9821 15.1814 41.9821 11.8935C41.9821 8.55851 40.3447 6.89103 37.0698 6.89103H34.7272V16.8254ZM55.7989 3.35645H48.6634L49.7391 4.63641V19.0801L48.6634 20.36H64.4284V15.8038L62.9344 16.8489H54.7949V4.63641L55.7989 3.35645ZM66.2093 3.35645H82.4882V7.91265L81.1256 6.8558H72.3288V10.1908H77.9224L79.2252 9.13391V14.5708L77.9224 13.514H72.3288V16.8489H81.1256L82.4882 15.7921V20.3483H66.2093L67.285 19.0683V4.63641L66.2093 3.35645ZM25.1341 22.1096H20.8903L21.3164 23.0575L15.7334 34.7105H20.2816L19.5424 33.7539L20.1946 32.4582H26.2124L26.7777 33.7539L26.0385 34.7105H31.2824L25.1341 22.1096ZM25.2645 30.1624H21.0642L23.1861 25.6577L25.2645 30.1624ZM39.3612 22.1183H31.4824L32.2216 22.9706V33.8496L31.4824 34.7105H36.6741L35.9001 33.7626V30.2146H37.5437L39.9178 33.7626L39.1438 34.7105H44.7268L41.3092 29.7363C43.2108 29.2725 44.1616 28.0028 44.1616 25.9273C44.1616 23.388 42.5614 22.1183 39.3612 22.1183ZM35.9001 27.8318V24.7185H38.4046C39.7323 24.7185 40.3961 25.2229 40.3961 26.2317C40.3903 27.2984 39.741 27.8318 38.4481 27.8318H35.9001ZM45.4312 22.1183H57.2756V25.4925L56.2842 24.7098H49.8837V27.1796H53.9536L54.9015 26.3969V30.4233L53.9536 29.6406H49.8837V32.1103H56.2842L57.2756 31.3277V34.7018H45.4312L46.2139 33.7539V23.0662L45.4312 22.1183ZM62.2846 22.1183H58.3539L59.0931 23.1271V33.7713L58.3539 34.7018H62.7629L61.9889 33.7539V27.31L68.8155 34.7018H71.6331V23.0662L72.4071 22.1183H67.9981L68.7286 23.0227V29.3797L62.2846 22.1183ZM77.764 22.1096H82.0078L88.156 34.7105H82.9122L83.6514 33.7539L83.0861 32.4582H77.0683L76.4161 33.7539L77.1553 34.7105H72.6071L78.1901 23.0575L77.764 22.1096ZM77.9379 30.1624H82.1382L80.0598 25.6577L77.9379 30.1624Z" fill="white"/>
</svg>
