<svg width="20" height="20" viewBox="0 0 20 20" fill="none" xmlns="http://www.w3.org/2000/svg">
<g clip-path="url(#clip0_1_378)">
<path d="M12.6071 10.0552C12.6071 9.46143 12.1786 8.979 11.6786 8.979C11.1429 8.979 10.7143 9.46143 10.7143 10.0552C10.7143 10.6118 11.1429 11.0942 11.6786 11.0942C12.1786 11.0942 12.6071 10.6118 12.6071 10.0552ZM8.32143 8.979C7.82143 8.979 7.39286 9.46143 7.39286 10.0552C7.39286 10.6118 7.82143 11.0942 8.32143 11.0942C8.85714 11.0942 9.25 10.6118 9.25 10.0552C9.28571 9.46143 8.85714 8.979 8.32143 8.979ZM18 2.96729C18 1.89111 17.1429 1.00049 16.1071 1.00049H3.85714C2.82143 1.00049 2 1.89111 2 2.96729V15.8071C2 16.9204 2.82143 17.7739 3.85714 17.7739H14.2143L13.75 16.0298C16.4286 18.5903 15.6786 17.9224 18 20.0005V2.96729ZM15.3929 11.9849C15.3929 11.9849 14.6071 13.3579 12.5714 13.4321C12.5714 13.4321 12.25 13.0239 11.9643 12.6528C13.1786 12.3188 13.6429 11.5396 13.6429 11.5396C13.25 11.7993 12.8929 11.9478 12.5714 12.0962C10.6071 12.9497 8.42857 12.6528 6.85714 11.7622C6.85714 11.7251 6.64286 11.6138 6.5 11.5024C6.5 11.5024 6.92857 12.2817 8.10714 12.6528C7.82143 12.9868 7.5 13.4321 7.5 13.4321C5.46429 13.3579 4.71429 11.9849 4.71429 11.9849C4.71429 8.90479 6 6.45557 6 6.45557C7.32143 5.4165 8.57143 5.45361 8.57143 5.45361L8.67857 5.56494C7.03571 6.04736 6.28571 6.78955 6.28571 6.78955C6.28571 6.78955 6.46429 6.67822 6.82143 6.52979C8.92857 5.56494 11.4643 5.56494 13.6429 6.78955C13.6429 6.78955 12.9286 6.08447 11.3571 5.60205L11.5 5.45361C11.5 5.45361 12.75 5.4165 14.0714 6.45557C14.0714 6.45557 15.3929 8.90479 15.3929 11.9849Z" fill="#85827A"/>
</g>
<defs>
<clipPath id="clip0_1_378">
<rect width="20" height="20" fill="white"/>
</clipPath>
</defs>
</svg>
