<svg width="168" height="57" viewBox="0 0 168 57" fill="none" xmlns="http://www.w3.org/2000/svg">
<g filter="url(#filter0_d_1_196)">
<path d="M4 5C4 2.23858 6.23858 0 9 0H158.5C161.261 0 163.5 2.23858 163.5 5V34.3814C163.5 37.1428 161.261 39.3814 158.5 39.3814H104.62C97.1707 39.3814 89.9876 42.153 84.4689 47.157L83.5391 48L82.6094 47.157C77.0907 42.153 69.9076 39.3814 62.4581 39.3814H9C6.23858 39.3814 4 37.1428 4 34.3814V5Z" fill="url(#paint0_linear_1_196)"/>
</g>
<path d="M38.6866 27.9999V27.7399C37.6466 27.7399 37.6466 26.6799 37.6466 25.0999V23.0599H39.8666C43.0266 23.0799 44.6066 20.7999 44.6066 18.5399C44.6066 16.2599 43.0266 13.9999 39.8666 13.9999H34.2066V14.2599C35.2466 14.2599 35.2466 15.3199 35.2466 16.8999V25.0999C35.2466 26.6799 35.2466 27.7399 34.2066 27.7399V27.9999H38.6866ZM37.6466 16.2599H39.8666C41.3866 16.2599 42.1466 17.3999 42.1466 18.5399C42.1466 19.6799 41.3866 20.7999 39.8666 20.7999H37.6466V16.2599Z" fill="#311B16"/>
<path d="M57.0387 13.9999V14.2599C57.4387 14.2599 57.7188 14.6399 57.7188 15.2799C57.7188 15.6799 57.5988 16.2199 57.3188 16.8199L55.4388 20.8399C53.8788 20.8399 52.5387 20.8399 52.5387 19.8199H52.2787L52.5788 23.0799H61.2988L62.2188 25.0999C62.5987 25.9199 62.8988 26.6599 62.8988 27.1399C62.8988 27.5199 62.7388 27.7399 62.2788 27.7399V27.9999H66.7588V27.7399C66.0988 27.7399 65.7588 27.3199 65.3988 26.5999L65.1787 26.1399C65.0387 25.8199 64.8787 25.4599 64.6987 25.0399V25.0799L60.8388 16.8199C60.5588 16.2199 60.4388 15.6799 60.4388 15.2799C60.4388 14.6399 60.7188 14.2599 61.1388 14.2599V13.9999H59.2588H59.2788H57.0387ZM57.2588 24.7199H56.9788C56.9788 25.7599 55.6388 25.7599 54.0588 25.7599H49.6388V16.8999C49.6388 15.3199 49.6388 14.2599 50.6788 14.2599V13.9999H46.1987V14.2599C47.2387 14.2599 47.2388 15.3199 47.2388 16.8999V25.0999C47.2388 26.6799 47.2387 27.7399 46.1987 27.7399V27.9999H56.9588L57.2588 24.7199ZM59.0988 18.2999L60.2588 20.8399H57.9188L59.0988 18.2999Z" fill="#311B16"/>
<path d="M73.073 27.9999V27.7399C72.033 27.7399 72.033 26.6799 72.033 25.0999V22.4399L75.053 16.9399C75.093 16.8599 75.133 16.7799 75.173 16.6999L75.953 15.2799C76.353 14.6199 76.733 14.2599 77.353 14.2599V13.9999H72.893V14.2599C73.273 14.2599 73.433 14.4199 73.433 14.7199C73.433 15.1799 72.993 15.9799 72.513 16.8599L70.833 19.9599L69.133 16.8199C68.673 15.9599 68.233 15.1799 68.233 14.7199C68.233 14.4199 68.393 14.2599 68.793 14.2599V13.9999H64.313V14.2599C64.933 14.2599 65.333 14.6399 65.733 15.3199L66.393 16.5199C66.473 16.6599 66.553 16.7999 66.633 16.9599V16.9399L69.633 22.4399V25.4999C69.633 26.8599 69.553 27.7399 68.593 27.7399V27.9999H73.073Z" fill="#311B16"/>
<path d="M82.7027 13.9999V14.2599C83.7427 14.2599 83.7427 15.3199 83.7427 16.8999V25.0999C83.7427 26.6799 83.7427 27.7399 82.7027 27.7399V27.9999H87.1827V27.7399C86.1427 27.7399 86.1427 26.6799 86.1427 25.0999V18.9999L93.4827 27.9999H96.2027V27.7399C95.1627 27.7399 95.1627 26.6799 95.1627 25.0999V16.8999C95.1627 15.3199 95.1627 14.2599 96.2027 14.2599V13.9999H91.7227V14.2599C92.6627 14.2599 92.7627 15.1399 92.7627 16.4999V23.4199L85.1627 13.9999H82.7027Z" fill="#311B16"/>
<path d="M112.296 20.9999C112.296 16.1199 108.696 13.6799 105.096 13.6799C101.476 13.6799 97.8758 16.1199 97.8758 20.9999C97.8758 25.8799 101.476 28.3199 105.096 28.3199C108.696 28.3199 112.296 25.8799 112.296 20.9999ZM109.956 20.9999C109.956 24.2799 107.516 25.8999 105.096 25.8999C102.656 25.8999 100.236 24.2799 100.236 20.9999C100.236 17.7199 102.656 16.0999 105.096 16.0999C107.516 16.0999 109.956 17.7199 109.956 20.9999Z" fill="#311B16"/>
<path d="M121.014 27.9999V27.7399C120.734 27.7399 120.614 27.4999 120.614 27.1199C120.614 26.7999 120.714 26.3599 120.854 25.9199L121.194 25.0999L123.434 19.7399L125.654 25.0999V25.1199L125.994 25.9199C126.134 26.3599 126.234 26.7999 126.234 27.1199C126.234 27.4999 126.114 27.7399 125.834 27.7399V27.9999H128.754V27.7399C128.454 27.7399 128.334 27.4999 128.334 27.1199C128.334 26.7999 128.434 26.3799 128.574 25.9199L128.914 25.0999L132.334 16.9199C133.074 15.2599 133.234 14.2599 134.254 14.2599V13.9999H129.794V14.2599C130.254 14.2599 130.414 14.4799 130.414 14.8599C130.414 15.3399 130.134 16.0599 129.794 16.8999L127.294 22.8999L124.994 17.3999C124.694 16.6999 124.474 16.0799 124.474 15.6599C124.474 15.2799 124.654 15.0599 125.114 15.0599V14.7999H121.734V15.0599C122.194 15.0599 122.374 15.2799 122.374 15.6599C122.374 16.0199 122.214 16.5399 121.974 17.1399L119.554 22.8999L117.054 16.8999C116.714 16.0599 116.434 15.3399 116.434 14.8599C116.434 14.4799 116.594 14.2599 117.054 14.2599V13.9999H112.594V14.2599C113.614 14.2599 113.774 15.2599 114.534 16.9199L118.274 25.9199C118.414 26.3799 118.514 26.7999 118.514 27.1199C118.514 27.4999 118.394 27.7399 118.114 27.7399V27.9999H121.014Z" fill="#311B16"/>
<defs>
<filter id="filter0_d_1_196" x="0" y="0" width="167.5" height="57" filterUnits="userSpaceOnUse" color-interpolation-filters="sRGB">
<feFlood flood-opacity="0" result="BackgroundImageFix"/>
<feColorMatrix in="SourceAlpha" type="matrix" values="0 0 0 0 0 0 0 0 0 0 0 0 0 0 0 0 0 0 127 0" result="hardAlpha"/>
<feOffset dy="5"/>
<feGaussianBlur stdDeviation="2"/>
<feComposite in2="hardAlpha" operator="out"/>
<feColorMatrix type="matrix" values="0 0 0 0 0 0 0 0 0 0 0 0 0 0 0 0 0 0 0.15 0"/>
<feBlend mode="normal" in2="BackgroundImageFix" result="effect1_dropShadow_1_196"/>
<feBlend mode="normal" in="SourceGraphic" in2="effect1_dropShadow_1_196" result="shape"/>
</filter>
<linearGradient id="paint0_linear_1_196" x1="49" y1="-27" x2="114.281" y2="81.1466" gradientUnits="userSpaceOnUse">
<stop stop-color="#FFF8EC"/>
<stop offset="0.205627" stop-color="#FDE696"/>
<stop offset="1" stop-color="#C07721"/>
</linearGradient>
</defs>
</svg>
