<svg width="49" height="34" viewBox="0 0 49 34" fill="none" xmlns="http://www.w3.org/2000/svg">
<g filter="url(#filter0_d_246_247)">
<path d="M18.538 22.4719L16.0923 25L4 12.5L16.0923 0L18.538 2.52814L8.89138 12.5L18.538 22.4719Z" fill="#F3EEDA"/>
<path d="M18.538 22.4719L16.0923 25L4 12.5L16.0923 0L18.538 2.52814L8.89138 12.5L18.538 22.4719Z" fill="url(#paint0_linear_246_247)"/>
<path d="M45 12.5L20.1538 7.49043L15.3076 12.5L20.1538 17.5096L45 12.5Z" fill="#F3EEDA"/>
<path d="M45 12.5L20.1538 7.49043L15.3076 12.5L20.1538 17.5096L45 12.5Z" fill="url(#paint1_linear_246_247)"/>
</g>
<defs>
<filter id="filter0_d_246_247" x="0" y="0" width="49" height="34" filterUnits="userSpaceOnUse" color-interpolation-filters="sRGB">
<feFlood flood-opacity="0" result="BackgroundImageFix"/>
<feColorMatrix in="SourceAlpha" type="matrix" values="0 0 0 0 0 0 0 0 0 0 0 0 0 0 0 0 0 0 127 0" result="hardAlpha"/>
<feOffset dy="5"/>
<feGaussianBlur stdDeviation="2"/>
<feComposite in2="hardAlpha" operator="out"/>
<feColorMatrix type="matrix" values="0 0 0 0 0 0 0 0 0 0 0 0 0 0 0 0 0 0 0.15 0"/>
<feBlend mode="normal" in2="BackgroundImageFix" result="effect1_dropShadow_246_247"/>
<feBlend mode="normal" in="SourceGraphic" in2="effect1_dropShadow_246_247" result="shape"/>
</filter>
<linearGradient id="paint0_linear_246_247" x1="40" y1="-11" x2="6.30408" y2="32.2917" gradientUnits="userSpaceOnUse">
<stop stop-color="#FFF8EC"/>
<stop offset="0.205627" stop-color="#FDE696"/>
<stop offset="1" stop-color="#C07721"/>
</linearGradient>
<linearGradient id="paint1_linear_246_247" x1="40" y1="-11" x2="6.30408" y2="32.2917" gradientUnits="userSpaceOnUse">
<stop stop-color="#FFF8EC"/>
<stop offset="0.205627" stop-color="#FDE696"/>
<stop offset="1" stop-color="#C07721"/>
</linearGradient>
</defs>
</svg>
