<svg width="1440" height="33" viewBox="0 0 1440 33" fill="none" xmlns="http://www.w3.org/2000/svg">
<path d="M0 0V21.2887H28.0651L106.613 24.1853L136.065 18.1573L140.97 21.2887L180.247 25.454L196.935 23.87L195.63 20.3793L251.265 23.5547L319.012 18.48L327.195 16.5733L324.203 24.4713L338.318 26.4073L371.047 21.2887H392.753L430.695 17.5267L442.027 16.4047L441.323 10.648L443.497 15.312L522.12 21.2887L540.405 25.498L558.233 27.2653H575.602L591.142 29.9273L603.03 28.1527L617.198 26.8253L671.137 27.2653V17.5267L686.22 29.04L711.975 30.2133L711.773 28.7027L712.552 30.2353L738.96 31.438L740.04 31.108L743.4 31.636L773.363 33L773.7 32.3767L768.503 20.6213L789.99 22.396L807.818 26.8253H845.295L848.01 24.6693L848.617 24.7427L848.842 26.8253H907.92L925.29 21.956L939.345 17.1893L945.165 16.72L972.375 9.548L968.258 15.312L981.06 23.7233L986.543 16.192L1097.56 18.2527L1102.71 16.6907L1114.02 18.5607L1201.39 20.1813L1207.33 13.5373L1205.05 20.1813L1216.47 26.8253L1219.67 18.854L1226.99 24.1707L1232.92 22.396L1238.87 24.1707H1264.93L1273.15 15.312H1278.64H1287.32L1296.46 13.5373L1312 15.312L1337.72 16.8593L1367.72 13.8673L1387.7 18.348L1392.74 19.184L1396.86 12.87V16.5293L1417.09 14.7033L1440 14.8647V0H0Z" fill="#121426"/>
</svg>
