<svg width="732" height="483" viewBox="0 0 732 483" fill="none" xmlns="http://www.w3.org/2000/svg">
<path fill-rule="evenodd" clip-rule="evenodd" d="M60.6357 0H61H671H671.364L671.643 0.234295L696.364 21H731H732V22V399V400H731H727C726.328 400 725.661 400.023 725 400.068V409.451V410.158L724.333 410.394C717.055 412.966 711.354 418.882 709.077 426.294L708.86 427H708.121H698.068C698.023 427.661 698 428.328 698 429V434V435H697H397.9L379.321 452.694L387.026 460.399L387.734 461.106L387.026 461.814L366.92 481.92L366.213 482.627L365.506 481.92L345.399 461.814L344.692 461.106L345.399 460.399L352.708 453.091L333.109 435H35H34V434V429C34 428.328 33.9773 427.661 33.9323 427H33.912H33.8917H33.8712H33.8508H33.8303H33.8097H33.7891H33.7684H33.7476H33.7269H33.706H33.6851H33.6642H33.6432H33.6222H33.6011H33.58H33.5588H33.5375H33.5163H33.4949H33.4736H33.4521H33.4307H33.4092H33.3876H33.366H33.3444H33.3227H33.301H33.2792H33.2574H33.2355H33.2136H33.1917H33.1697H33.1477H33.1257H33.1036H33.0814H33.0593H33.037H33.0148H32.9925H32.9702H32.9478H32.9255H32.903H32.8806H32.8581H32.8355H32.813H32.7904H32.7678H32.7451H32.7224H32.6997H32.6769H32.6542H32.6314H32.6085H32.5856H32.5627H32.5398H32.5169H32.4939H32.4709H32.4478H32.4248H32.4017H32.3786H32.3555H32.3323H32.3091H32.2859H32.2627H32.2395H32.2162H32.1929H32.1696H32.1462H32.1229H32.0995H32.0761H32.0527H32.0293H32.0059H31.9824H31.9589H31.9354H31.9119H31.8884H31.8648H31.8413H31.8177H31.7941H31.7705H31.7469H31.7233H31.6997H31.676H31.6523H31.6287H31.605H31.5813H31.5576H31.5339H31.5102H31.4865H31.4627H31.439H31.4153H31.3915H31.3677H31.344H31.3202H31.2964H31.2727H31.2489H31.2251H31.2013H31.1775H31.1537H31.13H31.1062H31.0824H31.0586H31.0348H31.011H30.9872H30.9634H30.9396H30.9159H30.8921H30.8683H30.8445H30.8208H30.797H30.7732H30.7495H30.7257H30.702H30.6783H30.6545H30.6308H30.6071H30.5834H30.5597H30.536H30.5124H30.4887H30.4651H30.4414H30.4178H30.3942H30.3706H30.347H30.3234H30.2999H30.2763H30.2528H30.2293H30.2058H30.1823H30.1588H30.1354H30.112H30.0885H30.0651H30.0418H30.0184H29.9951H29.9718H29.9485H29.9252H29.9019H29.8787H29.8555H29.8323H29.8092H29.786H29.7629H29.7398H29.7168H29.6937H29.6707H29.6477H29.6248H29.6019H29.5789H29.5561H29.5332H29.5104H29.4876H29.4649H29.4421H29.4195H29.3968H29.3742H29.3516H29.329H29.3065H29.284H29.2615H29.2391H29.2167H29.1943H29.172H29.1497H29.1274H29.1052H29.083H29.0609H29.0388H29.0167H28.9947H28.9727H28.9508H28.9289H28.907H28.8852H28.8634H28.8417H28.82H28.7984H28.7767H28.7552H28.7337H28.7122H28.6908H28.6694H28.6481H28.6268H28.6055H28.5843H28.5632H28.5421H28.5211H28.5001H28.4791H28.4582H28.4374H28.4166H28.3958H28.3752H28.3545H28.3339H28.3134H28.2929H28.2725H28.2521H28.2318H28.2116H28.1914H28.1712H28.1511H28.1311H28.1111H28.0912H28.0714H28.0516H28.0319H28.0122H27.9926H27.973H27.9535H27.9341H27.9147H27.8954H27.8762H27.857H27.8379H27.8188H27.7999H27.7809H27.7621H27.7433H27.7246H27.7059H27.6873H27.6688H27.6504H27.632H27.6137H27.5955H27.5773H27.5592H27.5412H27.5232H27.5053H27.4875H27.4698H27.4521H27.4345H27.417H27.3996H27.3822H27.3649H27.3477H27.3306H27.3135H27.2965H27.2796H27.2628H27.246H27.2294H27.2128H27.1963H27.1798H27.1635H27.1472H27.131H27.1149H27.0989H27.083H27.0671H27.0513H27.0357H27.0201H27.0045H26.9891H26.9738H26.9585H26.9433H26.9283H26.9133H26.8984H26.8836H26.8688H26.8542H26.8396H26.8252H26.8108H26.7966H26.7824H26.7683H26.7543H26.7404H26.7266H26.7129H26.6992H26.6857H26.6723H26.659H26.6457H26.6326H26.6195H26.6066H26.5937H26.581H26.5683H26.5558H26.5434H26.531H26.5188H26.5066H26.4946H26.4826H26.4708H26.459H26.4474H26.4359H26.4245H26.4131H26.4019H26.3908H26.3798H26.3689H26.3581H26.3474H26.3369H26.3264H26.316H26.3058H26.2957H26.2856H26.2757H26.2659H26.2562H26.2466H26.2372H26.2278H26.2186H26.2094H26.2004H26.1915H26.1827H26.1741H26.1655H26.1571H26.1487H26.1405H26.1324H26.1245H26.1166H26.1089H26.1013H26.0938H26.0864H26.0792H26.072H26.065H26.0581H26.0514H26.0447H26.0382H26.0318H26.0256H26.0194H26.0134H26.0075H26.0017H25.9961H25.9906H25.9852H25.9799H25.9748H25.9698H25.9649H25.9602H25.9556H25.9511H25.9467H25.9425H25.9384H25.9345H25.9306H25.927H25.9234H25.92H25.9167H25.9135H25.9105H25.9076H25.9049H25.9023H25.8998H25.8975H25.8953H25.8932H25.8913H25.8895H25.8879H25.8864H25.885H25.8838H25.8827H25.8818H25.881H25.8804H25.8799H25.8795H25.1403L24.9233 426.294C22.4489 418.241 15.9335 411.955 7.7458 409.803L7 409.607V408.836V400.068C6.33917 400.023 5.67225 400 5 400H1H0V399V22V21H1H35.6357L60.3568 0.234295L60.6357 0ZM354.178 454.449L347.521 461.106L366.213 479.799L384.905 461.106L377.872 454.074L366.69 464.724L366.011 465.371L365.322 464.735L354.178 454.449ZM376.458 452.659L365.989 462.629L355.594 453.033L366.213 442.414L376.458 452.659ZM377.907 451.279L366.92 440.293L366.213 439.586L365.506 440.293L354.123 451.676L334.178 433.265L333.891 433H333.5H36V429C36 411.879 22.1208 398 5 398H2V23H730V398H727C709.879 398 696 411.879 696 429V433H397.5H397.1L396.81 433.276L377.907 451.279ZM670.636 2L693.255 21H38.7452L61.3643 2H670.636ZM723 400.274C710.184 402.042 700.042 412.184 698.274 425H707.393C709.918 417.537 715.676 411.567 723 408.754V400.274ZM33.7264 425C31.9583 412.184 21.8158 402.042 9 400.274V408.077C17.2698 410.512 23.856 416.871 26.6071 425H26.6195H26.6326H26.6457H26.659H26.6723H26.6857H26.6992H26.7129H26.7266H26.7404H26.7543H26.7683H26.7824H26.7966H26.8108H26.8252H26.8396H26.8542H26.8688H26.8836H26.8984H26.9133H26.9283H26.9433H26.9585H26.9738H26.9891H27.0045H27.0201H27.0357H27.0513H27.0671H27.083H27.0989H27.1149H27.131H27.1472H27.1635H27.1798H27.1963H27.2128H27.2294H27.246H27.2628H27.2796H27.2965H27.3135H27.3306H27.3477H27.3649H27.3822H27.3996H27.417H27.4345H27.4521H27.4698H27.4875H27.5053H27.5232H27.5412H27.5592H27.5773H27.5955H27.6137H27.632H27.6504H27.6688H27.6873H27.7059H27.7246H27.7433H27.7621H27.7809H27.7999H27.8188H27.8379H27.857H27.8762H27.8954H27.9147H27.9341H27.9535H27.973H27.9926H28.0122H28.0319H28.0516H28.0714H28.0912H28.1111H28.1311H28.1511H28.1712H28.1914H28.2116H28.2318H28.2521H28.2725H28.2929H28.3134H28.3339H28.3545H28.3752H28.3958H28.4166H28.4374H28.4582H28.4791H28.5001H28.5211H28.5421H28.5632H28.5843H28.6055H28.6268H28.6481H28.6694H28.6908H28.7122H28.7337H28.7552H28.7767H28.7984H28.82H28.8417H28.8634H28.8852H28.907H28.9289H28.9508H28.9727H28.9947H29.0167H29.0388H29.0609H29.083H29.1052H29.1274H29.1497H29.172H29.1943H29.2167H29.2391H29.2615H29.284H29.3065H29.329H29.3516H29.3742H29.3968H29.4195H29.4421H29.4649H29.4876H29.5104H29.5332H29.5561H29.5789H29.6019H29.6248H29.6477H29.6707H29.6937H29.7168H29.7398H29.7629H29.786H29.8092H29.8323H29.8555H29.8787H29.9019H29.9252H29.9485H29.9718H29.9951H30.0184H30.0418H30.0651H30.0885H30.112H30.1354H30.1588H30.1823H30.2058H30.2293H30.2528H30.2763H30.2999H30.3234H30.347H30.3706H30.3942H30.4178H30.4414H30.4651H30.4887H30.5124H30.536H30.5597H30.5834H30.6071H30.6308H30.6545H30.6783H30.702H30.7257H30.7495H30.7732H30.797H30.8208H30.8445H30.8683H30.8921H30.9159H30.9396H30.9634H30.9872H31.011H31.0348H31.0586H31.0824H31.1062H31.13H31.1537H31.1775H31.2013H31.2251H31.2489H31.2727H31.2964H31.3202H31.344H31.3677H31.3915H31.4153H31.439H31.4627H31.4865H31.5102H31.5339H31.5576H31.5813H31.605H31.6287H31.6523H31.676H31.6997H31.7233H31.7469H31.7705H31.7941H31.8177H31.8413H31.8648H31.8884H31.9119H31.9354H31.9589H31.9824H32.0059H32.0293H32.0527H32.0761H32.0995H32.1229H32.1462H32.1696H32.1929H32.2162H32.2395H32.2627H32.2859H32.3091H32.3323H32.3555H32.3786H32.4017H32.4248H32.4478H32.4709H32.4939H32.5169H32.5398H32.5627H32.5856H32.6085H32.6314H32.6542H32.6769H32.6997H32.7224H32.7451H32.7678H32.7904H32.813H32.8355H32.8581H32.8806H32.903H32.9255H32.9478H32.9702H32.9925H33.0148H33.037H33.0593H33.0814H33.1036H33.1257H33.1477H33.1697H33.1917H33.2136H33.2355H33.2574H33.2792H33.301H33.3227H33.3444H33.366H33.3876H33.4092H33.4307H33.4521H33.4736H33.4949H33.5163H33.5375H33.5588H33.58H33.6011H33.6222H33.6432H33.6642H33.6851H33.706H33.7264Z" fill="url(#paint0_linear_271_132)"/>
<defs>
<linearGradient id="paint0_linear_271_132" x1="132.844" y1="-52.7315" x2="903.689" y2="65.3701" gradientUnits="userSpaceOnUse">
<stop stop-color="#F4D392"/>
<stop offset="0.587721" stop-color="#B87C36"/>
<stop offset="0.951179" stop-color="#FFE6A5"/>
</linearGradient>
</defs>
</svg>
